<svg width="155" height="179" viewBox="0 0 155 179" fill="none" xmlns="http://www.w3.org/2000/svg">
<path d="M31.1093 126V119.232H33.5333V117.996H27.2813V119.232H29.7053V126H31.1093ZM38.1504 126.144C40.5504 126.144 42.2424 124.392 42.2424 122.004C42.2424 119.616 40.5504 117.864 38.1504 117.864C35.7504 117.864 34.0584 119.616 34.0584 122.004C34.0584 124.392 35.7504 126.144 38.1504 126.144ZM38.1504 124.896C36.5304 124.896 35.4984 123.648 35.4984 122.004C35.4984 120.348 36.5304 119.112 38.1504 119.112C39.7584 119.112 40.8024 120.348 40.8024 122.004C40.8024 123.648 39.7584 124.896 38.1504 124.896ZM44.9982 126V123.012H47.1102C48.7782 123.012 49.7262 121.86 49.7262 120.504C49.7262 119.148 48.7902 117.996 47.1102 117.996H43.5942V126H44.9982ZM46.9182 121.776H44.9982V119.232H46.9182C47.7102 119.232 48.2862 119.736 48.2862 120.504C48.2862 121.272 47.7102 121.776 46.9182 121.776ZM60.949 126V117.996H59.545V121.272H55.381V117.996H53.977V126H55.381V122.508H59.545V126H60.949ZM68.1329 126V124.764H64.0529V122.544H68.0489V121.308H64.0529V119.232H68.1329V117.996H62.6489V126H68.1329ZM76.7747 126L73.6307 117.996H71.8787L68.7347 126H70.3307L70.9187 124.464H74.5907L75.1787 126H76.7747ZM74.1947 123.228H71.3147L72.7547 119.412L74.1947 123.228ZM82.5809 126V124.764H79.0529V117.996H77.6489V126H82.5809ZM85.9648 126V119.232H88.3888V117.996H82.1368V119.232H84.5608V126H85.9648ZM96.5506 126V117.996H95.1466V121.272H90.9826V117.996H89.5786V126H90.9826V122.508H95.1466V126H96.5506ZM102.09 126.144C103.71 126.144 104.694 125.304 105.306 124.344L104.106 123.732C103.722 124.404 102.954 124.896 102.09 124.896C100.506 124.896 99.3304 123.684 99.3304 122.004C99.3304 120.324 100.506 119.112 102.09 119.112C102.954 119.112 103.722 119.616 104.106 120.276L105.306 119.664C104.706 118.704 103.71 117.864 102.09 117.864C99.7264 117.864 97.8904 119.544 97.8904 122.004C97.8904 124.464 99.7264 126.144 102.09 126.144ZM113.572 126L110.428 117.996H108.676L105.532 126H107.128L107.716 124.464H111.388L111.976 126H113.572ZM110.992 123.228H108.112L109.552 119.412L110.992 123.228ZM120.638 126L118.682 122.856C119.642 122.7 120.578 121.932 120.578 120.504C120.578 119.028 119.546 117.996 117.962 117.996H114.446V126H115.85V123.012H117.242L119.018 126H120.638ZM117.77 121.776H115.85V119.232H117.77C118.562 119.232 119.138 119.736 119.138 120.504C119.138 121.272 118.562 121.776 117.77 121.776ZM127.465 126V124.764H123.385V122.544H127.381V121.308H123.385V119.232H127.465V117.996H121.981V126H127.465ZM5.51378 140.144C7.67378 140.144 8.60978 139.004 8.60978 137.672C8.60978 134.684 3.95378 135.608 3.95378 134.12C3.95378 133.52 4.48178 133.124 5.30978 133.124C6.14978 133.124 7.00178 133.412 7.62578 134.036L8.42978 132.992C7.68578 132.272 6.67778 131.876 5.42978 131.876C3.67778 131.876 2.51378 132.896 2.51378 134.216C2.51378 137.168 7.18178 136.124 7.18178 137.804C7.18178 138.332 6.72578 138.896 5.57378 138.896C4.45778 138.896 3.59378 138.38 3.04178 137.792L2.26178 138.872C2.96978 139.628 4.03778 140.144 5.51378 140.144ZM13.6348 140.144C16.0348 140.144 17.7268 138.392 17.7268 136.004C17.7268 133.616 16.0348 131.864 13.6348 131.864C11.2348 131.864 9.54278 133.616 9.54278 136.004C9.54278 138.392 11.2348 140.144 13.6348 140.144ZM13.6348 138.896C12.0148 138.896 10.9828 137.648 10.9828 136.004C10.9828 134.348 12.0148 133.112 13.6348 133.112C15.2428 133.112 16.2868 134.348 16.2868 136.004C16.2868 137.648 15.2428 138.896 13.6348 138.896ZM20.4826 140V136.544H24.4786V135.308H20.4826V133.232H24.5626V131.996H19.0786V140H20.4826ZM29.1288 140V133.232H31.5528V131.996H25.3008V133.232H27.7248V140H29.1288ZM40.3626 140L42.6426 131.996H41.0706L39.5226 138.164L37.8666 131.996H36.7506L35.0946 138.164L33.5346 131.996H31.9626L34.2546 140H35.7546L37.3026 134.096L38.8626 140H40.3626ZM50.2434 140L47.0994 131.996H45.3474L42.2034 140H43.7994L44.3874 138.464H48.0594L48.6474 140H50.2434ZM47.6634 137.228H44.7834L46.2234 133.412L47.6634 137.228ZM57.3096 140L55.3536 136.856C56.3136 136.7 57.2496 135.932 57.2496 134.504C57.2496 133.028 56.2176 131.996 54.6336 131.996H51.1176V140H52.5216V137.012H53.9136L55.6896 140H57.3096ZM54.4416 135.776H52.5216V133.232H54.4416C55.2336 133.232 55.8096 133.736 55.8096 134.504C55.8096 135.272 55.2336 135.776 54.4416 135.776ZM64.1368 140V138.764H60.0568V136.544H64.0528V135.308H60.0568V133.232H64.1368V131.996H58.6528V140H64.1368ZM71.6366 140C74.1326 140 75.8246 138.356 75.8246 136.004C75.8246 133.652 74.1326 131.996 71.6366 131.996H68.6606V140H71.6366ZM71.6366 138.764H70.0646V133.232H71.6366C73.4246 133.232 74.3846 134.456 74.3846 136.004C74.3846 137.516 73.3766 138.764 71.6366 138.764ZM82.6641 140V138.764H78.5841V136.544H82.5801V135.308H78.5841V133.232H82.6641V131.996H77.1801V140H82.6641ZM88.1619 140L91.3059 131.996H89.7099L87.2859 138.476L84.8619 131.996H83.2659L86.4099 140H88.1619ZM97.6641 140V138.764H93.5841V136.544H97.5801V135.308H93.5841V133.232H97.6641V131.996H92.1801V140H97.6641ZM104.038 140V138.764H100.51V131.996H99.1059V140H104.038ZM108.674 140.144C111.074 140.144 112.766 138.392 112.766 136.004C112.766 133.616 111.074 131.864 108.674 131.864C106.274 131.864 104.582 133.616 104.582 136.004C104.582 138.392 106.274 140.144 108.674 140.144ZM108.674 138.896C107.054 138.896 106.022 137.648 106.022 136.004C106.022 134.348 107.054 133.112 108.674 133.112C110.282 133.112 111.326 134.348 111.326 136.004C111.326 137.648 110.282 138.896 108.674 138.896ZM115.522 140V137.012H117.634C119.302 137.012 120.25 135.86 120.25 134.504C120.25 133.148 119.314 131.996 117.634 131.996H114.118V140H115.522ZM117.442 135.776H115.522V133.232H117.442C118.234 133.232 118.81 133.736 118.81 134.504C118.81 135.272 118.234 135.776 117.442 135.776ZM129.734 140V131.996H127.754L125.57 137.264L123.398 131.996H121.418V140H122.822V134.06L125.27 140H125.87L128.33 134.06V140H129.734ZM136.922 140V138.764H132.842V136.544H136.838V135.308H132.842V133.232H136.922V131.996H131.438V140H136.922ZM145.3 140V131.996H143.896V137.552L139.804 131.996H138.364V140H139.768V134.288L143.944 140H145.3ZM150.312 140V133.232H152.736V131.996H146.484V133.232H148.908V140H150.312ZM48.3717 154.144C49.9917 154.144 50.9757 153.304 51.5877 152.344L50.3877 151.732C50.0037 152.404 49.2357 152.896 48.3717 152.896C46.7877 152.896 45.6117 151.684 45.6117 150.004C45.6117 148.324 46.7877 147.112 48.3717 147.112C49.2357 147.112 50.0037 147.616 50.3877 148.276L51.5877 147.664C50.9877 146.704 49.9917 145.864 48.3717 145.864C46.0077 145.864 44.1717 147.544 44.1717 150.004C44.1717 152.464 46.0077 154.144 48.3717 154.144ZM56.4434 154.144C58.8434 154.144 60.5354 152.392 60.5354 150.004C60.5354 147.616 58.8434 145.864 56.4434 145.864C54.0434 145.864 52.3514 147.616 52.3514 150.004C52.3514 152.392 54.0434 154.144 56.4434 154.144ZM56.4434 152.896C54.8234 152.896 53.7914 151.648 53.7914 150.004C53.7914 148.348 54.8234 147.112 56.4434 147.112C58.0514 147.112 59.0954 148.348 59.0954 150.004C59.0954 151.648 58.0514 152.896 56.4434 152.896ZM70.2032 154V145.996H68.2232L66.0392 151.264L63.8672 145.996H61.8872V154H63.2912V148.06L65.7392 154H66.3392L68.7992 148.06V154H70.2032ZM73.3107 154V151.012H75.4227C77.0907 151.012 78.0387 149.86 78.0387 148.504C78.0387 147.148 77.1027 145.996 75.4227 145.996H71.9067V154H73.3107ZM75.2307 149.776H73.3107V147.232H75.2307C76.0227 147.232 76.5987 147.736 76.5987 148.504C76.5987 149.272 76.0227 149.776 75.2307 149.776ZM85.5051 154L82.3611 145.996H80.6091L77.4651 154H79.0611L79.6491 152.464H83.3211L83.9091 154H85.5051ZM82.9251 151.228H80.0451L81.4851 147.412L82.9251 151.228ZM93.3153 154V145.996H91.9113V151.552L87.8193 145.996H86.3793V154H87.7833V148.288L91.9593 154H93.3153ZM96.4201 154V145.996H95.0161V154H96.4201ZM103.606 154V152.764H99.5255V150.544H103.522V149.308H99.5255V147.232H103.606V145.996H98.1215V154H103.606ZM107.783 154.144C109.943 154.144 110.879 153.004 110.879 151.672C110.879 148.684 106.223 149.608 106.223 148.12C106.223 147.52 106.751 147.124 107.579 147.124C108.419 147.124 109.271 147.412 109.895 148.036L110.699 146.992C109.955 146.272 108.947 145.876 107.699 145.876C105.947 145.876 104.783 146.896 104.783 148.216C104.783 151.168 109.451 150.124 109.451 151.804C109.451 152.332 108.995 152.896 107.843 152.896C106.727 152.896 105.863 152.38 105.311 151.792L104.531 152.872C105.239 153.628 106.307 154.144 107.783 154.144Z" fill="black"/>
<path d="M77.765 68.6661C77.5774 68.6661 77.5774 68.4654 77.765 68.6661L76.827 68.0638L76.6394 67.863L54.5036 50.9977C54.5036 50.9977 54.3161 50.9977 54.3161 50.797L53.9409 50.3954L53.7533 50.1946H53.3781L47 45.376L59.5686 47.3837C60.1314 47.3837 60.319 47.5845 60.8817 47.7853C61.0693 47.7853 61.4445 47.9861 61.4445 47.9861C62.0073 48.1869 62.1949 48.3876 62.5701 48.5884C62.9453 48.7892 63.1328 48.99 63.508 49.1907C63.6956 49.3915 64.0708 49.5923 64.0708 49.7931C64.2584 49.9939 64.446 49.9939 64.6336 50.1946C65.0088 50.3954 65.1963 50.5962 65.1963 50.797C65.7591 51.3993 66.1343 52.0016 66.6971 52.4032L76.6394 67.4615L76.827 67.6623L77.765 68.6661Z" fill="#18AAD1"/>
<path d="M77.7649 91.9564L76.8269 90.3502L76.6393 90.1494L47.1875 45.376L53.5656 50.1946L54.6912 50.9978L76.8269 67.8631H77.0145L77.7649 68.4654C77.7649 68.4654 77.9525 68.4654 77.9525 68.6662L78.8904 67.8631L108.717 45.376L78.7028 90.3502L78.5153 90.551L77.7649 91.9564Z" fill="url(#paint0_linear)"/>
<path d="M77.7649 61.0363L76.8269 59.4301L76.6393 59.2293L69.3232 48.3873L76.6393 49.9935H76.8269L77.7649 50.1943L78.7028 49.9935L85.8313 48.1865L78.7028 59.4301V59.6309L77.7649 61.0363Z" fill="#18AAD1"/>
<path d="M108.905 45.1748L99.5252 46.5802L95.961 47.1826C93.1471 47.5841 90.5209 49.1904 88.8325 51.8005L78.8902 67.0595L78.7026 67.2603L77.7646 68.6658L78.8902 67.4611L79.0778 67.2603L77.7646 68.6658L103.089 49.3911L108.905 45.1748Z" fill="#18AAD1"/>
<path d="M82.4547 13.4521C82.4547 22.2862 68.1978 26.9041 68.1978 36.3406C68.0102 38.5492 68.573 40.7577 69.5109 42.7655C69.5109 42.7655 64.0708 37.1437 64.0708 31.1204C64.0708 25.0971 69.3233 16.0622 69.3233 16.0622C69.3233 20.0777 70.8241 21.2824 72.3248 21.4831H72.5124C74.2007 21.4831 75.1387 20.0777 75.1387 18.0699C75.1387 16.0622 73.0752 14.0544 73.0752 10.0389C73.0752 6.22409 77.5774 0 77.5774 0C80.7664 4.01554 82.4547 8.63341 82.4547 13.4521Z" fill="#2AD2FF"/>
<path d="M78.5155 45.5763C74.0134 45.5763 70.6367 41.7615 70.6367 37.1436V36.9429C70.6367 26.7032 83.9557 25.6993 83.9557 11.8457C84.3309 12.448 87.8951 17.6682 87.8951 23.29C87.8951 30.3172 81.7046 32.1242 81.7046 35.5374C81.7046 36.9429 82.2674 37.9468 84.1433 37.9468C84.3309 37.9468 84.5185 37.9468 84.706 37.746C88.2703 36.1398 90.709 32.5258 90.8965 28.3094C90.8965 28.5102 92.7725 45.5763 78.5155 45.5763Z" fill="#2AD2FF"/>
<path d="M84.3307 37.9468C84.5183 37.9468 84.7058 37.9468 84.8934 37.746C83.0175 38.3483 76.0767 40.1553 76.0767 34.9351C76.0767 28.5102 86.3942 27.1048 86.3942 21.6838C86.3942 18.2706 85.6438 14.8574 83.9555 11.8457C84.3307 12.448 87.8949 17.6682 87.8949 23.29C87.8949 30.3172 81.7044 32.1242 81.7044 35.5374C81.892 36.9429 82.6423 37.9468 84.3307 37.9468Z" fill="#18AAD1"/>
<path d="M78.3781 17.0661C78.3781 22.0855 72.3752 21.684 72 21.4832H72.5628C74.2511 21.4832 75.189 20.0778 75.189 18.07C75.189 16.0622 73.1255 14.0544 73.1255 10.0389C73.1255 6.2241 77.6277 0 77.6277 0C76.127 2.61011 75.3766 5.42099 75.189 8.23188C75.189 12.8498 78.3781 13.2513 78.3781 17.0661Z" fill="#18AAD1"/>
<path d="M74.9512 104.806L70.8242 101.794H75.8892L77.5775 96.373L79.0782 101.794H84.1432L80.0162 104.806L81.5169 110.026L77.3899 106.813L73.0753 110.026L74.9512 104.806Z" fill="#18AAD1"/>
<path d="M98.127 104.806L94 101.794H99.065L100.753 96.373L102.254 101.794H107.319L103.192 104.806L104.693 110.026L100.566 106.813L96.2511 110.026L98.127 104.806Z" fill="#18AAD1"/>
<path d="M121.127 104.806L117 101.794H122.065L123.753 96.373L125.254 101.794H130.319L126.192 104.806L127.693 110.026L123.566 106.813L119.251 110.026L121.127 104.806Z" fill="#18AAD1"/>
<path d="M51.127 104.806L47 101.794H52.065L53.7533 96.373L55.254 101.794H60.319L56.192 104.806L57.6927 110.026L53.5657 106.813L49.4387 110.026L51.127 104.806Z" fill="#18AAD1"/>
<path d="M28.127 104.806L24 101.794H29.065L30.7533 96.373L32.254 101.794H37.319L33.192 104.806L34.6927 110.026L30.5657 106.813L26.4387 110.026L28.127 104.806Z" fill="#18AAD1"/>
<path d="M132.1 160.1H22.7998V178.3H132.1V160.1Z" fill="#0460B5"/>
<path d="M31.2 151H9L13.6 160.1L9 169.2H21.3L21.4 159.3L31.2 151Z" fill="#0460B5"/>
<path d="M123.8 151H145.9L141.3 160.1L145.9 169.2H133.6V159.3L123.8 151Z" fill="#0460B5"/>
<path d="M33.8998 166C34.4998 166.3 34.9998 166.8 35.2998 167.3C35.5998 167.9 35.7998 168.6 35.7998 169.2C35.7998 169.9 35.5998 170.5 35.2998 171.1C34.9998 171.7 34.4998 172.1 33.8998 172.4C33.2998 172.7 32.5998 172.9 31.8998 172.9H28.7998V165.4H31.8998C32.5998 165.5 33.2998 165.6 33.8998 166ZM33.1998 171.4C33.5998 171.2 33.8998 170.9 34.0998 170.5C34.4998 169.7 34.4998 168.7 34.0998 167.9C33.8998 167.5 33.5998 167.2 33.1998 167C32.7998 166.8 32.3998 166.7 31.8998 166.7H30.1998V171.7H31.8998C32.2998 171.7 32.7998 171.6 33.1998 171.4Z" fill="white"/>
<path d="M37 165.5H42.5V166.7H38.5V168.6H42.1V169.8H38.5V171.7H42.7V172.9H37V165.5Z" fill="white"/>
<path d="M47.6998 166.9C47.3998 166.8 46.9998 166.7 46.5998 166.7C46.2998 166.7 45.9998 166.8 45.7998 166.9C45.5998 167 45.4998 167.2 45.4998 167.4C45.4998 167.6 45.5998 167.8 45.6998 167.9C45.7998 168 45.9998 168.2 46.1998 168.2C46.4998 168.3 46.7998 168.4 47.0998 168.5C47.4998 168.6 47.8998 168.8 48.2998 168.9C48.5998 169.1 48.8998 169.3 49.0998 169.6C49.2998 169.9 49.4998 170.3 49.3998 170.8C49.3998 171.2 49.2998 171.7 48.9998 172C48.6998 172.3 48.3998 172.6 47.9998 172.8C47.4998 173 46.9998 173.1 46.4998 173.1C45.8998 173.1 45.2998 173 44.7998 172.8C44.2998 172.6 43.7998 172.3 43.2998 171.9L43.8998 170.7C44.2998 171 44.6998 171.3 45.1998 171.5C45.5998 171.7 46.0998 171.8 46.4998 171.8C46.7998 171.8 47.1998 171.7 47.3998 171.6C47.7998 171.4 47.7998 170.9 47.5998 170.5L47.4998 170.4C47.2998 170.3 47.1998 170.1 46.9998 170.1C46.7998 170 46.4998 169.9 46.0998 169.8C45.6998 169.7 45.2998 169.5 44.8998 169.4C44.5998 169.3 44.2998 169 44.0998 168.8C43.8998 168.5 43.6998 168.1 43.7998 167.7C43.7998 167.3 43.8998 166.9 44.0998 166.6C44.3998 166.3 44.6998 166 45.0998 165.8C45.5998 165.6 46.0998 165.5 46.5998 165.5C47.0998 165.5 47.5998 165.6 47.9998 165.7C48.3998 165.8 48.8998 166 49.2998 166.3L48.6998 167.5C48.4998 167.2 48.0998 167 47.6998 166.9Z" fill="white"/>
<path d="M50.8999 165.5H52.2999V173H50.8999V165.5Z" fill="white"/>
<path d="M59.2 169.2H60.4V172.1C60 172.4 59.5 172.6 59 172.8C58.5 173 58 173.1 57.4 173.1C56.7 173.1 56 172.9 55.4 172.6C54.8 172.3 54.3 171.8 54 171.2C53.6 170.6 53.5 169.9 53.5 169.2C53.5 168.5 53.7 167.8 54 167.3C54.4 166.7 54.9 166.2 55.5 165.9C56.1 165.6 56.8 165.4 57.5 165.4C58 165.4 58.6 165.5 59.1 165.7C59.6 165.9 60.1 166.1 60.4 166.5L59.6 167.6C59.3 167.3 59 167.1 58.6 167C58.2 166.9 57.9 166.8 57.5 166.8C57 166.8 56.6 166.9 56.2 167.1C55 167.8 54.6 169.4 55.3 170.6C55.8 171.4 56.6 171.9 57.5 171.9C57.8 171.9 58 171.9 58.3 171.8C58.6 171.7 58.9 171.6 59.1 171.4L59.2 169.2Z" fill="white"/>
<path d="M67.4002 165.5H68.8002V173H67.5002L63.6002 167.8V173H62.2002V165.5H63.6002L67.5002 170.7L67.4002 165.5Z" fill="white"/>
<path d="M75.3001 173L74.0001 170.8H72.0001V173H70.6001V165.5H73.7001C74.5001 165.4 75.3001 165.7 76.0001 166.1C76.5001 166.6 76.8001 167.3 76.8001 168C76.8001 168.5 76.7001 169 76.4001 169.5C76.1001 169.9 75.7001 170.2 75.3001 170.4L77.0001 172.9L75.3001 173ZM72.0001 169.5H73.7001C74.2001 169.5 74.6001 169.4 75.0001 169.1C75.3001 168.8 75.4001 168.5 75.4001 168.1C75.4001 167.7 75.3001 167.3 75.0001 167.1C74.6001 166.9 74.2001 166.7 73.8001 166.8H72.0001V169.5Z" fill="white"/>
<path d="M80.1001 171.3C80.5001 171.6 81.0001 171.8 81.4001 171.8C81.9001 171.8 82.4001 171.6 82.7001 171.3C83.0001 170.9 83.2001 170.4 83.2001 169.9V165.5H84.6001V169.9C84.6001 170.5 84.5001 171.1 84.2001 171.6C83.9001 172.1 83.5001 172.5 83.1001 172.7C82.6001 173 82.0001 173.1 81.4001 173.1C80.8001 173.1 80.2001 173 79.6001 172.7C79.1001 172.5 78.7001 172.1 78.5001 171.6C78.2001 171.1 78.1001 170.5 78.1001 169.9V165.5H79.5001V169.9C79.6001 170.4 79.8001 170.9 80.1001 171.3Z" fill="white"/>
<path d="M90.0001 166.9C89.7001 166.8 89.3001 166.7 88.9001 166.7C88.6001 166.7 88.3001 166.8 88.1001 166.9C87.9001 167 87.8001 167.2 87.8001 167.4C87.8001 167.6 87.9001 167.8 88.0001 167.9C88.1001 168 88.3001 168.2 88.5001 168.2C88.8001 168.3 89.1001 168.4 89.4001 168.5C89.8001 168.6 90.2001 168.8 90.6001 168.9C90.9001 169.1 91.2001 169.3 91.4001 169.6C91.6001 169.9 91.8001 170.3 91.7001 170.8C91.7001 171.2 91.6001 171.7 91.3001 172C91.0001 172.3 90.7001 172.6 90.3001 172.8C89.8001 173 89.3001 173.1 88.8001 173.1C88.2001 173.1 87.6001 173 87.1001 172.8C86.6001 172.6 86.1001 172.3 85.6001 171.9L86.2001 170.7C86.6001 171 87.0001 171.3 87.5001 171.5C87.9001 171.7 88.4001 171.8 88.8001 171.8C89.1001 171.8 89.5001 171.7 89.7001 171.6C90.1001 171.4 90.1001 170.9 89.9001 170.5L89.8001 170.4C89.6001 170.3 89.5001 170.1 89.3001 170.1C89.1001 170 88.8001 169.9 88.4001 169.8C88.0001 169.7 87.6001 169.5 87.2001 169.4C86.9001 169.3 86.6001 169 86.4001 168.8C86.2001 168.5 86.0001 168.1 86.1001 167.7C86.1001 167.3 86.2001 166.9 86.4001 166.6C86.7001 166.3 87.0001 166 87.4001 165.8C87.9001 165.6 88.4001 165.5 88.9001 165.5C89.4001 165.5 89.9001 165.6 90.3001 165.7C90.7001 165.8 91.2001 166 91.6001 166.3L91.0001 167.5C90.8001 167.2 90.4001 167 90.0001 166.9Z" fill="white"/>
<path d="M93.2002 165.5H94.6002V168.7H98.3002V165.5H99.7002V173H98.3002V170H94.6002V173H93.2002V165.5Z" fill="white"/>
<path d="M102.4 171.7C102.5 171.8 102.6 172 102.6 172.3C102.6 172.5 102.5 172.7 102.4 172.9C102.3 173 102.1 173.1 101.9 173.1C101.7 173.1 101.5 173 101.4 172.9C101.3 172.7 101.2 172.5 101.2 172.3C101.2 172.1 101.3 171.9 101.4 171.7C101.5 171.6 101.7 171.5 101.9 171.5C102.1 171.5 102.3 171.6 102.4 171.7Z" fill="white"/>
<path d="M106.4 168.4C106 168.4 105.6 168.6 105.3 168.9C105 169.2 104.9 169.7 104.9 170.1C104.9 170.6 105 171 105.3 171.3C105.6 171.6 106 171.8 106.4 171.8C107 171.8 107.6 171.6 107.9 171.1L108.8 171.8C108.5 172.2 108.2 172.5 107.8 172.7C107.3 172.9 106.8 173 106.3 173C105.8 173 105.3 172.9 104.8 172.6C104.4 172.4 104 172 103.8 171.6C103.3 170.7 103.3 169.5 103.8 168.6C104 168.2 104.4 167.8 104.8 167.6C105.3 167.4 105.8 167.2 106.3 167.2C106.8 167.2 107.3 167.3 107.7 167.5C108.1 167.7 108.4 167.9 108.7 168.3L107.9 169.1C107.6 168.7 107 168.4 106.4 168.4Z" fill="white"/>
<path d="M113.9 167.6C114.3 167.8 114.7 168.2 115 168.6C115.3 169.1 115.4 169.6 115.4 170.1C115.4 170.6 115.3 171.2 115 171.6C114.7 172 114.4 172.4 113.9 172.6C113.4 172.8 112.9 173 112.3 173C111.7 173 111.2 172.9 110.7 172.6C110.3 172.4 109.9 172 109.6 171.6C109.3 171.1 109.2 170.6 109.2 170.1C109.2 169.6 109.3 169 109.6 168.6C109.9 168.2 110.2 167.8 110.7 167.6C111.2 167.3 111.7 167.2 112.3 167.2C112.9 167.2 113.4 167.3 113.9 167.6ZM111.2 168.9C110.6 169.6 110.6 170.7 111.2 171.4C111.5 171.7 111.9 171.9 112.4 171.9C112.8 171.9 113.3 171.7 113.6 171.4C114.2 170.7 114.2 169.6 113.6 168.9C113.3 168.6 112.9 168.4 112.4 168.4C111.9 168.4 111.5 168.5 111.2 168.9Z" fill="white"/>
<path d="M125.6 167.8C126 168.2 126.2 168.8 126.2 169.4V173H124.8V169.8C124.8 169.4 124.7 169.1 124.5 168.8C124.3 168.6 123.9 168.4 123.6 168.4C123.2 168.4 122.8 168.6 122.5 168.9C122.2 169.2 122.1 169.6 122.1 170.1V172.9H120.7V169.8C120.7 169.4 120.6 169.1 120.4 168.8C120.2 168.6 119.8 168.4 119.5 168.4C119.1 168.4 118.7 168.6 118.4 168.9C118.1 169.2 118 169.7 118.1 170.1V172.9H116.7V167.2H118.1V168.3C118.8 167.2 120.3 166.9 121.4 167.5C121.7 167.7 122 168.1 122.1 168.5C122.4 167.6 123.3 167.1 124.2 167.1C124.7 167.1 125.2 167.4 125.6 167.8Z" fill="white"/>
<defs>
<linearGradient id="paint0_linear" x1="77.9525" y1="92.0938" x2="77.9525" y2="67.4501" gradientUnits="userSpaceOnUse">
<stop offset="1" stop-color="#2AD2FF"/>
</linearGradient>
</defs>
</svg>
