<?xml version="1.0" encoding="utf-8"?>
<!-- Generator: Adobe Illustrator 26.0.2, SVG Export Plug-In . SVG Version: 6.00 Build 0)  -->
<svg version="1.1" id="Layer_1" xmlns="http://www.w3.org/2000/svg" xmlns:xlink="http://www.w3.org/1999/xlink" x="0px" y="0px"
	 viewBox="0 0 512 512" style="enable-background:new 0 0 512 512;" xml:space="preserve">
<style type="text/css">
	.st0{fill:#6C9EC4;}
</style>
<g transform="translate(0.000000,512.000000) scale(0.100000,-0.100000)">
	<path class="st0" d="M175,5026c-37-16-70-52-84-89c-39-103,41-303,211-528l68-89l-68-89c-146-193-229-372-220-478
		c8-88,62-143,150-151c106-8,284,74,480,222l88,66l87-66c197-148,375-230,481-222c88,8,142,63,150,151c9,106-74,285-220,478l-68,89
		l68,89c146,193,229,372,220,478c-8,89-62,143-151,151c-106,9-285-74-478-220l-89-68l-89,68C480,4993,278,5072,175,5026z M375,4841
		c68-31,208-121,265-170l35-30l-97-97c-85-86-99-96-113-84c-26,22-161,229-190,292c-14,32-29,74-32,94l-6,37l37-6
		C295,4874,340,4858,375,4841z M1357,4845c-3-20-18-61-32-93c-29-62-164-270-190-292c-14-12-27-2-111,81c-52,51-94,97-94,101
		c0,11,126,102,213,153c89,53,160,84,196,85C1361,4880,1362,4877,1357,4845z M912,4431c54-54,98-104,98-111c0-17-192-210-209-210
		c-18,0-211,193-211,210s193,210,211,210C808,4530,859,4486,912,4431z M579,4096c80-81,93-97,82-110c-24-28-219-156-293-191
		c-84-40-128-46-128-15c0,36,41,128,96,217c64,101,131,193,142,193C482,4190,528,4148,579,4096z M1183,4118c98-135,171-269,179-328
		c3-23,0-25-35-24c-20,1-67,16-104,34c-73,36-262,159-283,185c-12,14-2,28,81,111c51,52,97,94,101,94S1154,4157,1183,4118z"/>
	<path class="st0" d="M745,4375c-50-49-15-135,55-135c41,0,80,39,80,80s-39,80-80,80C781,4400,760,4391,745,4375z"/>
	<path class="st0" d="M3945,4855c-24-23-25-29-25-160v-135h480h480v135c0,131-1,137-25,160l-24,25h-431h-431L3945,4855z"/>
	<path class="st0" d="M3920,4240v-160h480h480v160v160h-480h-480V4240z"/>
	<path class="st0" d="M1680,4240v-80h80h80v80v80h-80h-80V4240z"/>
	<path class="st0" d="M2000,4240v-80h80h80v80v80h-80h-80V4240z"/>
	<path class="st0" d="M2320,4240v-80h640h640v80v80h-640h-640V4240z"/>
	<path class="st0" d="M3920,3785c0-131,1-137,25-160l24-25h431h431l24,25c24,23,25,29,25,160v135h-480h-480V3785z"/>
	<path class="st0" d="M2398,3581c-13-11-30-37-36-58c-16-53-73-117-129-144c-62-30-140-30-210,1c-36,15-61,20-80,15
		c-37-9-209-181-218-218c-5-19,0-44,15-80c31-70,31-148,1-210c-27-56-91-113-144-129c-69-21-77-41-77-198s8-177,77-198
		c53-16,117-73,144-129c30-62,30-140-1-210c-15-36-20-61-15-80c9-37,181-209,218-218c19-5,44,0,80,15c70,31,148,31,210,1
		c56-27,113-91,129-144c21-69,41-77,198-77s177,8,198,77c16,53,73,117,129,144c62,30,140,30,210-1c36-15,61-20,80-15
		c37,9,209,181,218,218c5,19,0,44-15,80c-31,70-31,148-1,210c27,56,91,113,144,129c69,21,77,41,77,198s-8,177-77,198
		c-53,16-117,73-144,129c-30,62-30,140,1,210c15,36,20,61,15,80c-9,37-181,209-218,218c-19,5-44,0-80-15c-70-31-148-31-210-1
		c-56,27-113,91-129,144c-21,69-41,77-198,77C2439,3600,2420,3598,2398,3581z M2695,3185c287-60,505-329,505-625
		c0-348-292-640-640-640c-168,0-328,68-451,190c-252,250-251,649,0,901C2265,3166,2479,3230,2695,3185z"/>
	<path class="st0" d="M2485,2871c-92-24-173-90-215-176c-34-69-35-198-2-265c34-71,75-114,144-151c58-31,70-34,148-33
		c72,0,93,4,136,26c75,40,107,70,145,140c31,58,34,70,34,148s-3,90-34,148c-57,104-144,160-260,167C2545,2877,2502,2876,2485,2871z"
		/>
	<path class="st0" d="M640,2960v-480h80h80v480v480h-80h-80V2960z"/>
	<path class="st0" d="M4320,3200v-80h80h80v80v80h-80h-80V3200z"/>
	<path class="st0" d="M4320,2880v-80h80h80v80v80h-80h-80V2880z"/>
	<path class="st0" d="M4320,2240v-400h80h80v400v400h-80h-80V2240z"/>
	<path class="st0" d="M640,2240v-80h80h80v80v80h-80h-80V2240z"/>
	<path class="st0" d="M640,1920v-80h80h80v80v80h-80h-80V1920z"/>
	<path class="st0" d="M4560,920V240h-120h-120v360v360h-200h-200V600V240h-160h-160v520v520h-160h-160V760V240h-80h-80v-80V80h960
		h960v80v80h-80h-80v680v680h-160h-160V920z"/>
	<path class="st0" d="M265,1495c-24-23-25-29-25-160v-135h480h480v135c0,131-1,137-25,160l-24,25H720H289L265,1495z"/>
	<path class="st0" d="M240,880V720h480h480v160v160H720H240V880z"/>
	<path class="st0" d="M1520,800v-80h480h480v80v80h-480h-480V800z"/>
	<path class="st0" d="M2640,800v-80h80h80v80v80h-80h-80V800z"/>
	<path class="st0" d="M2960,800v-80h80h80v80v80h-80h-80V800z"/>
	<path class="st0" d="M240,425c0-131,1-137,25-160l24-25h431h431l24,25c24,23,25,29,25,160v135H720H240V425z"/>
</g>
</svg>
