<?xml version="1.0" encoding="utf-8"?>
<!-- Generator: Adobe Illustrator 26.0.2, SVG Export Plug-In . SVG Version: 6.00 Build 0)  -->
<svg version="1.1" id="Layer_1" xmlns="http://www.w3.org/2000/svg" xmlns:xlink="http://www.w3.org/1999/xlink" x="0px" y="0px"
	 viewBox="0 0 512 512" style="enable-background:new 0 0 512 512;" xml:space="preserve">
<style type="text/css">
	.st0{fill:#2E9ADB;}
</style>
<g transform="translate(0.000000,512.000000) scale(0.100000,-0.100000)">
	<path class="st0" d="M3735,5102c-22-11-61-42-86-68c-155-164-227-392-245-780c-8-161,1-205,48-253c43-44,88-62,154-62
		c91,0,153,46,179,133l11,38l159-160l160-161l-680,3c-604,3-695,1-816-15c-399-52-676-173-894-392c-240-241-370-606-401-1126
		c-7-129,1-169,44-221c74-88,220-88,294,0c37,44,45,79,57,236c6,77,12,141,14,142c2,2,157-151,346-340l344-344l-69-8
		c-38-4-433-8-879-9c-712-1-821-3-899-18c-127-24-229-53-289-83c-126-63-254-178-277-248c-26-79,11-180,82-224c81-50,167-37,255,38
		c31,27,82,61,112,75l54,27l378-378c209-209,379-384,379-390c0-22-61-131-100-177c-65-80-76-168-28-245c44-71,145-108,223-82
		c73,24,177,147,234,275c73,164,118,400,123,650c2,116-13,160-72,207c-63,49-179,55-239,11c-36-27-71-81-71-109c0-13-3-24-8-24
		c-4,0-77,70-162,155l-155,156l670-3c498-2,697,0,775,10c424,52,710,172,930,392c238,238,366,609,402,1171l12,186l-27,54
		c-52,107-160,142-267,89c-81-41-96-82-104-285c-4-88-9-177-13-199l-5-39l-339,339l-339,339l32,9c18,4,357,7,753,7
		c883-2,1032,7,1250,80c165,55,326,173,361,264c55,146-81,297-232,256c-22-6-67-32-100-58c-33-27-83-59-112-72l-53-25l-381,381
		l-381,381l18,45c9,25,41,76,71,113c81,102,93,183,39,265C3925,5108,3815,5140,3735,5102z M2773,2772l509-509l-15-35
		c-59-142-196-282-353-361l-51-26l-511,512l-512,512l30,59c71,139,182,251,325,324c33,17,62,31,65,32C2263,3280,2494,3051,2773,2772
		z"/>
</g>
</svg>
