<?xml version="1.0" encoding="utf-8"?>
<!-- Generator: Adobe Illustrator 26.0.2, SVG Export Plug-In . SVG Version: 6.00 Build 0)  -->
<svg version="1.1" id="Layer_1" xmlns="http://www.w3.org/2000/svg" xmlns:xlink="http://www.w3.org/1999/xlink" x="0px" y="0px"
	 viewBox="0 0 512 512" style="enable-background:new 0 0 512 512;" xml:space="preserve">
<style type="text/css">
	.st0{fill:#92E0DC;}
</style>
<g transform="translate(0.000000,512.000000) scale(0.100000,-0.100000)">
	<path class="st0" d="M2330,5105c-222-49-408-237-455-460c-8-38-15-110-15-158c0-80-2-90-25-112c-13-14-33-25-44-25
		c-10,0-63,38-117,85c-147,129-266,179-429,179c-207,0-371-93-571-322c-118-134-168-259-168-417c0-163,50-282,179-429
		c47-54,85-107,85-117c0-11-11-31-25-44c-22-23-32-25-112-25c-191-1-330-55-454-179C42,2944,0,2822,0,2560s42-384,179-521
		c124-124,263-178,454-179c80,0,90-2,112-25c14-13,25-33,25-44c0-10-38-63-85-117c-129-147-179-266-179-429c0-158,50-283,168-417
		c153-175,296-276,436-309c91-21,223-15,315,15c98,31,155,66,263,162c45,41,92,74,103,74s31-11,44-25c23-22,25-32,25-112
		c1-191,55-330,179-454c55-55,96-86,151-113c121-59,186-68,480-64l257,3l40,27c22,15,51,44,64,65l24,38v365v365l-24,38
		c-13,21-42,50-64,65c-34,23-52,27-107,27s-73-4-107-27c-22-15-51-44-64-65c-23-37-24-46-27-271l-3-234l-133,4c-126,3-135,4-172,30
		c-74,52-87,83-94,231c-8,151-27,219-87,306c-97,140-294,222-463,192c-100-18-181-62-269-146c-92-87-129-108-196-108
		c-70,0-106,21-208,122c-103,100-130,145-130,216c0,67,21,104,108,196c161,169,196,362,101,553c-44,89-80,133-148,179
		c-86,60-155,79-305,87c-148,7-179,20-231,94c-27,39-27,41-27,206s0,167,27,206c52,74,83,87,231,94c150,8,219,27,305,87
		c68,46,104,90,148,179c95,191,60,384-101,553c-87,92-108,129-108,196c0,70,21,106,122,208c100,103,145,130,216,130
		c67,0,104-21,196-108c169-161,362-196,553-101c89,44,133,80,179,148c59,86,79,155,87,303c6,118,9,134,33,170c15,22,43,51,64,65
		c34,23,47,25,169,28l133,4l3-234c3-225,4-234,27-271c13-21,42-50,64-65c34-23,52-27,107-27s73,4,107,27c22,15,51,44,64,65l24,38
		v365v365l-24,38c-13,21-42,50-64,65l-40,27l-266,2C2461,5119,2379,5115,2330,5105z"/>
	<path class="st0" d="M4687,4550c-147-37-252-165-264-322l-5-73l-217-217l-216-218h-750c-610,0-768-3-848-15
		c-428-64-788-368-927-783c-202-602,130-1258,740-1462c170-58,211-60,1035-60h750l216-209l216-210l6-75c10-137,85-248,205-304
		c48-22,71-27,142-27c104,0,174,29,245,100s100,141,100,245s-29,174-100,245c-68,68-140,98-244,101l-84,3l-241,239
		c-133,131-257,250-276,263l-35,24l-855,6c-956,6-896,1-1055,80c-196,97-344,278-401,489c-25,89-25,291,0,380
		c57,211,205,392,401,489c159,79,99,74,1055,80l855,6l35,24c19,13,146,134,281,268l246,245l79,2c98,3,172,34,239,101
		c71,71,100,141,100,245c0,71-5,94-27,142c-33,72-103,142-173,174C4854,4554,4748,4565,4687,4550z"/>
	<path class="st0" d="M2557,2900c-98-25-191-103-235-198c-22-48-27-71-27-142c0-104,29-174,100-245c70-71,141-99,245-100
		c74,0,93,4,145,29c32,16,78,49,101,73l42,43h777h777l42-43c23-24,69-57,101-73c52-25,71-29,145-29c104,1,175,29,245,100
		c71,71,100,141,100,245s-29,174-100,245c-70,71-141,99-245,100c-74,0-93-4-145-29c-32-16-78-49-101-73l-42-43h-777h-777l-42,43
		C2804,2888,2668,2928,2557,2900z"/>
</g>
</svg>
