<svg xmlns="http://www.w3.org/2000/svg" xmlns:xlink="http://www.w3.org/1999/xlink" viewBox="0 0 512 277.14"><defs><style>.cls-1{isolation:isolate;}.cls-2,.cls-3,.cls-51{fill:none;}.cls-3{stroke:#14aed5;stroke-width:0.86px;}.cls-3,.cls-51{stroke-miterlimit:10;}.cls-4{mix-blend-mode:multiply;}.cls-5{fill:#fff;opacity:0;}.cls-54,.cls-6{fill:#f9f9f9;}.cls-6{opacity:0.02;}.cls-7{fill:#f3f3f3;opacity:0.05;}.cls-58,.cls-8{fill:#ececec;}.cls-8{opacity:0.07;}.cls-60,.cls-9{fill:#e6e6e6;}.cls-9{opacity:0.1;}.cls-10,.cls-62{fill:#e0e0e0;}.cls-10{opacity:0.12;}.cls-11{fill:#dadada;opacity:0.15;}.cls-12,.cls-66{fill:#d3d3d3;}.cls-12{opacity:0.17;}.cls-13,.cls-68{fill:#cdcdcd;}.cls-13{opacity:0.2;}.cls-14{fill:#c7c7c7;opacity:0.22;}.cls-15{fill:#c1c1c1;opacity:0.24;}.cls-16{fill:#bbb;opacity:0.27;}.cls-17{fill:#b4b4b4;opacity:0.29;}.cls-18{fill:#aeaeae;opacity:0.32;}.cls-19{fill:#a8a8a8;opacity:0.34;}.cls-20{fill:#a2a2a2;opacity:0.37;}.cls-21{fill:#9b9b9b;opacity:0.39;}.cls-22{fill:#959595;opacity:0.41;}.cls-23{fill:#8f8f8f;opacity:0.44;}.cls-24{fill:#898989;opacity:0.46;}.cls-25{fill:#838383;opacity:0.49;}.cls-26{fill:#7c7c7c;opacity:0.51;}.cls-27{fill:#767676;opacity:0.54;}.cls-28{fill:#707070;opacity:0.56;}.cls-29{fill:#6a6a6a;opacity:0.59;}.cls-30{fill:#646464;opacity:0.61;}.cls-31{fill:#5d5d5d;opacity:0.63;}.cls-32{fill:#575757;opacity:0.66;}.cls-33{fill:#515151;opacity:0.68;}.cls-34{fill:#4b4b4b;opacity:0.71;}.cls-35{fill:#444;opacity:0.73;}.cls-36{fill:#3e3e3e;opacity:0.76;}.cls-37{fill:#383838;opacity:0.78;}.cls-117,.cls-38{fill:#323232;}.cls-38{opacity:0.8;}.cls-119,.cls-39{fill:#2c2c2c;}.cls-39{opacity:0.83;}.cls-40{fill:#252525;opacity:0.85;}.cls-123,.cls-41{fill:#1f1f1f;}.cls-41{opacity:0.88;}.cls-125,.cls-42{fill:#191919;}.cls-42{opacity:0.9;}.cls-127,.cls-43{fill:#131313;}.cls-43{opacity:0.93;}.cls-44{fill:#0c0c0c;opacity:0.95;}.cls-131,.cls-45{fill:#060606;}.cls-45{opacity:0.98;}.cls-46{fill:url(#linear-gradient);}.cls-47{fill:#f1f2f2;}.cls-48{fill:url(#linear-gradient-2);}.cls-49{fill:url(#linear-gradient-3);}.cls-50{fill:url(#linear-gradient-4);}.cls-51{stroke:#fff;stroke-width:0.92px;}.cls-52{fill:#14aed5;}.cls-53{fill:#fcfcfc;opacity:0.01;}.cls-54{opacity:0.02;}.cls-55{fill:#f6f6f6;opacity:0.04;}.cls-56{fill:#f2f2f2;opacity:0.05;}.cls-57{fill:#efefef;opacity:0.06;}.cls-58{opacity:0.07;}.cls-59{fill:#e9e9e9;opacity:0.09;}.cls-60{opacity:0.1;}.cls-61{fill:#e3e3e3;opacity:0.11;}.cls-62{opacity:0.12;}.cls-63{fill:#dcdcdc;opacity:0.14;}.cls-64{fill:#d9d9d9;opacity:0.15;}.cls-65{fill:#d6d6d6;opacity:0.16;}.cls-66{opacity:0.17;}.cls-67{fill:#d0d0d0;opacity:0.19;}.cls-68{opacity:0.2;}.cls-69{fill:#c9c9c9;opacity:0.21;}.cls-70{fill:#c6c6c6;opacity:0.22;}.cls-71{fill:#c3c3c3;opacity:0.23;}.cls-72{fill:silver;opacity:0.25;}.cls-73{fill:#bdbdbd;opacity:0.26;}.cls-74{fill:#bababa;opacity:0.27;}.cls-75{fill:#b7b7b7;opacity:0.28;}.cls-76{fill:#b3b3b3;opacity:0.3;}.cls-77{fill:#b0b0b0;opacity:0.31;}.cls-78{fill:#adadad;opacity:0.32;}.cls-79{fill:#aaa;opacity:0.33;}.cls-80{fill:#a7a7a7;opacity:0.35;}.cls-81{fill:#a4a4a4;opacity:0.36;}.cls-82{fill:#a1a1a1;opacity:0.37;}.cls-83{fill:#9d9d9d;opacity:0.38;}.cls-84{fill:#9a9a9a;opacity:0.4;}.cls-85{fill:#979797;opacity:0.41;}.cls-86{fill:#949494;opacity:0.42;}.cls-87{fill:#919191;opacity:0.43;}.cls-88{fill:#8e8e8e;opacity:0.44;}.cls-89{fill:#8b8b8b;opacity:0.46;}.cls-90{fill:#878787;opacity:0.47;}.cls-91{fill:#848484;opacity:0.48;}.cls-92{fill:#818181;opacity:0.49;}.cls-93{fill:#7e7e7e;opacity:0.51;}.cls-94{fill:#7b7b7b;opacity:0.52;}.cls-95{fill:#787878;opacity:0.53;}.cls-96{fill:#747474;opacity:0.54;}.cls-97{fill:#717171;opacity:0.56;}.cls-98{fill:#6e6e6e;opacity:0.57;}.cls-99{fill:#6b6b6b;opacity:0.58;}.cls-100{fill:#686868;opacity:0.59;}.cls-101{fill:#656565;opacity:0.6;}.cls-102{fill:#626262;opacity:0.62;}.cls-103{fill:#5e5e5e;opacity:0.63;}.cls-104{fill:#5b5b5b;opacity:0.64;}.cls-105{fill:#585858;opacity:0.65;}.cls-106{fill:#555;opacity:0.67;}.cls-107{fill:#525252;opacity:0.68;}.cls-108{fill:#4f4f4f;opacity:0.69;}.cls-109{fill:#4c4c4c;opacity:0.7;}.cls-110{fill:#484848;opacity:0.72;}.cls-111{fill:#454545;opacity:0.73;}.cls-112{fill:#424242;opacity:0.74;}.cls-113{fill:#3f3f3f;opacity:0.75;}.cls-114{fill:#3c3c3c;opacity:0.77;}.cls-115{fill:#393939;opacity:0.78;}.cls-116{fill:#363636;opacity:0.79;}.cls-117{opacity:0.8;}.cls-118{fill:#2f2f2f;opacity:0.81;}.cls-119{opacity:0.83;}.cls-120{fill:#292929;opacity:0.84;}.cls-121{fill:#262626;opacity:0.85;}.cls-122{fill:#232323;opacity:0.86;}.cls-123{opacity:0.88;}.cls-124{fill:#1c1c1c;opacity:0.89;}.cls-125{opacity:0.9;}.cls-126{fill:#161616;opacity:0.91;}.cls-127{opacity:0.93;}.cls-128{fill:#101010;opacity:0.94;}.cls-129{fill:#0d0d0d;opacity:0.95;}.cls-130{fill:#090909;opacity:0.96;}.cls-131{opacity:0.98;}.cls-132{fill:#030303;opacity:0.99;}.cls-133{fill:url(#linear-gradient-5);}.cls-134{fill:#84c441;}.cls-135{fill:url(#linear-gradient-6);}.cls-136{fill:url(#linear-gradient-7);}.cls-137{fill:#7dcfdd;}.cls-138{fill:#f9a71b;}.cls-139{fill:#fcb912;}.cls-140{fill:#ee5a27;}.cls-141{fill:#51a1d8;}.cls-142{fill:#2c78b3;}.cls-143{fill:#af67a9;}.cls-144{fill:#9367ac;}.cls-145{fill:#2fc4f2;}.cls-146{fill:#91c855;}.cls-147{fill:#39b76f;}.cls-148{fill:#d33d4f;}.cls-149{fill:#fcfdfd;}.cls-150{fill:#2ac4f3;}.cls-151{fill:#fafdfe;}.cls-152{fill:#ce477f;}.cls-153{fill:#fcfbfd;}.cls-154{fill:#ef5a6a;}.cls-155{fill:#fefdfd;}.cls-156{fill:#fea700;}.cls-157{fill:#fe9900;}.cls-158{fill:#fefdfa;}.cls-159{fill:#fefdfc;}.cls-160{fill:#45a4eb;}.cls-161{fill:#fdfdfe;}.cls-162{fill:#4ca7ec;}.cls-163{fill:#46a4eb;}</style><linearGradient id="linear-gradient" x1="425.43" y1="100.92" x2="380.3" y2="164.37" gradientUnits="userSpaceOnUse"><stop offset="0" stop-color="#fff"/><stop offset="1" stop-color="#e6e7e8"/></linearGradient><linearGradient id="linear-gradient-2" x1="96.38" y1="29.12" x2="49.38" y2="92.32" xlink:href="#linear-gradient"/><linearGradient id="linear-gradient-3" x1="137.87" y1="100.14" x2="89.95" y2="161.49" xlink:href="#linear-gradient"/><linearGradient id="linear-gradient-4" x1="97.66" y1="171.56" x2="47.43" y2="231.29" xlink:href="#linear-gradient"/><linearGradient id="linear-gradient-5" x1="307.41" y1="83.12" x2="209.82" y2="180.71" xlink:href="#linear-gradient"/><linearGradient id="linear-gradient-6" x1="466.25" y1="30.39" x2="421.12" y2="93.84" xlink:href="#linear-gradient"/><linearGradient id="linear-gradient-7" x1="464.99" y1="169.32" x2="419.87" y2="232.76" xlink:href="#linear-gradient"/></defs><title>Freshworks products 6</title><g class="cls-1"><g id="Layer_2" data-name="Layer 2"><g id="Objects"><rect class="cls-2" width="512" height="272.35"/><polygon class="cls-3" points="399.32 88.67 399.32 38.35 442.9 13.19 486.48 38.35 486.48 88.67 442.9 113.83 399.32 88.67"/><polygon class="cls-3" points="359.51 157.79 359.51 107.47 403.09 82.32 446.67 107.47 446.67 157.79 403.09 182.96 359.51 157.79"/><polygon class="cls-3" points="399.32 226.73 399.32 176.41 442.9 151.25 486.48 176.41 486.48 226.73 442.9 251.89 399.32 226.73"/><polygon class="cls-3" points="116.52 88.67 116.52 38.35 72.94 13.19 29.36 38.35 29.36 88.67 72.94 113.83 116.52 88.67"/><polygon class="cls-3" points="156.33 157.79 156.33 107.47 112.75 82.32 69.17 107.47 69.17 157.79 112.75 182.96 156.33 157.79"/><polygon class="cls-3" points="116.52 226.73 116.52 176.41 72.94 151.25 29.36 176.41 29.36 226.73 72.94 251.89 116.52 226.73"/><g class="cls-4"><path class="cls-5" d="M42.12,154h0a54,54,0,0,1,27-46.71h0a53.94,53.94,0,0,1,53.94,0h0A54,54,0,0,1,150,154h0a53.94,53.94,0,0,1-27,46.71h0a53.94,53.94,0,0,1-53.94,0h0A54,54,0,0,1,42.12,154Z"/><path class="cls-6" d="M43.29,153.36h0A53.2,53.2,0,0,1,69.9,107.29h0a53.19,53.19,0,0,1,53.2,0h0a53.23,53.23,0,0,1,26.59,46.08h0a53.2,53.2,0,0,1-26.61,46.06h0a53.19,53.19,0,0,1-53.2,0h0A53.17,53.17,0,0,1,43.29,153.36Z"/><path class="cls-7" d="M44.45,152.7h0a52.48,52.48,0,0,1,26.24-45.43h0a52.44,52.44,0,0,1,52.46,0h0a52.43,52.43,0,0,1,26.22,45.44h0a52.44,52.44,0,0,1-26.23,45.42h0a52.44,52.44,0,0,1-52.46,0h0A52.46,52.46,0,0,1,44.45,152.7Z"/><path class="cls-8" d="M45.62,152h0a51.72,51.72,0,0,1,25.87-44.78h0a51.69,51.69,0,0,1,51.72,0h0a51.72,51.72,0,0,1,25.85,44.79h0a51.71,51.71,0,0,1-25.87,44.79h0a51.74,51.74,0,0,1-51.72,0h0A51.73,51.73,0,0,1,45.62,152Z"/><path class="cls-9" d="M46.79,151.37h0a51,51,0,0,1,25.5-44.15h0a51,51,0,0,1,51,0h0a51,51,0,0,1,25.48,44.16h0a51,51,0,0,1-25.5,44.15h0a51,51,0,0,1-51,0h0A51,51,0,0,1,46.79,151.37Z"/><path class="cls-10" d="M48,150.71h0A50.27,50.27,0,0,1,73.08,107.2h0a50.26,50.26,0,0,1,50.24,0h0a50.25,50.25,0,0,1,25.12,43.52h0a50.26,50.26,0,0,1-25.13,43.5h0a50.24,50.24,0,0,1-50.24,0h0A50.22,50.22,0,0,1,48,150.71Z"/><path class="cls-11" d="M49.12,150.05h0a49.49,49.49,0,0,1,24.76-42.87h0a49.51,49.51,0,0,1,49.5,0h0a49.5,49.5,0,0,1,24.74,42.88h0a49.49,49.49,0,0,1-24.76,42.86h0a49.49,49.49,0,0,1-49.5,0h0A49.52,49.52,0,0,1,49.12,150.05Z"/><path class="cls-12" d="M50.29,149.38h0a48.75,48.75,0,0,1,24.39-42.22h0a48.76,48.76,0,0,1,48.76,0h0a48.77,48.77,0,0,1,24.37,42.23h0a48.77,48.77,0,0,1-24.39,42.23h0a48.78,48.78,0,0,1-48.76,0h0A48.75,48.75,0,0,1,50.29,149.38Z"/><path class="cls-13" d="M51.45,148.72h0a48,48,0,0,1,24-41.58h0a48,48,0,0,1,48,0h0a48,48,0,0,1,24,41.59h0a48,48,0,0,1-24,41.58h0a48,48,0,0,1-48,0h0A48,48,0,0,1,51.45,148.72Z"/><path class="cls-14" d="M52.62,148.06h0a47.27,47.27,0,0,1,23.65-40.94h0a47.28,47.28,0,0,1,47.28,0h0a47.26,47.26,0,0,1,23.63,41h0A47.25,47.25,0,0,1,123.53,189h0a47.28,47.28,0,0,1-47.28,0h0A47.28,47.28,0,0,1,52.62,148.06Z"/><path class="cls-15" d="M53.78,147.4h0a46.57,46.57,0,0,1,23.28-40.31h0a46.58,46.58,0,0,1,46.55,0h0a46.55,46.55,0,0,1,23.26,40.31h0a46.55,46.55,0,0,1-23.28,40.31h0a46.53,46.53,0,0,1-46.54,0h0A46.56,46.56,0,0,1,53.78,147.4Z"/><path class="cls-16" d="M55,146.73h0a45.81,45.81,0,0,1,22.91-39.66h0a45.81,45.81,0,0,1,45.8,0h0a45.82,45.82,0,0,1,22.9,39.67h0a45.78,45.78,0,0,1-22.91,39.66h0a45.83,45.83,0,0,1-45.81,0h0A45.82,45.82,0,0,1,55,146.73Z"/><path class="cls-17" d="M56.12,146.07h0a45,45,0,0,1,22.54-39h0a45.06,45.06,0,0,1,45.06,0h0a45.07,45.07,0,0,1,22.53,39h0a45.09,45.09,0,0,1-22.54,39h0a45.05,45.05,0,0,1-45.07,0h0A45,45,0,0,1,56.12,146.07Z"/><path class="cls-18" d="M57.28,145.41h0A44.34,44.34,0,0,1,79.45,107h0a44.32,44.32,0,0,1,44.33,0h0a44.3,44.3,0,0,1,22.15,38.39h0a44.32,44.32,0,0,1-22.17,38.38h0a44.33,44.33,0,0,1-44.32,0h0A44.33,44.33,0,0,1,57.28,145.41Z"/><path class="cls-19" d="M58.45,144.75h0A43.57,43.57,0,0,1,80.25,107h0a43.58,43.58,0,0,1,43.58,0h0a43.59,43.59,0,0,1,21.79,37.75h0a43.58,43.58,0,0,1-21.8,37.75h0a43.6,43.6,0,0,1-43.59,0h0A43.6,43.6,0,0,1,58.45,144.75Z"/><path class="cls-20" d="M59.62,144.08h0A42.84,42.84,0,0,1,81.05,107h0a42.85,42.85,0,0,1,42.84,0h0a42.85,42.85,0,0,1,21.42,37.11h0a42.87,42.87,0,0,1-21.43,37.1h0a42.85,42.85,0,0,1-42.85,0h0A42.83,42.83,0,0,1,59.62,144.08Z"/><path class="cls-21" d="M60.78,143.42h0A42.12,42.12,0,0,1,81.84,107h0A42.12,42.12,0,0,1,124,107h0a42.1,42.1,0,0,1,21,36.47h0a42.1,42.1,0,0,1-21.06,36.46h0a42.08,42.08,0,0,1-42.1,0h0A42.1,42.1,0,0,1,60.78,143.42Z"/><path class="cls-22" d="M62,142.76h0a41.36,41.36,0,0,1,20.69-35.82h0A41.35,41.35,0,0,1,124,107h0a41.37,41.37,0,0,1,20.68,35.83h0A41.37,41.37,0,0,1,124,178.6h0a41.39,41.39,0,0,1-41.37,0h0A41.38,41.38,0,0,1,62,142.76Z"/><path class="cls-23" d="M63.11,142.1h0a40.63,40.63,0,0,1,20.32-35.18h0a40.62,40.62,0,0,1,40.63,0h0a40.63,40.63,0,0,1,20.31,35.18h0a40.61,40.61,0,0,1-20.32,35.18h0a40.62,40.62,0,0,1-40.63,0h0A40.64,40.64,0,0,1,63.11,142.1Z"/><path class="cls-24" d="M64.28,141.44h0a39.88,39.88,0,0,1,20-34.54h0a39.89,39.89,0,0,1,39.89,0h0a39.9,39.9,0,0,1,19.94,34.55h0a39.89,39.89,0,0,1-20,34.54h0a39.87,39.87,0,0,1-39.88,0h0A39.89,39.89,0,0,1,64.28,141.44Z"/><path class="cls-25" d="M65.45,140.77h0A39.14,39.14,0,0,1,85,106.87h0a39.17,39.17,0,0,1,39.15,0h0a39.13,39.13,0,0,1,19.56,33.91h0a39.14,39.14,0,0,1-19.58,33.9h0a39.14,39.14,0,0,1-39.15,0h0A39.13,39.13,0,0,1,65.45,140.77Z"/><path class="cls-26" d="M66.61,140.11h0a38.44,38.44,0,0,1,19.21-33.26h0a38.42,38.42,0,0,1,38.41,0h0a38.41,38.41,0,0,1,19.2,33.27h0a38.39,38.39,0,0,1-19.21,33.25h0a38.42,38.42,0,0,1-38.41,0h0A38.44,38.44,0,0,1,66.61,140.11Z"/><path class="cls-27" d="M67.78,139.45h0a37.66,37.66,0,0,1,18.84-32.62h0a37.67,37.67,0,0,1,37.67,0h0a37.68,37.68,0,0,1,18.83,32.62h0a37.7,37.7,0,0,1-18.84,32.62h0a37.64,37.64,0,0,1-37.67,0h0A37.65,37.65,0,0,1,67.78,139.45Z"/><path class="cls-28" d="M69,138.79h0a36.91,36.91,0,0,1,18.47-32h0a36.92,36.92,0,0,1,36.93,0h0a36.9,36.9,0,0,1,18.45,32h0a36.93,36.93,0,0,1-18.47,32h0a36.94,36.94,0,0,1-36.93,0h0A36.91,36.91,0,0,1,69,138.79Z"/><path class="cls-29" d="M70.11,138.12h0a36.16,36.16,0,0,1,18.1-31.33h0a36.19,36.19,0,0,1,36.19,0h0a36.2,36.2,0,0,1,18.09,31.35h0a36.19,36.19,0,0,1-18.1,31.34h0a36.21,36.21,0,0,1-36.19,0h0A36.2,36.2,0,0,1,70.11,138.12Z"/><path class="cls-30" d="M71.28,137.46h0A35.45,35.45,0,0,1,89,106.76h0a35.46,35.46,0,0,1,35.45,0h0a35.46,35.46,0,0,1,17.72,30.71h0a35.44,35.44,0,0,1-17.73,30.69h0a35.46,35.46,0,0,1-35.45,0h0A35.46,35.46,0,0,1,71.28,137.46Z"/><path class="cls-31" d="M72.44,136.8h0a34.72,34.72,0,0,1,17.37-30.06h0a34.71,34.71,0,0,1,34.71,0h0a34.73,34.73,0,0,1,17.35,30.06h0a34.74,34.74,0,0,1-17.37,30.06h0a34.71,34.71,0,0,1-34.71,0h0A34.73,34.73,0,0,1,72.44,136.8Z"/><path class="cls-32" d="M73.61,136.14h0a34,34,0,0,1,17-29.42h0a34,34,0,0,1,34,0h0a34,34,0,0,1,17,29.42h0a34,34,0,0,1-17,29.42h0a34,34,0,0,1-34,0h0A34,34,0,0,1,73.61,136.14Z"/><path class="cls-33" d="M74.78,135.47h0A33.22,33.22,0,0,1,91.4,106.7h0a33.23,33.23,0,0,1,33.23,0h0a33.24,33.24,0,0,1,16.61,28.79h0a33.22,33.22,0,0,1-16.62,28.77h0a33.23,33.23,0,0,1-33.23,0h0A33.22,33.22,0,0,1,74.78,135.47Z"/><path class="cls-34" d="M75.94,134.81h0a32.5,32.5,0,0,1,16.25-28.13h0a32.5,32.5,0,0,1,32.5,0h0a32.51,32.51,0,0,1,16.24,28.14h0A32.52,32.52,0,0,1,124.68,163h0a32.5,32.5,0,0,1-32.5,0h0A32.49,32.49,0,0,1,75.94,134.81Z"/><path class="cls-35" d="M77.11,134.15h0A31.77,31.77,0,0,1,93,106.65h0a31.76,31.76,0,0,1,31.75,0h0a31.72,31.72,0,0,1,15.87,27.5h0a31.74,31.74,0,0,1-15.88,27.5h0a31.76,31.76,0,0,1-31.75,0h0A31.76,31.76,0,0,1,77.11,134.15Z"/><path class="cls-36" d="M78.28,133.49h0a31,31,0,0,1,15.51-26.86h0a31,31,0,0,1,31,0h0a31,31,0,0,1,15.5,26.86h0a31,31,0,0,1-15.51,26.85h0a31,31,0,0,1-31,0h0A31,31,0,0,1,78.28,133.49Z"/><path class="cls-37" d="M79.44,132.82h0a30.29,30.29,0,0,1,15.14-26.21h0a30.28,30.28,0,0,1,30.28,0h0A30.28,30.28,0,0,1,140,132.84h0a30.29,30.29,0,0,1-15.14,26.21h0a30.28,30.28,0,0,1-30.28,0h0A30.27,30.27,0,0,1,79.44,132.82Z"/><path class="cls-38" d="M80.61,132.16h0a29.52,29.52,0,0,1,14.77-25.57h0a29.53,29.53,0,0,1,29.53,0h0a29.51,29.51,0,0,1,14.76,25.58h0a29.53,29.53,0,0,1-14.77,25.58h0a29.53,29.53,0,0,1-29.53,0h0A29.53,29.53,0,0,1,80.61,132.16Z"/><path class="cls-39" d="M81.77,131.5h0a28.81,28.81,0,0,1,14.41-24.93h0a28.8,28.8,0,0,1,28.79,0h0a28.8,28.8,0,0,1,14.39,24.94h0A28.78,28.78,0,0,1,125,156.44h0a28.78,28.78,0,0,1-28.79,0h0A28.8,28.8,0,0,1,81.77,131.5Z"/><path class="cls-40" d="M82.94,130.84h0a28.07,28.07,0,0,1,14-24.3h0a28.1,28.1,0,0,1,28.06,0h0a28.06,28.06,0,0,1,14,24.3h0a28,28,0,0,1-14,24.29h0a28.07,28.07,0,0,1-28.06,0h0A28.07,28.07,0,0,1,82.94,130.84Z"/><path class="cls-41" d="M84.11,130.18h0a27.33,27.33,0,0,1,13.66-23.66h0a27.33,27.33,0,0,1,27.31,0h0a27.33,27.33,0,0,1,13.66,23.66h0a27.33,27.33,0,0,1-13.67,23.65h0a27.3,27.3,0,0,1-27.31,0h0A27.29,27.29,0,0,1,84.11,130.18Z"/><path class="cls-42" d="M85.27,129.51h0a26.57,26.57,0,0,1,13.3-23h0a26.58,26.58,0,0,1,26.57,0h0a26.55,26.55,0,0,1,13.28,23h0a26.59,26.59,0,0,1-13.29,23h0a26.58,26.58,0,0,1-26.57,0h0A26.57,26.57,0,0,1,85.27,129.51Z"/><path class="cls-43" d="M86.44,128.85h0a25.83,25.83,0,0,1,12.92-22.37h0a25.87,25.87,0,0,1,25.84,0h0a25.85,25.85,0,0,1,12.91,22.38h0a25.83,25.83,0,0,1-12.92,22.37h0a25.84,25.84,0,0,1-25.84,0h0A25.85,25.85,0,0,1,86.44,128.85Z"/><path class="cls-44" d="M87.61,128.19h0a25.07,25.07,0,0,1,12.55-21.73h0a25.1,25.1,0,0,1,25.09,0h0A25.1,25.1,0,0,1,137.8,128.2h0a25.11,25.11,0,0,1-12.55,21.73h0a25.09,25.09,0,0,1-25.1,0h0A25.07,25.07,0,0,1,87.61,128.19Z"/><path class="cls-45" d="M88.77,127.53h0A24.34,24.34,0,0,1,101,106.44h0a24.37,24.37,0,0,1,24.36,0h0a24.32,24.32,0,0,1,12.17,21.1h0a24.35,24.35,0,0,1-12.18,21.09h0a24.35,24.35,0,0,1-24.35,0h0A24.35,24.35,0,0,1,88.77,127.53Z"/><path d="M89.94,126.86h0a23.62,23.62,0,0,1,11.81-20.45h0a23.64,23.64,0,0,1,23.62,0h0a23.63,23.63,0,0,1,11.8,20.45h0a23.59,23.59,0,0,1-11.81,20.45h0a23.62,23.62,0,0,1-23.62,0h0A23.63,23.63,0,0,1,89.94,126.86Z"/></g><g class="cls-4"><path class="cls-5" d="M1.26,223.19h0a53.92,53.92,0,0,1,27-46.7h0a53.92,53.92,0,0,1,53.94,0h0a54,54,0,0,1,27,46.71h0a54,54,0,0,1-27,46.71h0a53.94,53.94,0,0,1-53.94,0h0A54,54,0,0,1,1.26,223.19Z"/><path class="cls-6" d="M2.43,222.53h0A53.19,53.19,0,0,1,29,176.46h0a53.2,53.2,0,0,1,53.19,0h0a53.23,53.23,0,0,1,26.6,46.08h0a53.22,53.22,0,0,1-26.61,46.07h0a53.22,53.22,0,0,1-53.2,0h0A53.19,53.19,0,0,1,2.43,222.53Z"/><path class="cls-7" d="M3.59,221.87h0a52.49,52.49,0,0,1,26.24-45.43h0a52.47,52.47,0,0,1,52.46,0h0a52.46,52.46,0,0,1,26.22,45.44h0a52.45,52.45,0,0,1-26.24,45.43h0a52.49,52.49,0,0,1-52.46,0h0A52.48,52.48,0,0,1,3.59,221.87Z"/><path class="cls-8" d="M4.76,221.21h0a51.71,51.71,0,0,1,25.87-44.79h0a51.71,51.71,0,0,1,51.72,0h0a51.73,51.73,0,0,1,25.85,44.8h0A51.69,51.69,0,0,1,82.33,266h0a51.71,51.71,0,0,1-51.72,0h0A51.72,51.72,0,0,1,4.76,221.21Z"/><path class="cls-9" d="M5.93,220.54h0A51,51,0,0,1,31.42,176.4h0a51,51,0,0,1,51,0h0a51,51,0,0,1,25.48,44.15h0a51,51,0,0,1-25.5,44.15h0a51,51,0,0,1-51,0h0A51,51,0,0,1,5.93,220.54Z"/><path class="cls-10" d="M7.09,219.88h0a50.24,50.24,0,0,1,25.13-43.5h0a50.24,50.24,0,0,1,50.24,0h0a50.21,50.21,0,0,1,25.11,43.51h0a50.26,50.26,0,0,1-25.12,43.51h0a50.26,50.26,0,0,1-50.24,0h0A50.26,50.26,0,0,1,7.09,219.88Z"/><path class="cls-11" d="M8.26,219.22h0A49.49,49.49,0,0,1,33,176.35h0a49.54,49.54,0,0,1,49.5,0h0a49.52,49.52,0,0,1,24.74,42.88h0A49.49,49.49,0,0,1,82.5,262.1h0a49.49,49.49,0,0,1-49.5,0h0A49.49,49.49,0,0,1,8.26,219.22Z"/><path class="cls-12" d="M9.42,218.56h0a48.81,48.81,0,0,1,24.39-42.23h0a48.8,48.8,0,0,1,48.77,0h0A48.8,48.8,0,0,1,107,218.58h0A48.77,48.77,0,0,1,82.56,260.8h0a48.76,48.76,0,0,1-48.76,0h0A48.76,48.76,0,0,1,9.42,218.56Z"/><path class="cls-13" d="M10.59,217.89h0a48,48,0,0,1,24-41.58h0a48,48,0,0,1,48,0h0a48,48,0,0,1,24,41.59h0a48,48,0,0,1-24,41.59h0a48.05,48.05,0,0,1-48,0h0A48,48,0,0,1,10.59,217.89Z"/><path class="cls-14" d="M11.76,217.23h0a47.27,47.27,0,0,1,23.65-40.94h0a47.28,47.28,0,0,1,47.28,0h0a47.26,47.26,0,0,1,23.63,40.95h0a47.27,47.27,0,0,1-23.65,40.94h0a47.28,47.28,0,0,1-47.28,0h0A47.26,47.26,0,0,1,11.76,217.23Z"/><path class="cls-15" d="M12.92,216.57h0a46.55,46.55,0,0,1,23.28-40.3h0a46.55,46.55,0,0,1,46.55,0h0A46.55,46.55,0,0,1,106,216.59h0a46.53,46.53,0,0,1-23.28,40.3h0a46.53,46.53,0,0,1-46.54,0h0A46.54,46.54,0,0,1,12.92,216.57Z"/><path class="cls-16" d="M14.09,215.91h0A45.78,45.78,0,0,1,37,176.25h0a45.81,45.81,0,0,1,45.8,0h0a45.83,45.83,0,0,1,22.9,39.68h0a45.83,45.83,0,0,1-22.91,39.66h0a45.83,45.83,0,0,1-45.81,0h0A45.82,45.82,0,0,1,14.09,215.91Z"/><path class="cls-17" d="M15.26,215.25h0a45.06,45.06,0,0,1,22.54-39h0a45.08,45.08,0,0,1,45.06,0h0a45,45,0,0,1,22.52,39h0a45.06,45.06,0,0,1-22.54,39h0a45.08,45.08,0,0,1-45.06,0h0A45.06,45.06,0,0,1,15.26,215.25Z"/><path class="cls-18" d="M16.42,214.58h0A44.36,44.36,0,0,1,38.59,176.2h0a44.35,44.35,0,0,1,44.33,0h0a44.33,44.33,0,0,1,22.15,38.39h0A44.29,44.29,0,0,1,82.9,253h0a44.31,44.31,0,0,1-44.32,0h0A44.31,44.31,0,0,1,16.42,214.58Z"/><path class="cls-19" d="M17.59,213.92h0a43.57,43.57,0,0,1,21.8-37.74h0a43.58,43.58,0,0,1,43.58,0h0a43.59,43.59,0,0,1,21.79,37.75h0A43.57,43.57,0,0,1,83,251.68h0a43.6,43.6,0,0,1-43.59,0h0A43.6,43.6,0,0,1,17.59,213.92Z"/><path class="cls-20" d="M18.75,213.26h0a42.87,42.87,0,0,1,21.43-37.1h0a42.85,42.85,0,0,1,42.85,0h0a42.86,42.86,0,0,1,21.42,37.11h0A42.88,42.88,0,0,1,83,250.38h0a42.87,42.87,0,0,1-42.85,0h0A42.85,42.85,0,0,1,18.75,213.26Z"/><path class="cls-21" d="M19.92,212.6h0A42.08,42.08,0,0,1,41,176.14h0a42.12,42.12,0,0,1,42.11,0h0a42.11,42.11,0,0,1,21,36.47h0a42.09,42.09,0,0,1-21.06,36.46h0a42.1,42.1,0,0,1-42.1,0h0A42.12,42.12,0,0,1,19.92,212.6Z"/><path class="cls-22" d="M21.09,211.93h0a41.37,41.37,0,0,1,20.69-35.82h0a41.38,41.38,0,0,1,41.36,0h0A41.37,41.37,0,0,1,103.82,212h0a41.36,41.36,0,0,1-20.69,35.82h0a41.37,41.37,0,0,1-41.37,0h0A41.36,41.36,0,0,1,21.09,211.93Z"/><path class="cls-23" d="M22.25,211.27h0a40.66,40.66,0,0,1,20.32-35.18h0a40.64,40.64,0,0,1,40.63,0h0a40.63,40.63,0,0,1,20.31,35.19h0a40.66,40.66,0,0,1-20.32,35.18h0a40.64,40.64,0,0,1-40.63,0h0A40.63,40.63,0,0,1,22.25,211.27Z"/><path class="cls-24" d="M23.42,210.61h0a39.88,39.88,0,0,1,19.95-34.54h0a39.89,39.89,0,0,1,39.89,0h0a39.86,39.86,0,0,1,19.93,34.54h0a39.86,39.86,0,0,1-20,34.54h0a39.87,39.87,0,0,1-39.88,0h0A39.9,39.9,0,0,1,23.42,210.61Z"/><path class="cls-25" d="M24.59,210h0a39.12,39.12,0,0,1,19.58-33.9h0a39.12,39.12,0,0,1,39.14,0h0A39.15,39.15,0,0,1,102.88,210h0a39.15,39.15,0,0,1-19.58,33.9h0a39.14,39.14,0,0,1-39.15,0h0A39.12,39.12,0,0,1,24.59,210Z"/><path class="cls-26" d="M25.75,209.28h0A38.39,38.39,0,0,1,45,176h0a38.42,38.42,0,0,1,38.41,0h0a38.44,38.44,0,0,1,19.2,33.27h0a38.42,38.42,0,0,1-19.21,33.26h0a38.42,38.42,0,0,1-38.41,0h0A38.41,38.41,0,0,1,25.75,209.28Z"/><path class="cls-27" d="M26.92,208.62h0A37.66,37.66,0,0,1,45.76,176h0a37.69,37.69,0,0,1,37.67,0h0a37.69,37.69,0,0,1,18.83,32.63h0a37.7,37.7,0,0,1-18.85,32.62h0a37.67,37.67,0,0,1-37.66,0h0A37.67,37.67,0,0,1,26.92,208.62Z"/><path class="cls-28" d="M28.08,208h0a37,37,0,0,1,18.48-32h0a36.92,36.92,0,0,1,36.92,0h0a36.92,36.92,0,0,1,18.46,32h0a36.91,36.91,0,0,1-18.47,32h0a36.92,36.92,0,0,1-36.93,0h0A36.93,36.93,0,0,1,28.08,208Z"/><path class="cls-29" d="M29.25,207.3h0A36.18,36.18,0,0,1,47.35,176h0a36.19,36.19,0,0,1,36.19,0h0a36.17,36.17,0,0,1,18.09,31.34h0a36.18,36.18,0,0,1-18.1,31.34h0a36.19,36.19,0,0,1-36.19,0h0A36.17,36.17,0,0,1,29.25,207.3Z"/><path class="cls-30" d="M30.42,206.64h0a35.44,35.44,0,0,1,17.73-30.7h0a35.46,35.46,0,0,1,35.45,0h0a35.48,35.48,0,0,1,17.72,30.71h0a35.47,35.47,0,0,1-17.73,30.7h0a35.46,35.46,0,0,1-35.45,0h0A35.43,35.43,0,0,1,30.42,206.64Z"/><path class="cls-31" d="M31.58,206h0a34.71,34.71,0,0,1,17.36-30.05h0a34.71,34.71,0,0,1,34.71,0h0A34.71,34.71,0,0,1,101,206h0a34.7,34.7,0,0,1-17.36,30h0a34.71,34.71,0,0,1-34.71,0h0A34.73,34.73,0,0,1,31.58,206Z"/><path class="cls-32" d="M32.75,205.31h0a34,34,0,0,1,17-29.42h0a34,34,0,0,1,34,0h0a34,34,0,0,1,17,29.42h0a34,34,0,0,1-17,29.42h0a34,34,0,0,1-34,0h0A34,34,0,0,1,32.75,205.31Z"/><path class="cls-33" d="M33.92,204.65h0a33.23,33.23,0,0,1,16.62-28.78h0a33.23,33.23,0,0,1,33.23,0h0a33.24,33.24,0,0,1,16.61,28.78h0a33.25,33.25,0,0,1-16.62,28.78h0a33.23,33.23,0,0,1-33.23,0h0A33.2,33.2,0,0,1,33.92,204.65Z"/><path class="cls-34" d="M35.08,204h0a32.5,32.5,0,0,1,16.25-28.14h0a32.48,32.48,0,0,1,32.49,0h0A32.48,32.48,0,0,1,100.07,204h0a32.49,32.49,0,0,1-16.26,28.13h0a32.48,32.48,0,0,1-32.49,0h0A32.51,32.51,0,0,1,35.08,204Z"/><path class="cls-35" d="M36.25,203.32h0a31.73,31.73,0,0,1,15.88-27.49h0a31.76,31.76,0,0,1,31.75,0h0a31.78,31.78,0,0,1,15.87,27.51h0a31.73,31.73,0,0,1-15.88,27.49h0a31.73,31.73,0,0,1-31.75,0h0A31.75,31.75,0,0,1,36.25,203.32Z"/><path class="cls-36" d="M37.41,202.66h0a31,31,0,0,1,15.52-26.85h0a31,31,0,0,1,31,0h0a31,31,0,0,1,15.5,26.86h0a31,31,0,0,1-15.51,26.86h0a31,31,0,0,1-31,0h0A31,31,0,0,1,37.41,202.66Z"/><path class="cls-37" d="M38.58,202h0a30.27,30.27,0,0,1,15.14-26.22h0a30.3,30.3,0,0,1,30.28,0h0A30.29,30.29,0,0,1,99.13,202h0A30.27,30.27,0,0,1,84,228.22h0a30.26,30.26,0,0,1-30.27,0h0A30.29,30.29,0,0,1,38.58,202Z"/><path class="cls-38" d="M39.75,201.34h0a29.54,29.54,0,0,1,14.77-25.58h0a29.53,29.53,0,0,1,29.53,0h0a29.51,29.51,0,0,1,14.76,25.58h0A29.52,29.52,0,0,1,84,226.92h0a29.53,29.53,0,0,1-29.53,0h0A29.51,29.51,0,0,1,39.75,201.34Z"/><path class="cls-39" d="M40.91,200.67h0a28.79,28.79,0,0,1,14.4-24.93h0a28.8,28.8,0,0,1,28.8,0h0A28.78,28.78,0,0,1,98.5,200.69h0a28.79,28.79,0,0,1-14.4,24.93h0a28.8,28.8,0,0,1-28.8,0h0A28.8,28.8,0,0,1,40.91,200.67Z"/><path class="cls-40" d="M42.08,200h0a28,28,0,0,1,14-24.29h0a28.07,28.07,0,0,1,28.06,0h0a28.09,28.09,0,0,1,14,24.3h0a28.05,28.05,0,0,1-14,24.3h0a28.07,28.07,0,0,1-28.06,0h0A28.06,28.06,0,0,1,42.08,200Z"/><path class="cls-41" d="M43.25,199.35h0A27.3,27.3,0,0,1,56.91,175.7h0a27.3,27.3,0,0,1,27.31,0h0a27.3,27.3,0,0,1,13.65,23.66h0A27.29,27.29,0,0,1,84.21,223h0a27.3,27.3,0,0,1-27.31,0h0A27.3,27.3,0,0,1,43.25,199.35Z"/><path class="cls-42" d="M44.41,198.69h0a26.59,26.59,0,0,1,13.29-23h0a26.59,26.59,0,0,1,26.58,0h0a26.58,26.58,0,0,1,13.28,23h0a26.58,26.58,0,0,1-13.29,23h0a26.57,26.57,0,0,1-26.58,0h0A26.56,26.56,0,0,1,44.41,198.69Z"/><path class="cls-43" d="M45.58,198h0A25.84,25.84,0,0,1,58.5,175.65h0a25.84,25.84,0,0,1,25.84,0h0A25.82,25.82,0,0,1,97.25,198h0a25.86,25.86,0,0,1-12.92,22.38h0a25.84,25.84,0,0,1-25.84,0h0A25.85,25.85,0,0,1,45.58,198Z"/><path class="cls-44" d="M46.74,197.36h0A25.11,25.11,0,0,1,59.3,175.63h0a25.07,25.07,0,0,1,25.09,0h0a25.08,25.08,0,0,1,12.55,21.73h0A25.1,25.1,0,0,1,84.38,219.1h0a25.1,25.1,0,0,1-25.09,0h0A25.1,25.1,0,0,1,46.74,197.36Z"/><path class="cls-45" d="M47.91,196.7h0a24.37,24.37,0,0,1,12.18-21.09h0a24.37,24.37,0,0,1,24.36,0h0a24.36,24.36,0,0,1,12.17,21.1h0A24.35,24.35,0,0,1,84.44,217.8h0a24.37,24.37,0,0,1-24.36,0h0A24.39,24.39,0,0,1,47.91,196.7Z"/><path d="M49.08,196h0a23.59,23.59,0,0,1,11.81-20.45h0a23.62,23.62,0,0,1,23.62,0h0a23.63,23.63,0,0,1,11.8,20.46h0A23.62,23.62,0,0,1,84.5,216.5h0a23.64,23.64,0,0,1-23.62,0h0A23.58,23.58,0,0,1,49.08,196Z"/></g><g class="cls-4"><path class="cls-5" d="M1.26,85.14h0a53.94,53.94,0,0,1,27-46.71h0a53.94,53.94,0,0,1,53.94,0h0a54,54,0,0,1,27,46.72h0a53.94,53.94,0,0,1-27,46.7h0a53.92,53.92,0,0,1-53.94,0h0A53.92,53.92,0,0,1,1.26,85.14Z"/><path class="cls-6" d="M2.43,84.47h0A53.17,53.17,0,0,1,29,38.41h0a53.17,53.17,0,0,1,53.19,0h0a53.2,53.2,0,0,1,26.6,46.07h0a53.22,53.22,0,0,1-26.61,46.07h0a53.19,53.19,0,0,1-53.2,0h0A53.19,53.19,0,0,1,2.43,84.47Z"/><path class="cls-7" d="M3.59,83.81h0A52.46,52.46,0,0,1,29.83,38.39h0a52.44,52.44,0,0,1,52.46,0h0a52.43,52.43,0,0,1,26.22,45.43h0a52.45,52.45,0,0,1-26.24,45.43h0a52.47,52.47,0,0,1-52.46,0h0A52.48,52.48,0,0,1,3.59,83.81Z"/><path class="cls-8" d="M4.76,83.15h0A51.71,51.71,0,0,1,30.63,38.36h0a51.74,51.74,0,0,1,51.72,0h0a51.74,51.74,0,0,1,25.85,44.8h0A51.71,51.71,0,0,1,82.33,128h0a51.74,51.74,0,0,1-51.72,0h0A51.74,51.74,0,0,1,4.76,83.15Z"/><path class="cls-9" d="M5.93,82.49h0A51,51,0,0,1,31.42,38.34h0a51,51,0,0,1,51,0h0a51,51,0,0,1,25.48,44.16h0a51,51,0,0,1-25.5,44.14h0a51,51,0,0,1-51,0h0A51,51,0,0,1,5.93,82.49Z"/><path class="cls-10" d="M7.09,81.82h0a50.25,50.25,0,0,1,25.13-43.5h0a50.24,50.24,0,0,1,50.24,0h0a50.23,50.23,0,0,1,25.11,43.51h0a50.24,50.24,0,0,1-25.12,43.51h0a50.24,50.24,0,0,1-50.24,0h0A50.26,50.26,0,0,1,7.09,81.82Z"/><path class="cls-11" d="M8.26,81.16h0A49.49,49.49,0,0,1,33,38.3h0a49.49,49.49,0,0,1,49.5,0h0a49.51,49.51,0,0,1,24.74,42.87h0A49.49,49.49,0,0,1,82.5,124.05h0A49.51,49.51,0,0,1,33,124h0A49.5,49.5,0,0,1,8.26,81.16Z"/><path class="cls-12" d="M9.42,80.5h0A48.78,48.78,0,0,1,33.81,38.28h0a48.76,48.76,0,0,1,48.77,0h0A48.77,48.77,0,0,1,107,80.52h0a48.76,48.76,0,0,1-24.39,42.22h0a48.74,48.74,0,0,1-48.76,0h0A48.76,48.76,0,0,1,9.42,80.5Z"/><path class="cls-13" d="M10.59,79.84h0a48,48,0,0,1,24-41.59h0a48,48,0,0,1,48,0h0a48,48,0,0,1,24,41.6h0a48,48,0,0,1-24,41.58h0a48,48,0,0,1-48,0h0A48,48,0,0,1,10.59,79.84Z"/><path class="cls-14" d="M11.76,79.18h0a47.29,47.29,0,0,1,23.65-41h0a47.28,47.28,0,0,1,47.28,0h0a47.26,47.26,0,0,1,23.63,40.95h0a47.29,47.29,0,0,1-23.65,41h0a47.28,47.28,0,0,1-47.28,0h0A47.26,47.26,0,0,1,11.76,79.18Z"/><path class="cls-15" d="M12.92,78.51h0A46.55,46.55,0,0,1,36.2,38.21h0a46.55,46.55,0,0,1,46.55,0h0A46.56,46.56,0,0,1,106,78.53h0a46.53,46.53,0,0,1-23.28,40.3h0a46.53,46.53,0,0,1-46.54,0h0A46.57,46.57,0,0,1,12.92,78.51Z"/><path class="cls-16" d="M14.09,77.85h0A45.81,45.81,0,0,1,37,38.19h0a45.78,45.78,0,0,1,45.8,0h0a45.8,45.8,0,0,1,22.9,39.67h0a45.83,45.83,0,0,1-22.91,39.66h0a45.8,45.8,0,0,1-45.81,0h0A45.8,45.8,0,0,1,14.09,77.85Z"/><path class="cls-17" d="M15.26,77.19h0a45,45,0,0,1,22.54-39h0a45.06,45.06,0,0,1,45.06,0h0a45.07,45.07,0,0,1,22.52,39h0a45,45,0,0,1-22.54,39h0a45.06,45.06,0,0,1-45.06,0h0A45,45,0,0,1,15.26,77.19Z"/><path class="cls-18" d="M16.42,76.53h0A44.36,44.36,0,0,1,38.59,38.14h0a44.35,44.35,0,0,1,44.33,0h0a44.34,44.34,0,0,1,22.15,38.39h0A44.32,44.32,0,0,1,82.9,114.93h0a44.33,44.33,0,0,1-44.32,0h0A44.33,44.33,0,0,1,16.42,76.53Z"/><path class="cls-19" d="M17.59,75.86h0a43.58,43.58,0,0,1,21.8-37.74h0a43.58,43.58,0,0,1,43.58,0h0a43.59,43.59,0,0,1,21.79,37.75h0A43.57,43.57,0,0,1,83,113.62h0a43.57,43.57,0,0,1-43.59,0h0A43.57,43.57,0,0,1,17.59,75.86Z"/><path class="cls-20" d="M18.75,75.2h0A42.87,42.87,0,0,1,40.18,38.1h0a42.85,42.85,0,0,1,42.85,0h0a42.86,42.86,0,0,1,21.42,37.11h0A42.87,42.87,0,0,1,83,112.32h0a42.85,42.85,0,0,1-42.85,0h0A42.85,42.85,0,0,1,18.75,75.2Z"/><path class="cls-21" d="M19.92,74.54h0A42.1,42.1,0,0,1,41,38.08h0a42.1,42.1,0,0,1,42.11,0h0a42.09,42.09,0,0,1,21,36.47h0A42.1,42.1,0,0,1,83.07,111h0A42.13,42.13,0,0,1,41,111h0A42.12,42.12,0,0,1,19.92,74.54Z"/><path class="cls-22" d="M21.09,73.88h0A41.35,41.35,0,0,1,41.78,38.06h0a41.35,41.35,0,0,1,41.36,0h0a41.38,41.38,0,0,1,20.68,35.83h0a41.35,41.35,0,0,1-20.69,35.82h0a41.35,41.35,0,0,1-41.37,0h0A41.34,41.34,0,0,1,21.09,73.88Z"/><path class="cls-23" d="M22.25,73.21h0A40.66,40.66,0,0,1,42.57,38h0A40.64,40.64,0,0,1,83.2,38h0a40.64,40.64,0,0,1,20.31,35.19h0a40.64,40.64,0,0,1-20.32,35.18h0a40.64,40.64,0,0,1-40.63,0h0A40.63,40.63,0,0,1,22.25,73.21Z"/><path class="cls-24" d="M23.42,72.55h0A39.9,39.9,0,0,1,43.37,38h0a39.89,39.89,0,0,1,39.89,0h0a39.87,39.87,0,0,1,19.93,34.55h0a39.88,39.88,0,0,1-20,34.54h0a39.87,39.87,0,0,1-39.88,0h0A39.9,39.9,0,0,1,23.42,72.55Z"/><path class="cls-25" d="M24.59,71.89h0A39.12,39.12,0,0,1,44.17,38h0a39.12,39.12,0,0,1,39.14,0h0a39.15,39.15,0,0,1,19.57,33.9h0A39.15,39.15,0,0,1,83.3,105.8h0a39.17,39.17,0,0,1-39.15,0h0A39.13,39.13,0,0,1,24.59,71.89Z"/><path class="cls-26" d="M25.75,71.23h0A38.42,38.42,0,0,1,45,38h0a38.39,38.39,0,0,1,38.41,0h0a38.41,38.41,0,0,1,19.2,33.26h0A38.42,38.42,0,0,1,83.36,104.5h0a38.39,38.39,0,0,1-38.41,0h0A38.41,38.41,0,0,1,25.75,71.23Z"/><path class="cls-27" d="M26.92,70.56h0A37.64,37.64,0,0,1,45.76,38h0a37.67,37.67,0,0,1,37.67,0h0a37.7,37.7,0,0,1,18.83,32.63h0A37.69,37.69,0,0,1,83.41,103.2h0a37.67,37.67,0,0,1-37.66,0h0A37.67,37.67,0,0,1,26.92,70.56Z"/><path class="cls-28" d="M28.08,69.9h0a37,37,0,0,1,18.48-32h0a36.92,36.92,0,0,1,36.92,0h0a36.93,36.93,0,0,1,18.46,32h0a36.9,36.9,0,0,1-18.47,32h0a36.92,36.92,0,0,1-36.93,0h0A37,37,0,0,1,28.08,69.9Z"/><path class="cls-29" d="M29.25,69.24h0A36.19,36.19,0,0,1,47.35,37.9h0a36.19,36.19,0,0,1,36.19,0h0a36.18,36.18,0,0,1,18.09,31.34h0a36.18,36.18,0,0,1-18.1,31.34h0a36.19,36.19,0,0,1-36.19,0h0A36.17,36.17,0,0,1,29.25,69.24Z"/><path class="cls-30" d="M30.42,68.58h0a35.44,35.44,0,0,1,17.73-30.7h0a35.44,35.44,0,0,1,35.45,0h0a35.46,35.46,0,0,1,17.72,30.7h0a35.46,35.46,0,0,1-17.73,30.7h0a35.44,35.44,0,0,1-35.45,0h0A35.42,35.42,0,0,1,30.42,68.58Z"/><path class="cls-31" d="M31.58,67.92h0A34.72,34.72,0,0,1,48.94,37.86h0a34.69,34.69,0,0,1,34.71,0h0A34.68,34.68,0,0,1,101,67.93h0A34.71,34.71,0,0,1,83.64,98h0a34.74,34.74,0,0,1-34.71,0h0A34.7,34.7,0,0,1,31.58,67.92Z"/><path class="cls-32" d="M32.75,67.25h0a34,34,0,0,1,17-29.41h0a34,34,0,0,1,34,0h0a34,34,0,0,1,17,29.43h0a34,34,0,0,1-17,29.41h0a34,34,0,0,1-34,0h0A34,34,0,0,1,32.75,67.25Z"/><path class="cls-33" d="M33.92,66.59h0A33.23,33.23,0,0,1,50.54,37.81h0a33.23,33.23,0,0,1,33.23,0h0A33.24,33.24,0,0,1,100.38,66.6h0A33.22,33.22,0,0,1,83.76,95.38h0a33.23,33.23,0,0,1-33.23,0h0A33.2,33.2,0,0,1,33.92,66.59Z"/><path class="cls-34" d="M35.08,65.93h0A32.51,32.51,0,0,1,51.33,37.79h0a32.48,32.48,0,0,1,32.49,0h0a32.49,32.49,0,0,1,16.25,28.14h0A32.52,32.52,0,0,1,83.81,94.08h0a32.48,32.48,0,0,1-32.49,0h0A32.5,32.5,0,0,1,35.08,65.93Z"/><path class="cls-35" d="M36.25,65.27h0a31.74,31.74,0,0,1,15.88-27.5h0a31.73,31.73,0,0,1,31.75,0h0a31.75,31.75,0,0,1,15.87,27.5h0A31.73,31.73,0,0,1,83.87,92.77h0a31.76,31.76,0,0,1-31.75,0h0A31.77,31.77,0,0,1,36.25,65.27Z"/><path class="cls-36" d="M37.41,64.6h0A31,31,0,0,1,52.93,37.75h0a31,31,0,0,1,31,0h0a31,31,0,0,1,15.5,26.86h0A31,31,0,0,1,83.93,91.47h0a31,31,0,0,1-31,0h0A31,31,0,0,1,37.41,64.6Z"/><path class="cls-37" d="M38.58,63.94h0A30.25,30.25,0,0,1,53.72,37.73h0a30.28,30.28,0,0,1,30.28,0h0A30.29,30.29,0,0,1,99.13,64h0A30.3,30.3,0,0,1,84,90.17h0a30.28,30.28,0,0,1-30.27,0h0A30.28,30.28,0,0,1,38.58,63.94Z"/><path class="cls-38" d="M39.75,63.28h0A29.52,29.52,0,0,1,54.52,37.71h0a29.51,29.51,0,0,1,29.53,0h0A29.51,29.51,0,0,1,98.81,63.29h0A29.52,29.52,0,0,1,84,88.86h0a29.51,29.51,0,0,1-29.53,0h0A29.51,29.51,0,0,1,39.75,63.28Z"/><path class="cls-39" d="M40.91,62.62h0a28.8,28.8,0,0,1,14.4-24.94h0a28.8,28.8,0,0,1,28.8,0h0A28.78,28.78,0,0,1,98.5,62.63h0A28.79,28.79,0,0,1,84.1,87.56h0a28.82,28.82,0,0,1-28.8,0h0A28.83,28.83,0,0,1,40.91,62.62Z"/><path class="cls-40" d="M42.08,62h0a28,28,0,0,1,14-24.29h0a28,28,0,0,1,28.06,0h0a28.07,28.07,0,0,1,14,24.3h0a28,28,0,0,1-14,24.29h0a28,28,0,0,1-28.06,0h0A28,28,0,0,1,42.08,62Z"/><path class="cls-41" d="M43.25,61.29h0A27.31,27.31,0,0,1,56.91,37.64h0a27.3,27.3,0,0,1,27.31,0h0A27.31,27.31,0,0,1,97.87,61.3h0A27.31,27.31,0,0,1,84.21,85h0A27.33,27.33,0,0,1,56.9,85h0A27.3,27.3,0,0,1,43.25,61.29Z"/><path class="cls-42" d="M44.41,60.63h0a26.57,26.57,0,0,1,13.29-23h0a26.57,26.57,0,0,1,26.58,0h0a26.59,26.59,0,0,1,13.28,23h0a26.57,26.57,0,0,1-13.29,23h0a26.57,26.57,0,0,1-26.58,0h0A26.59,26.59,0,0,1,44.41,60.63Z"/><path class="cls-43" d="M45.58,60h0A25.83,25.83,0,0,1,58.5,37.6h0a25.82,25.82,0,0,1,25.84,0h0A25.85,25.85,0,0,1,97.25,60h0A25.83,25.83,0,0,1,84.33,82.35h0a25.84,25.84,0,0,1-25.84,0h0A25.82,25.82,0,0,1,45.58,60Z"/><path class="cls-44" d="M46.74,59.31h0A25.13,25.13,0,0,1,59.3,37.57h0a25.07,25.07,0,0,1,25.09,0h0A25.08,25.08,0,0,1,96.94,59.31h0A25.13,25.13,0,0,1,84.38,81.05h0a25.07,25.07,0,0,1-25.09,0h0A25.08,25.08,0,0,1,46.74,59.31Z"/><path class="cls-45" d="M47.91,58.64h0A24.37,24.37,0,0,1,60.09,37.55h0a24.34,24.34,0,0,1,24.36,0h0A24.34,24.34,0,0,1,96.62,58.65h0A24.35,24.35,0,0,1,84.44,79.74h0a24.37,24.37,0,0,1-24.36,0h0A24.37,24.37,0,0,1,47.91,58.64Z"/><path d="M49.08,58h0A23.61,23.61,0,0,1,60.89,37.53h0a23.62,23.62,0,0,1,23.62,0h0A23.63,23.63,0,0,1,96.31,58h0A23.61,23.61,0,0,1,84.5,78.44h0a23.62,23.62,0,0,1-23.62,0h0A23.59,23.59,0,0,1,49.08,58Z"/></g><g class="cls-4"><path class="cls-5" d="M371.94,85.14h0a53.94,53.94,0,0,1,27-46.71h0a53.92,53.92,0,0,1,53.93,0h0a54,54,0,0,1,27,46.72h0a53.94,53.94,0,0,1-27,46.7h0a53.92,53.92,0,0,1-53.94,0h0A53.9,53.9,0,0,1,371.94,85.14Z"/><path class="cls-6" d="M373.1,84.47h0a53.21,53.21,0,0,1,26.61-46.06h0a53.19,53.19,0,0,1,53.2,0h0A53.17,53.17,0,0,1,479.5,84.49h0a53.18,53.18,0,0,1-26.61,46.07h0a53.19,53.19,0,0,1-53.2,0h0A53.23,53.23,0,0,1,373.1,84.47Z"/><path class="cls-7" d="M374.27,83.81h0a52.44,52.44,0,0,1,26.24-45.42h0a52.44,52.44,0,0,1,52.46,0h0a52.45,52.45,0,0,1,26.22,45.43h0A52.47,52.47,0,0,1,453,129.26h0a52.47,52.47,0,0,1-52.46,0h0A52.48,52.48,0,0,1,374.27,83.81Z"/><path class="cls-8" d="M375.44,83.15h0a51.71,51.71,0,0,1,25.87-44.79h0a51.74,51.74,0,0,1,51.72,0h0a51.74,51.74,0,0,1,25.85,44.8h0A51.75,51.75,0,0,1,453,128h0a51.74,51.74,0,0,1-51.72,0h0A51.72,51.72,0,0,1,375.44,83.15Z"/><path class="cls-9" d="M376.6,82.49h0a51,51,0,0,1,25.5-44.15h0a51,51,0,0,1,51,0h0a51,51,0,0,1,25.48,44.16h0a51,51,0,0,1-25.5,44.14h0a51,51,0,0,1-51,0h0A51,51,0,0,1,376.6,82.49Z"/><path class="cls-10" d="M377.77,81.82h0a50.23,50.23,0,0,1,25.13-43.5h0a50.24,50.24,0,0,1,50.24,0h0a50.25,50.25,0,0,1,25.11,43.51h0a50.23,50.23,0,0,1-25.13,43.51h0a50.24,50.24,0,0,1-50.24,0h0A50.26,50.26,0,0,1,377.77,81.82Z"/><path class="cls-11" d="M378.94,81.16h0A49.5,49.5,0,0,1,403.69,38.3h0a49.51,49.51,0,0,1,49.51,0h0a49.51,49.51,0,0,1,24.74,42.87h0a49.51,49.51,0,0,1-24.76,42.87h0a49.51,49.51,0,0,1-49.5,0h0A49.48,49.48,0,0,1,378.94,81.16Z"/><path class="cls-12" d="M380.1,80.5h0a48.74,48.74,0,0,1,24.39-42.22h0a48.74,48.74,0,0,1,48.76,0h0a48.76,48.76,0,0,1,24.38,42.23h0a48.78,48.78,0,0,1-24.39,42.22h0a48.76,48.76,0,0,1-48.77,0h0A48.77,48.77,0,0,1,380.1,80.5Z"/><path class="cls-13" d="M381.27,79.84h0a48,48,0,0,1,24-41.59h0a48,48,0,0,1,48,0h0a48,48,0,0,1,24,41.6h0a48,48,0,0,1-24,41.58h0a48,48,0,0,1-48,0h0A48,48,0,0,1,381.27,79.84Z"/><path class="cls-14" d="M382.43,79.18h0a47.31,47.31,0,0,1,23.65-41h0a47.3,47.3,0,0,1,47.29,0h0A47.3,47.3,0,0,1,477,79.19h0a47.29,47.29,0,0,1-23.65,41h0a47.28,47.28,0,0,1-47.28,0h0A47.29,47.29,0,0,1,382.43,79.18Z"/><path class="cls-15" d="M383.6,78.51h0a46.53,46.53,0,0,1,23.28-40.3h0a46.53,46.53,0,0,1,46.54,0h0a46.55,46.55,0,0,1,23.27,40.31h0a46.55,46.55,0,0,1-23.28,40.3h0a46.55,46.55,0,0,1-46.55,0h0A46.56,46.56,0,0,1,383.6,78.51Z"/><path class="cls-16" d="M384.77,77.85h0a45.78,45.78,0,0,1,22.91-39.66h0a45.78,45.78,0,0,1,45.8,0h0a45.77,45.77,0,0,1,22.89,39.67h0a45.78,45.78,0,0,1-22.91,39.66h0a45.78,45.78,0,0,1-45.8,0h0A45.78,45.78,0,0,1,384.77,77.85Z"/><path class="cls-17" d="M385.93,77.19h0a45.08,45.08,0,0,1,22.54-39h0a45.07,45.07,0,0,1,45.07,0h0a45.09,45.09,0,0,1,22.52,39h0a45,45,0,0,1-22.54,39h0a45.06,45.06,0,0,1-45.06,0h0A45.07,45.07,0,0,1,385.93,77.19Z"/><path class="cls-18" d="M387.1,76.53h0a44.32,44.32,0,0,1,22.17-38.39h0a44.33,44.33,0,0,1,44.32,0h0a44.33,44.33,0,0,1,22.16,38.39h0a44.36,44.36,0,0,1-22.17,38.39h0a44.35,44.35,0,0,1-44.33,0h0A44.34,44.34,0,0,1,387.1,76.53Z"/><path class="cls-19" d="M388.26,75.86h0a43.62,43.62,0,0,1,21.8-37.74h0a43.6,43.6,0,0,1,43.59,0h0a43.61,43.61,0,0,1,21.79,37.75h0a43.61,43.61,0,0,1-21.8,37.74h0a43.57,43.57,0,0,1-43.59,0h0A43.58,43.58,0,0,1,388.26,75.86Z"/><path class="cls-20" d="M389.43,75.2h0a42.83,42.83,0,0,1,21.43-37.1h0a42.85,42.85,0,0,1,42.85,0h0a42.83,42.83,0,0,1,21.41,37.11h0a42.83,42.83,0,0,1-21.43,37.1h0a42.83,42.83,0,0,1-42.84,0h0A42.85,42.85,0,0,1,389.43,75.2Z"/><path class="cls-21" d="M390.6,74.54h0a42.1,42.1,0,0,1,21.06-36.46h0a42.08,42.08,0,0,1,42.1,0h0a42.1,42.1,0,0,1,21.05,36.47h0A42.1,42.1,0,0,1,453.75,111h0a42.15,42.15,0,0,1-42.11,0h0A42.11,42.11,0,0,1,390.6,74.54Z"/><path class="cls-22" d="M391.76,73.88h0a41.37,41.37,0,0,1,20.69-35.82h0a41.37,41.37,0,0,1,41.37,0h0A41.38,41.38,0,0,1,474.5,73.89h0a41.37,41.37,0,0,1-20.69,35.82h0a41.35,41.35,0,0,1-41.37,0h0A41.35,41.35,0,0,1,391.76,73.88Z"/><path class="cls-23" d="M392.93,73.21h0A40.64,40.64,0,0,1,413.25,38h0a40.64,40.64,0,0,1,40.63,0h0a40.61,40.61,0,0,1,20.3,35.19h0a40.62,40.62,0,0,1-20.32,35.18h0a40.63,40.63,0,0,1-40.62,0h0A40.63,40.63,0,0,1,392.93,73.21Z"/><path class="cls-24" d="M394.1,72.55h0A39.88,39.88,0,0,1,414.05,38h0a39.87,39.87,0,0,1,39.88,0h0a39.9,39.9,0,0,1,19.94,34.55h0a39.9,39.9,0,0,1-19.95,34.54h0a39.89,39.89,0,0,1-39.89,0h0A39.87,39.87,0,0,1,394.1,72.55Z"/><path class="cls-25" d="M395.26,71.89h0A39.17,39.17,0,0,1,414.84,38h0A39.14,39.14,0,0,1,454,38h0a39.15,39.15,0,0,1,19.57,33.9h0A39.17,39.17,0,0,1,454,105.8h0a39.17,39.17,0,0,1-39.15,0h0A39.16,39.16,0,0,1,395.26,71.89Z"/><path class="cls-26" d="M396.43,71.23h0A38.4,38.4,0,0,1,415.64,38h0a38.39,38.39,0,0,1,38.41,0h0a38.38,38.38,0,0,1,19.19,33.26h0A38.4,38.4,0,0,1,454,104.5h0a38.37,38.37,0,0,1-38.4,0h0A38.39,38.39,0,0,1,396.43,71.23Z"/><path class="cls-27" d="M397.59,70.56h0A37.67,37.67,0,0,1,416.44,38h0a37.65,37.65,0,0,1,37.66,0h0a37.68,37.68,0,0,1,18.83,32.63h0a37.66,37.66,0,0,1-18.84,32.62h0a37.69,37.69,0,0,1-37.67,0h0A37.69,37.69,0,0,1,397.59,70.56Z"/><path class="cls-28" d="M398.76,69.9h0a36.93,36.93,0,0,1,18.47-32h0a36.94,36.94,0,0,1,36.93,0h0a36.93,36.93,0,0,1,18.46,32h0a36.9,36.9,0,0,1-18.47,32h0a36.92,36.92,0,0,1-36.93,0h0A36.93,36.93,0,0,1,398.76,69.9Z"/><path class="cls-29" d="M399.93,69.24h0A36.19,36.19,0,0,1,418,37.9h0a36.19,36.19,0,0,1,36.19,0h0a36.2,36.2,0,0,1,18.09,31.34h0a36.22,36.22,0,0,1-18.1,31.34h0a36.19,36.19,0,0,1-36.19,0h0A36.15,36.15,0,0,1,399.93,69.24Z"/><path class="cls-30" d="M401.09,68.58h0a35.48,35.48,0,0,1,17.73-30.7h0a35.44,35.44,0,0,1,35.45,0h0A35.42,35.42,0,0,1,472,68.59h0a35.44,35.44,0,0,1-17.73,30.7h0a35.44,35.44,0,0,1-35.45,0h0A35.46,35.46,0,0,1,401.09,68.58Z"/><path class="cls-31" d="M402.26,67.92h0a34.7,34.7,0,0,1,17.36-30.06h0a34.69,34.69,0,0,1,34.71,0h0a34.7,34.7,0,0,1,17.35,30.06h0A34.71,34.71,0,0,1,454.32,98h0a34.74,34.74,0,0,1-34.71,0h0A34.7,34.7,0,0,1,402.26,67.92Z"/><path class="cls-32" d="M403.43,67.25h0a34,34,0,0,1,17-29.41h0a34,34,0,0,1,34,0h0a34,34,0,0,1,17,29.43h0a34,34,0,0,1-17,29.41h0a34,34,0,0,1-34,0h0A34,34,0,0,1,403.43,67.25Z"/><path class="cls-33" d="M404.59,66.59h0a33.25,33.25,0,0,1,16.62-28.78h0a33.23,33.23,0,0,1,33.23,0h0A33.2,33.2,0,0,1,471.05,66.6h0a33.2,33.2,0,0,1-16.62,28.78h0a33.23,33.23,0,0,1-33.23,0h0A33.24,33.24,0,0,1,404.59,66.59Z"/><path class="cls-34" d="M405.76,65.93h0A32.51,32.51,0,0,1,422,37.79h0a32.48,32.48,0,0,1,32.49,0h0a32.5,32.5,0,0,1,16.24,28.14h0a32.51,32.51,0,0,1-16.25,28.14h0a32.48,32.48,0,0,1-32.49,0h0A32.5,32.5,0,0,1,405.76,65.93Z"/><path class="cls-35" d="M406.92,65.27h0a31.77,31.77,0,0,1,15.89-27.5h0a31.73,31.73,0,0,1,31.75,0h0a31.75,31.75,0,0,1,15.87,27.5h0a31.75,31.75,0,0,1-15.88,27.49h0a31.76,31.76,0,0,1-31.75,0h0A31.76,31.76,0,0,1,406.92,65.27Z"/><path class="cls-36" d="M408.09,64.6h0A31,31,0,0,1,423.6,37.75h0a31,31,0,0,1,31,0h0a31,31,0,0,1,15.5,26.86h0A31,31,0,0,1,454.6,91.47h0a31,31,0,0,1-31,0h0A31,31,0,0,1,408.09,64.6Z"/><path class="cls-37" d="M409.26,63.94h0A30.25,30.25,0,0,1,424.4,37.73h0a30.26,30.26,0,0,1,30.27,0h0A30.25,30.25,0,0,1,469.8,64h0a30.27,30.27,0,0,1-15.14,26.22h0a30.28,30.28,0,0,1-30.27,0h0A30.26,30.26,0,0,1,409.26,63.94Z"/><path class="cls-38" d="M410.42,63.28h0A29.55,29.55,0,0,1,425.2,37.71h0a29.51,29.51,0,0,1,29.53,0h0a29.53,29.53,0,0,1,14.76,25.58h0a29.52,29.52,0,0,1-14.77,25.57h0a29.51,29.51,0,0,1-29.53,0h0A29.54,29.54,0,0,1,410.42,63.28Z"/><path class="cls-39" d="M411.59,62.62h0A28.8,28.8,0,0,1,426,37.68h0a28.8,28.8,0,0,1,28.8,0h0a28.8,28.8,0,0,1,14.39,24.94h0a28.79,28.79,0,0,1-14.4,24.93h0a28.82,28.82,0,0,1-28.8,0h0A28.81,28.81,0,0,1,411.59,62.62Z"/><path class="cls-40" d="M412.76,62h0a28,28,0,0,1,14-24.29h0a28,28,0,0,1,28,0h0a28,28,0,0,1,14,24.3h0a28,28,0,0,1-14,24.29h0a28,28,0,0,1-28.05,0h0A28,28,0,0,1,412.76,62Z"/><path class="cls-41" d="M413.92,61.29h0a27.31,27.31,0,0,1,13.66-23.65h0a27.32,27.32,0,0,1,27.32,0h0A27.33,27.33,0,0,1,468.55,61.3h0A27.33,27.33,0,0,1,454.89,85h0a27.35,27.35,0,0,1-27.32,0h0A27.32,27.32,0,0,1,413.92,61.29Z"/><path class="cls-42" d="M415.09,60.63h0a26.57,26.57,0,0,1,13.29-23h0a26.57,26.57,0,0,1,26.58,0h0a26.59,26.59,0,0,1,13.28,23h0a26.57,26.57,0,0,1-13.29,23h0a26.57,26.57,0,0,1-26.58,0h0A26.59,26.59,0,0,1,415.09,60.63Z"/><path class="cls-43" d="M416.25,60h0A25.84,25.84,0,0,1,429.18,37.6h0a25.8,25.8,0,0,1,25.83,0h0A25.84,25.84,0,0,1,467.93,60h0A25.84,25.84,0,0,1,455,82.35h0a25.83,25.83,0,0,1-25.83,0h0A25.83,25.83,0,0,1,416.25,60Z"/><path class="cls-44" d="M417.42,59.31h0A25.12,25.12,0,0,1,430,37.57h0a25.09,25.09,0,0,1,25.1,0h0a25.1,25.1,0,0,1,12.54,21.73h0a25.1,25.1,0,0,1-12.55,21.74h0A25.09,25.09,0,0,1,430,81h0A25.1,25.1,0,0,1,417.42,59.31Z"/><path class="cls-45" d="M418.59,58.64h0a24.35,24.35,0,0,1,12.18-21.09h0a24.34,24.34,0,0,1,24.36,0h0A24.36,24.36,0,0,1,467.3,58.65h0a24.37,24.37,0,0,1-12.18,21.09h0a24.37,24.37,0,0,1-24.36,0h0A24.37,24.37,0,0,1,418.59,58.64Z"/><path d="M419.75,58h0a23.64,23.64,0,0,1,11.82-20.45h0a23.6,23.6,0,0,1,23.61,0h0A23.62,23.62,0,0,1,467,58h0a23.62,23.62,0,0,1-11.82,20.45h0a23.6,23.6,0,0,1-23.61,0h0A23.62,23.62,0,0,1,419.75,58Z"/></g><g class="cls-4"><path class="cls-5" d="M332.13,154.26h0a53.94,53.94,0,0,1,27-46.71h0a53.94,53.94,0,0,1,53.94,0h0a54,54,0,0,1,27,46.72h0A54,54,0,0,1,413,201h0a54,54,0,0,1-53.94,0h0A54,54,0,0,1,332.13,154.26Z"/><path class="cls-6" d="M333.3,153.6h0a53.19,53.19,0,0,1,26.6-46.07h0a53.19,53.19,0,0,1,53.2,0h0a53.19,53.19,0,0,1,26.59,46.08h0a53.18,53.18,0,0,1-26.6,46.06h0a53.19,53.19,0,0,1-53.2,0h0A53.17,53.17,0,0,1,333.3,153.6Z"/><path class="cls-7" d="M334.46,152.93h0a52.46,52.46,0,0,1,26.24-45.42h0a52.44,52.44,0,0,1,52.46,0h0A52.45,52.45,0,0,1,439.38,153h0a52.44,52.44,0,0,1-26.24,45.43h0a52.47,52.47,0,0,1-52.46,0h0A52.46,52.46,0,0,1,334.46,152.93Z"/><path class="cls-8" d="M335.63,152.27h0a51.71,51.71,0,0,1,25.87-44.79h0a51.74,51.74,0,0,1,51.72,0h0a51.71,51.71,0,0,1,25.85,44.79h0a51.75,51.75,0,0,1-25.87,44.79h0a51.74,51.74,0,0,1-51.72,0h0A51.72,51.72,0,0,1,335.63,152.27Z"/><path class="cls-9" d="M336.79,151.61h0a51,51,0,0,1,25.5-44.15h0a51,51,0,0,1,51,0h0a51,51,0,0,1,25.49,44.16h0a51,51,0,0,1-25.5,44.14h0a51,51,0,0,1-51,0h0A51,51,0,0,1,336.79,151.61Z"/><path class="cls-10" d="M338,151h0a50.23,50.23,0,0,1,25.13-43.51h0a50.24,50.24,0,0,1,50.24,0h0A50.24,50.24,0,0,1,438.44,151h0a50.22,50.22,0,0,1-25.13,43.5h0a50.24,50.24,0,0,1-50.24,0h0A50.25,50.25,0,0,1,338,151Z"/><path class="cls-11" d="M339.13,150.28h0a49.49,49.49,0,0,1,24.76-42.86h0a49.49,49.49,0,0,1,49.5,0h0a49.51,49.51,0,0,1,24.74,42.87h0a49.49,49.49,0,0,1-24.76,42.87h0a49.51,49.51,0,0,1-49.5,0h0A49.48,49.48,0,0,1,339.13,150.28Z"/><path class="cls-12" d="M340.29,149.62h0a48.76,48.76,0,0,1,24.39-42.22h0a48.74,48.74,0,0,1,48.76,0h0a48.76,48.76,0,0,1,24.38,42.23h0a48.76,48.76,0,0,1-24.39,42.22h0a48.76,48.76,0,0,1-48.76,0h0A48.79,48.79,0,0,1,340.29,149.62Z"/><path class="cls-13" d="M341.46,149h0a48,48,0,0,1,24-41.58h0a48,48,0,0,1,48,0h0a48,48,0,0,1,24,41.6h0a48,48,0,0,1-24,41.58h0a48,48,0,0,1-48,0h0A48,48,0,0,1,341.46,149Z"/><path class="cls-14" d="M342.63,148.3h0a47.28,47.28,0,0,1,23.64-41h0a47.3,47.3,0,0,1,47.29,0h0a47.29,47.29,0,0,1,23.63,41h0a47.27,47.27,0,0,1-23.65,40.94h0a47.28,47.28,0,0,1-47.28,0h0A47.26,47.26,0,0,1,342.63,148.3Z"/><path class="cls-15" d="M343.79,147.63h0a46.54,46.54,0,0,1,23.28-40.3h0a46.53,46.53,0,0,1,46.54,0h0a46.55,46.55,0,0,1,23.27,40.31h0A46.58,46.58,0,0,1,413.6,188h0a46.56,46.56,0,0,1-46.54,0h0A46.57,46.57,0,0,1,343.79,147.63Z"/><path class="cls-16" d="M345,147h0a45.78,45.78,0,0,1,22.91-39.66h0a45.78,45.78,0,0,1,45.8,0h0A45.81,45.81,0,0,1,436.57,147h0a45.83,45.83,0,0,1-22.91,39.66h0a45.8,45.8,0,0,1-45.81,0h0A45.77,45.77,0,0,1,345,147Z"/><path class="cls-17" d="M346.12,146.31h0a45.08,45.08,0,0,1,22.54-39h0a45.05,45.05,0,0,1,45.07,0h0a45,45,0,0,1,22.52,39h0a45,45,0,0,1-22.54,39h0a45.06,45.06,0,0,1-45.06,0h0A45.07,45.07,0,0,1,346.12,146.31Z"/><path class="cls-18" d="M347.29,145.65h0a44.29,44.29,0,0,1,22.17-38.38h0a44.31,44.31,0,0,1,44.32,0h0a44.33,44.33,0,0,1,22.16,38.39h0a44.32,44.32,0,0,1-22.17,38.39h0a44.35,44.35,0,0,1-44.33,0h0A44.34,44.34,0,0,1,347.29,145.65Z"/><path class="cls-19" d="M348.46,145h0a43.58,43.58,0,0,1,21.8-37.75h0a43.58,43.58,0,0,1,43.58,0h0A43.61,43.61,0,0,1,435.63,145h0a43.61,43.61,0,0,1-21.8,37.74h0a43.6,43.6,0,0,1-43.59,0h0A43.55,43.55,0,0,1,348.46,145Z"/><path class="cls-20" d="M349.62,144.32h0a42.86,42.86,0,0,1,21.43-37.1h0a42.85,42.85,0,0,1,42.85,0h0a42.84,42.84,0,0,1,21.41,37.11h0a42.83,42.83,0,0,1-21.43,37.1h0a42.83,42.83,0,0,1-42.84,0h0A42.84,42.84,0,0,1,349.62,144.32Z"/><path class="cls-21" d="M350.79,143.66h0a42.1,42.1,0,0,1,21.06-36.46h0a42.08,42.08,0,0,1,42.1,0h0A42.1,42.1,0,0,1,435,143.68h0a42.1,42.1,0,0,1-21.06,36.46h0a42.12,42.12,0,0,1-42.11,0h0A42.12,42.12,0,0,1,350.79,143.66Z"/><path class="cls-22" d="M352,143h0a41.35,41.35,0,0,1,20.69-35.82h0a41.33,41.33,0,0,1,41.36,0h0A41.37,41.37,0,0,1,434.69,143h0A41.37,41.37,0,0,1,414,178.83h0a41.37,41.37,0,0,1-41.37,0h0A41.35,41.35,0,0,1,352,143Z"/><path class="cls-23" d="M353.12,142.34h0a40.61,40.61,0,0,1,20.32-35.18h0a40.62,40.62,0,0,1,40.63,0h0a40.61,40.61,0,0,1,20.3,35.19h0a40.59,40.59,0,0,1-20.32,35.18h0a40.6,40.6,0,0,1-40.62,0h0A40.63,40.63,0,0,1,353.12,142.34Z"/><path class="cls-24" d="M354.29,141.67h0a39.9,39.9,0,0,1,19.95-34.54h0a39.89,39.89,0,0,1,39.89,0h0a39.91,39.91,0,0,1,19.93,34.55h0a39.88,39.88,0,0,1-19.95,34.54h0a39.89,39.89,0,0,1-39.89,0h0A39.87,39.87,0,0,1,354.29,141.67Z"/><path class="cls-25" d="M355.45,141h0A39.17,39.17,0,0,1,375,107.11h0a39.14,39.14,0,0,1,39.15,0h0A39.16,39.16,0,0,1,433.75,141h0a39.17,39.17,0,0,1-19.58,33.9h0a39.17,39.17,0,0,1-39.15,0h0A39.16,39.16,0,0,1,355.45,141Z"/><path class="cls-26" d="M356.62,140.35h0a38.42,38.42,0,0,1,19.21-33.26h0a38.39,38.39,0,0,1,38.41,0h0a38.41,38.41,0,0,1,19.2,33.26h0a38.43,38.43,0,0,1-19.21,33.26h0a38.39,38.39,0,0,1-38.41,0h0A38.41,38.41,0,0,1,356.62,140.35Z"/><path class="cls-27" d="M357.79,139.69h0a37.65,37.65,0,0,1,18.84-32.62h0a37.64,37.64,0,0,1,37.67,0h0a37.64,37.64,0,0,1,18.82,32.62h0a37.66,37.66,0,0,1-18.84,32.62h0a37.67,37.67,0,0,1-37.67,0h0A37.65,37.65,0,0,1,357.79,139.69Z"/><path class="cls-28" d="M359,139h0a36.94,36.94,0,0,1,18.47-32h0a36.92,36.92,0,0,1,36.93,0h0a36.93,36.93,0,0,1,18.46,32h0a36.93,36.93,0,0,1-18.47,32h0a36.94,36.94,0,0,1-36.93,0h0A37,37,0,0,1,359,139Z"/><path class="cls-29" d="M360.12,138.36h0A36.19,36.19,0,0,1,378.22,107h0a36.19,36.19,0,0,1,36.19,0h0a36.22,36.22,0,0,1,18.09,31.35h0a36.18,36.18,0,0,1-18.1,31.33h0a36.19,36.19,0,0,1-36.19,0h0A36.2,36.2,0,0,1,360.12,138.36Z"/><path class="cls-30" d="M361.29,137.7h0A35.44,35.44,0,0,1,379,107h0a35.44,35.44,0,0,1,35.45,0h0a35.43,35.43,0,0,1,17.71,30.7h0a35.44,35.44,0,0,1-17.73,30.7h0a35.44,35.44,0,0,1-35.45,0h0A35.43,35.43,0,0,1,361.29,137.7Z"/><path class="cls-31" d="M362.45,137h0A34.71,34.71,0,0,1,379.81,107h0a34.69,34.69,0,0,1,34.71,0h0a34.7,34.7,0,0,1,17.35,30.06h0a34.71,34.71,0,0,1-17.36,30.06h0a34.71,34.71,0,0,1-34.71,0h0A34.7,34.7,0,0,1,362.45,137Z"/><path class="cls-32" d="M363.62,136.37h0a34,34,0,0,1,17-29.41h0a34,34,0,0,1,34,0h0a34,34,0,0,1,17,29.42h0a34,34,0,0,1-17,29.41h0a34,34,0,0,1-34,0h0A34,34,0,0,1,363.62,136.37Z"/><path class="cls-33" d="M364.78,135.71h0a33.23,33.23,0,0,1,16.63-28.77h0a33.21,33.21,0,0,1,33.23,0h0a33.24,33.24,0,0,1,16.61,28.79h0a33.23,33.23,0,0,1-16.63,28.77h0a33.21,33.21,0,0,1-33.23,0h0A33.23,33.23,0,0,1,364.78,135.71Z"/><path class="cls-34" d="M366,135.05h0a32.51,32.51,0,0,1,16.25-28.14h0a32.48,32.48,0,0,1,32.49,0h0a32.48,32.48,0,0,1,16.24,28.14h0a32.48,32.48,0,0,1-16.25,28.14h0a32.48,32.48,0,0,1-32.49,0h0A32.49,32.49,0,0,1,366,135.05Z"/><path class="cls-35" d="M367.12,134.39h0A31.74,31.74,0,0,1,383,106.89h0a31.73,31.73,0,0,1,31.75,0h0a31.76,31.76,0,0,1,15.87,27.5h0a31.78,31.78,0,0,1-15.88,27.5h0a31.76,31.76,0,0,1-31.75,0h0A31.73,31.73,0,0,1,367.12,134.39Z"/><path class="cls-36" d="M368.28,133.73h0a31,31,0,0,1,15.51-26.86h0a31,31,0,0,1,31,0h0a31,31,0,0,1,15.5,26.86h0a31,31,0,0,1-15.51,26.85h0a31,31,0,0,1-31,0h0A31,31,0,0,1,368.28,133.73Z"/><path class="cls-37" d="M369.45,133.06h0a30.25,30.25,0,0,1,15.14-26.21h0a30.28,30.28,0,0,1,30.27,0h0A30.25,30.25,0,0,1,430,133.07h0a30.27,30.27,0,0,1-15.14,26.22h0a30.28,30.28,0,0,1-30.27,0h0A30.26,30.26,0,0,1,369.45,133.06Z"/><path class="cls-38" d="M370.61,132.4h0a29.55,29.55,0,0,1,14.78-25.57h0a29.53,29.53,0,0,1,29.53,0h0a29.53,29.53,0,0,1,14.76,25.58h0A29.54,29.54,0,0,1,414.91,158h0a29.53,29.53,0,0,1-29.53,0h0A29.54,29.54,0,0,1,370.61,132.4Z"/><path class="cls-39" d="M371.78,131.74h0a28.8,28.8,0,0,1,14.4-24.94h0a28.82,28.82,0,0,1,28.8,0h0a28.82,28.82,0,0,1,14.39,24.94h0A28.78,28.78,0,0,1,415,156.68h0a28.82,28.82,0,0,1-28.8,0h0A28.82,28.82,0,0,1,371.78,131.74Z"/><path class="cls-40" d="M373,131.08h0a28.05,28.05,0,0,1,14-24.3h0a28.05,28.05,0,0,1,28,0h0a28.05,28.05,0,0,1,14,24.3h0a28.06,28.06,0,0,1-14,24.29h0a28,28,0,0,1-28,0h0A28,28,0,0,1,373,131.08Z"/><path class="cls-41" d="M374.11,130.41h0a27.32,27.32,0,0,1,13.67-23.65h0a27.3,27.3,0,0,1,27.31,0h0a27.29,27.29,0,0,1,13.65,23.65h0a27.33,27.33,0,0,1-13.66,23.66h0a27.33,27.33,0,0,1-27.31,0h0A27.33,27.33,0,0,1,374.11,130.41Z"/><path class="cls-42" d="M375.28,129.75h0a26.57,26.57,0,0,1,13.29-23h0a26.59,26.59,0,0,1,26.58,0h0a26.59,26.59,0,0,1,13.28,23h0a26.56,26.56,0,0,1-13.29,23h0a26.57,26.57,0,0,1-26.58,0h0A26.58,26.58,0,0,1,375.28,129.75Z"/><path class="cls-43" d="M376.45,129.09h0a25.81,25.81,0,0,1,12.92-22.37h0a25.83,25.83,0,0,1,25.83,0h0a25.84,25.84,0,0,1,12.92,22.38h0a25.83,25.83,0,0,1-12.92,22.37h0a25.87,25.87,0,0,1-25.84,0h0A25.83,25.83,0,0,1,376.45,129.09Z"/><path class="cls-44" d="M377.61,128.43h0a25.09,25.09,0,0,1,12.55-21.73h0a25.09,25.09,0,0,1,25.1,0h0a25.08,25.08,0,0,1,12.54,21.74h0a25.08,25.08,0,0,1-12.55,21.73h0a25.07,25.07,0,0,1-25.09,0h0A25.08,25.08,0,0,1,377.61,128.43Z"/><path class="cls-45" d="M378.78,127.76h0A24.35,24.35,0,0,1,391,106.67h0a24.37,24.37,0,0,1,24.36,0h0a24.36,24.36,0,0,1,12.17,21.09h0a24.32,24.32,0,0,1-12.18,21.09h0a24.37,24.37,0,0,1-24.36,0h0A24.36,24.36,0,0,1,378.78,127.76Z"/><path d="M379.94,127.1h0a23.64,23.64,0,0,1,11.82-20.45h0a23.6,23.6,0,0,1,23.61,0h0a23.61,23.61,0,0,1,11.81,20.45h0a23.63,23.63,0,0,1-11.81,20.45h0a23.62,23.62,0,0,1-23.62,0h0A23.62,23.62,0,0,1,379.94,127.1Z"/></g><g class="cls-4"><path class="cls-5" d="M371.94,223.19h0a53.92,53.92,0,0,1,27-46.7h0a53.9,53.9,0,0,1,53.93,0h0a53.94,53.94,0,0,1,27,46.71h0a54,54,0,0,1-27,46.71h0a53.94,53.94,0,0,1-53.94,0h0A53.93,53.93,0,0,1,371.94,223.19Z"/><path class="cls-6" d="M373.1,222.53h0a53.23,53.23,0,0,1,26.61-46.07h0a53.22,53.22,0,0,1,53.2,0h0a53.2,53.2,0,0,1,26.59,46.08h0a53.18,53.18,0,0,1-26.61,46.07h0a53.22,53.22,0,0,1-53.2,0h0A53.23,53.23,0,0,1,373.1,222.53Z"/><path class="cls-7" d="M374.27,221.87h0a52.47,52.47,0,0,1,26.24-45.43h0a52.47,52.47,0,0,1,52.46,0h0a52.48,52.48,0,0,1,26.22,45.44h0A52.47,52.47,0,0,1,453,267.32h0a52.49,52.49,0,0,1-52.46,0h0A52.48,52.48,0,0,1,374.27,221.87Z"/><path class="cls-8" d="M375.44,221.21h0a51.71,51.71,0,0,1,25.87-44.79h0a51.71,51.71,0,0,1,51.72,0h0a51.73,51.73,0,0,1,25.85,44.8h0A51.74,51.74,0,0,1,453,266h0a51.71,51.71,0,0,1-51.72,0h0A51.7,51.7,0,0,1,375.44,221.21Z"/><path class="cls-9" d="M376.6,220.54h0a51,51,0,0,1,25.5-44.14h0a51,51,0,0,1,51,0h0a51,51,0,0,1,25.48,44.15h0a51,51,0,0,1-25.5,44.15h0a51,51,0,0,1-51,0h0A51,51,0,0,1,376.6,220.54Z"/><path class="cls-10" d="M377.77,219.88h0a50.22,50.22,0,0,1,25.13-43.5h0a50.24,50.24,0,0,1,50.24,0h0a50.23,50.23,0,0,1,25.11,43.51h0a50.24,50.24,0,0,1-25.13,43.51h0a50.26,50.26,0,0,1-50.24,0h0A50.26,50.26,0,0,1,377.77,219.88Z"/><path class="cls-11" d="M378.94,219.22h0a49.5,49.5,0,0,1,24.75-42.87h0a49.55,49.55,0,0,1,49.51,0h0a49.52,49.52,0,0,1,24.74,42.88h0a49.51,49.51,0,0,1-24.76,42.86h0a49.49,49.49,0,0,1-49.5,0h0A49.47,49.47,0,0,1,378.94,219.22Z"/><path class="cls-12" d="M380.1,218.56h0a48.77,48.77,0,0,1,24.39-42.23h0a48.78,48.78,0,0,1,48.76,0h0a48.79,48.79,0,0,1,24.38,42.24h0a48.79,48.79,0,0,1-24.39,42.22h0a48.78,48.78,0,0,1-48.77,0h0A48.77,48.77,0,0,1,380.1,218.56Z"/><path class="cls-13" d="M381.27,217.89h0a48,48,0,0,1,24-41.58h0a48,48,0,0,1,48,0h0a48,48,0,0,1,24,41.59h0a48,48,0,0,1-24,41.59h0a48,48,0,0,1-48,0h0A48,48,0,0,1,381.27,217.89Z"/><path class="cls-14" d="M382.43,217.23h0a47.29,47.29,0,0,1,23.65-40.94h0a47.3,47.3,0,0,1,47.29,0h0A47.3,47.3,0,0,1,477,217.25h0a47.27,47.27,0,0,1-23.65,40.94h0a47.28,47.28,0,0,1-47.28,0h0A47.29,47.29,0,0,1,382.43,217.23Z"/><path class="cls-15" d="M383.6,216.57h0a46.53,46.53,0,0,1,23.28-40.3h0a46.53,46.53,0,0,1,46.54,0h0a46.54,46.54,0,0,1,23.27,40.31h0a46.55,46.55,0,0,1-23.28,40.3h0a46.55,46.55,0,0,1-46.55,0h0A46.53,46.53,0,0,1,383.6,216.57Z"/><path class="cls-16" d="M384.77,215.91h0a45.76,45.76,0,0,1,22.91-39.66h0a45.81,45.81,0,0,1,45.8,0h0a45.8,45.8,0,0,1,22.89,39.68h0a45.78,45.78,0,0,1-22.91,39.66h0a45.81,45.81,0,0,1-45.8,0h0A45.79,45.79,0,0,1,384.77,215.91Z"/><path class="cls-17" d="M385.93,215.25h0a45.1,45.1,0,0,1,22.54-39h0a45.1,45.1,0,0,1,45.07,0h0a45.06,45.06,0,0,1,22.52,39h0a45.06,45.06,0,0,1-22.54,39h0a45.08,45.08,0,0,1-45.06,0h0A45.09,45.09,0,0,1,385.93,215.25Z"/><path class="cls-18" d="M387.1,214.58h0a44.32,44.32,0,0,1,22.17-38.38h0a44.33,44.33,0,0,1,44.32,0h0a44.31,44.31,0,0,1,22.16,38.39h0A44.34,44.34,0,0,1,453.58,253h0a44.32,44.32,0,0,1-44.33,0h0A44.33,44.33,0,0,1,387.1,214.58Z"/><path class="cls-19" d="M388.26,213.92h0a43.61,43.61,0,0,1,21.8-37.74h0a43.6,43.6,0,0,1,43.59,0h0a43.61,43.61,0,0,1,21.79,37.75h0a43.61,43.61,0,0,1-21.8,37.74h0a43.6,43.6,0,0,1-43.59,0h0A43.61,43.61,0,0,1,388.26,213.92Z"/><path class="cls-20" d="M389.43,213.26h0a42.83,42.83,0,0,1,21.43-37.1h0a42.85,42.85,0,0,1,42.85,0h0a42.83,42.83,0,0,1,21.41,37.11h0a42.84,42.84,0,0,1-21.43,37.1h0a42.85,42.85,0,0,1-42.84,0h0A42.85,42.85,0,0,1,389.43,213.26Z"/><path class="cls-21" d="M390.6,212.6h0a42.08,42.08,0,0,1,21.06-36.46h0a42.1,42.1,0,0,1,42.1,0h0a42.12,42.12,0,0,1,21.05,36.47h0a42.09,42.09,0,0,1-21.06,36.46h0a42.12,42.12,0,0,1-42.11,0h0A42.11,42.11,0,0,1,390.6,212.6Z"/><path class="cls-22" d="M391.76,211.93h0a41.4,41.4,0,0,1,20.69-35.82h0a41.39,41.39,0,0,1,41.37,0h0A41.37,41.37,0,0,1,474.5,212h0a41.38,41.38,0,0,1-20.69,35.82h0a41.37,41.37,0,0,1-41.37,0h0A41.37,41.37,0,0,1,391.76,211.93Z"/><path class="cls-23" d="M392.93,211.27h0a40.64,40.64,0,0,1,20.32-35.18h0a40.64,40.64,0,0,1,40.63,0h0a40.6,40.6,0,0,1,20.3,35.19h0a40.64,40.64,0,0,1-20.32,35.18h0a40.63,40.63,0,0,1-40.62,0h0A40.63,40.63,0,0,1,392.93,211.27Z"/><path class="cls-24" d="M394.1,210.61h0a39.86,39.86,0,0,1,19.95-34.54h0a39.87,39.87,0,0,1,39.88,0h0a39.89,39.89,0,0,1,19.94,34.54h0a39.88,39.88,0,0,1-19.95,34.54h0a39.89,39.89,0,0,1-39.89,0h0A39.87,39.87,0,0,1,394.1,210.61Z"/><path class="cls-25" d="M395.26,210h0a39.17,39.17,0,0,1,19.58-33.9h0a39.14,39.14,0,0,1,39.15,0h0A39.15,39.15,0,0,1,473.56,210h0A39.17,39.17,0,0,1,454,243.86h0a39.14,39.14,0,0,1-39.15,0h0A39.15,39.15,0,0,1,395.26,210Z"/><path class="cls-26" d="M396.43,209.28h0A38.37,38.37,0,0,1,415.64,176h0a38.42,38.42,0,0,1,38.41,0h0a38.41,38.41,0,0,1,19.19,33.27h0A38.4,38.4,0,0,1,454,242.56h0a38.4,38.4,0,0,1-38.4,0h0A38.39,38.39,0,0,1,396.43,209.28Z"/><path class="cls-27" d="M397.59,208.62h0A37.69,37.69,0,0,1,416.44,176h0a37.67,37.67,0,0,1,37.66,0h0a37.67,37.67,0,0,1,18.83,32.63h0a37.67,37.67,0,0,1-18.84,32.62h0a37.69,37.69,0,0,1-37.67,0h0A37.69,37.69,0,0,1,397.59,208.62Z"/><path class="cls-28" d="M398.76,208h0a36.93,36.93,0,0,1,18.47-32h0a36.94,36.94,0,0,1,36.93,0h0a36.92,36.92,0,0,1,18.46,32h0a36.91,36.91,0,0,1-18.47,32h0a36.92,36.92,0,0,1-36.93,0h0A36.91,36.91,0,0,1,398.76,208Z"/><path class="cls-29" d="M399.93,207.3h0A36.18,36.18,0,0,1,418,176h0a36.19,36.19,0,0,1,36.19,0h0a36.19,36.19,0,0,1,18.09,31.34h0a36.22,36.22,0,0,1-18.1,31.34h0a36.19,36.19,0,0,1-36.19,0h0A36.15,36.15,0,0,1,399.93,207.3Z"/><path class="cls-30" d="M401.09,206.64h0a35.48,35.48,0,0,1,17.73-30.7h0a35.46,35.46,0,0,1,35.45,0h0A35.44,35.44,0,0,1,472,206.65h0a35.45,35.45,0,0,1-17.73,30.7h0a35.46,35.46,0,0,1-35.45,0h0A35.48,35.48,0,0,1,401.09,206.64Z"/><path class="cls-31" d="M402.26,206h0a34.69,34.69,0,0,1,17.36-30.05h0a34.71,34.71,0,0,1,34.71,0h0A34.73,34.73,0,0,1,471.68,206h0a34.7,34.7,0,0,1-17.36,30h0a34.71,34.71,0,0,1-34.71,0h0A34.73,34.73,0,0,1,402.26,206Z"/><path class="cls-32" d="M403.43,205.31h0a34,34,0,0,1,17-29.42h0a34,34,0,0,1,34,0h0a34,34,0,0,1,17,29.42h0a34,34,0,0,1-17,29.42h0a34,34,0,0,1-34,0h0A33.94,33.94,0,0,1,403.43,205.31Z"/><path class="cls-33" d="M404.59,204.65h0a33.25,33.25,0,0,1,16.62-28.78h0a33.23,33.23,0,0,1,33.23,0h0a33.2,33.2,0,0,1,16.61,28.78h0a33.23,33.23,0,0,1-16.62,28.78h0a33.23,33.23,0,0,1-33.23,0h0A33.24,33.24,0,0,1,404.59,204.65Z"/><path class="cls-34" d="M405.76,204h0A32.5,32.5,0,0,1,422,175.85h0a32.48,32.48,0,0,1,32.49,0h0A32.49,32.49,0,0,1,470.74,204h0a32.48,32.48,0,0,1-16.25,28.13h0a32.48,32.48,0,0,1-32.49,0h0A32.51,32.51,0,0,1,405.76,204Z"/><path class="cls-35" d="M406.92,203.32h0a31.76,31.76,0,0,1,15.89-27.49h0a31.76,31.76,0,0,1,31.75,0h0a31.78,31.78,0,0,1,15.87,27.51h0a31.75,31.75,0,0,1-15.88,27.49h0a31.73,31.73,0,0,1-31.75,0h0A31.74,31.74,0,0,1,406.92,203.32Z"/><path class="cls-36" d="M408.09,202.66h0a31,31,0,0,1,15.51-26.85h0a31,31,0,0,1,31,0h0a31,31,0,0,1,15.5,26.86h0a31,31,0,0,1-15.52,26.86h0a31,31,0,0,1-31,0h0A31,31,0,0,1,408.09,202.66Z"/><path class="cls-37" d="M409.26,202h0a30.27,30.27,0,0,1,15.14-26.22h0a30.28,30.28,0,0,1,30.27,0h0A30.25,30.25,0,0,1,469.8,202h0a30.24,30.24,0,0,1-15.14,26.21h0a30.26,30.26,0,0,1-30.27,0h0A30.27,30.27,0,0,1,409.26,202Z"/><path class="cls-38" d="M410.42,201.34h0a29.57,29.57,0,0,1,14.78-25.58h0a29.53,29.53,0,0,1,29.53,0h0a29.53,29.53,0,0,1,14.76,25.58h0a29.52,29.52,0,0,1-14.77,25.57h0a29.53,29.53,0,0,1-29.53,0h0A29.54,29.54,0,0,1,410.42,201.34Z"/><path class="cls-39" d="M411.59,200.67h0A28.79,28.79,0,0,1,426,175.74h0a28.8,28.8,0,0,1,28.8,0h0a28.8,28.8,0,0,1,14.39,24.94h0a28.79,28.79,0,0,1-14.4,24.93h0a28.8,28.8,0,0,1-28.8,0h0A28.78,28.78,0,0,1,411.59,200.67Z"/><path class="cls-40" d="M412.76,200h0a28,28,0,0,1,14-24.29h0a28.05,28.05,0,0,1,28,0h0a28,28,0,0,1,14,24.3h0a28.05,28.05,0,0,1-14,24.3h0a28.05,28.05,0,0,1-28.05,0h0A28,28,0,0,1,412.76,200Z"/><path class="cls-41" d="M413.92,199.35h0a27.3,27.3,0,0,1,13.66-23.65h0a27.32,27.32,0,0,1,27.32,0h0a27.32,27.32,0,0,1,13.65,23.66h0A27.31,27.31,0,0,1,454.89,223h0a27.32,27.32,0,0,1-27.32,0h0A27.32,27.32,0,0,1,413.92,199.35Z"/><path class="cls-42" d="M415.09,198.69h0a26.59,26.59,0,0,1,13.29-23h0a26.59,26.59,0,0,1,26.58,0h0a26.58,26.58,0,0,1,13.28,23h0a26.58,26.58,0,0,1-13.29,23h0a26.57,26.57,0,0,1-26.58,0h0A26.56,26.56,0,0,1,415.09,198.69Z"/><path class="cls-43" d="M416.25,198h0a25.85,25.85,0,0,1,12.93-22.37h0a25.83,25.83,0,0,1,25.83,0h0A25.81,25.81,0,0,1,467.93,198h0A25.87,25.87,0,0,1,455,220.41h0a25.83,25.83,0,0,1-25.83,0h0A25.86,25.86,0,0,1,416.25,198Z"/><path class="cls-44" d="M417.42,197.36h0A25.11,25.11,0,0,1,430,175.63h0a25.09,25.09,0,0,1,25.1,0h0a25.1,25.1,0,0,1,12.54,21.73h0a25.07,25.07,0,0,1-12.55,21.73h0a25.12,25.12,0,0,1-25.1,0h0A25.11,25.11,0,0,1,417.42,197.36Z"/><path class="cls-45" d="M418.59,196.7h0a24.35,24.35,0,0,1,12.18-21.09h0a24.37,24.37,0,0,1,24.36,0h0a24.39,24.39,0,0,1,12.17,21.1h0a24.37,24.37,0,0,1-12.18,21.09h0a24.37,24.37,0,0,1-24.36,0h0A24.39,24.39,0,0,1,418.59,196.7Z"/><path d="M419.75,196h0a23.62,23.62,0,0,1,11.82-20.45h0a23.6,23.6,0,0,1,23.61,0h0A23.62,23.62,0,0,1,467,196.05h0a23.63,23.63,0,0,1-11.82,20.45h0a23.62,23.62,0,0,1-23.61,0h0A23.61,23.61,0,0,1,419.75,196Z"/></g><polygon class="cls-46" points="364.06 110.65 364.06 155.22 402.66 177.5 441.26 155.22 441.26 110.65 402.66 88.36 364.06 110.65"/><polygon class="cls-47" points="366.46 112.03 366.46 153.83 402.66 174.73 438.86 153.83 438.86 112.03 402.66 91.13 366.46 112.03"/><polygon class="cls-48" points="110.97 39.11 110.97 83.68 72.37 105.97 33.77 83.68 33.77 39.11 72.37 16.83 110.97 39.11"/><polygon class="cls-47" points="108.57 40.5 108.57 82.3 72.37 103.2 36.17 82.3 36.17 40.5 72.37 19.6 108.57 40.5"/><polygon class="cls-49" points="151.29 110.09 151.29 154.66 112.69 176.94 74.09 154.66 74.09 110.09 112.69 87.8 151.29 110.09"/><polygon class="cls-47" points="148.89 111.47 148.89 153.27 112.69 174.17 76.49 153.27 76.49 111.47 112.69 90.57 148.89 111.47"/><polygon class="cls-50" points="110.47 179.94 110.47 224.51 71.87 246.8 33.27 224.51 33.27 179.94 71.87 157.66 110.47 179.94"/><polygon class="cls-47" points="108.07 181.33 108.07 223.13 71.87 244.02 35.67 223.13 35.67 181.33 71.87 160.43 108.07 181.33"/><circle class="cls-51" cx="257.85" cy="132.92" r="72.7"/><path class="cls-52" d="M218.41,82.5,212,73.65a75,75,0,0,0-23.44,32.25l10.4,3.38A63.9,63.9,0,0,1,218.41,82.5Z"/><path class="cls-52" d="M194.73,132.11a63.67,63.67,0,0,1,2.17-16.56l-10.4-3.38a75.25,75.25,0,0,0,0,39.88l10.4-3.38A63.67,63.67,0,0,1,194.73,132.11Z"/><path class="cls-52" d="M198.94,155l-10.4,3.37A74.92,74.92,0,0,0,212,190.57l6.43-8.85A63.87,63.87,0,0,1,198.94,155Z"/><path class="cls-52" d="M318.14,109.28l10.39-3.38a74.82,74.82,0,0,0-23.44-32.25l-6.43,8.85A63.84,63.84,0,0,1,318.14,109.28Z"/><path class="cls-52" d="M299.75,69.77a74.29,74.29,0,0,0-37.91-12.32V68.39a63.39,63.39,0,0,1,31.48,10.22Z"/><path class="cls-52" d="M330.58,112.17l-10.41,3.38a64,64,0,0,1,0,33.12l10.41,3.38a75.25,75.25,0,0,0,0-39.88Z"/><path class="cls-52" d="M298.66,181.72l6.43,8.85a74.76,74.76,0,0,0,23.44-32.25L318.14,155A63.81,63.81,0,0,1,298.66,181.72Z"/><path class="cls-52" d="M261.84,195.84v10.93a74.29,74.29,0,0,0,37.91-12.32l-6.43-8.84A63.4,63.4,0,0,1,261.84,195.84Z"/><path class="cls-52" d="M217.32,194.45a74.36,74.36,0,0,0,37.92,12.32V195.84a63.43,63.43,0,0,1-31.49-10.23Z"/><path class="cls-52" d="M223.75,78.61a63.42,63.42,0,0,1,31.49-10.22V57.45a74.36,74.36,0,0,0-37.92,12.32Z"/><g class="cls-4"><path class="cls-5" d="M150.29,161.09h0a88.5,88.5,0,0,1,44.27-76.63h0a88.48,88.48,0,0,1,88.49,0h0a88.5,88.5,0,0,1,44.24,76.65h0A88.5,88.5,0,0,1,283,237.76h0a88.48,88.48,0,0,1-88.49,0h0A88.5,88.5,0,0,1,150.29,161.09Z"/><path class="cls-53" d="M151.21,160.69h0a87.81,87.81,0,0,1,43.94-76.07h0a87.85,87.85,0,0,1,87.84,0h0a87.85,87.85,0,0,1,43.91,76.09h0A87.82,87.82,0,0,1,283,236.79h0a87.82,87.82,0,0,1-87.84,0h0A87.82,87.82,0,0,1,151.21,160.69Z"/><path class="cls-54" d="M152.12,160.28h0a87.2,87.2,0,0,1,43.62-75.51h0a87.21,87.21,0,0,1,87.2,0h0a87.19,87.19,0,0,1,43.58,75.52h0a87.2,87.2,0,0,1-43.61,75.51h0a87.18,87.18,0,0,1-87.2,0h0A87.2,87.2,0,0,1,152.12,160.28Z"/><path class="cls-55" d="M153,159.87h0a86.53,86.53,0,0,1,43.29-74.94h0a86.53,86.53,0,0,1,86.55,0h0a86.56,86.56,0,0,1,43.26,75h0a86.55,86.55,0,0,1-43.29,74.94h0a86.53,86.53,0,0,1-86.55,0h0A86.52,86.52,0,0,1,153,159.87Z"/><path class="cls-56" d="M154,159.47h0a85.93,85.93,0,0,1,43-74.39h0a85.92,85.92,0,0,1,85.9,0h0a85.9,85.9,0,0,1,42.93,74.4h0a85.88,85.88,0,0,1-43,74.38h0a85.9,85.9,0,0,1-85.9,0h0A85.89,85.89,0,0,1,154,159.47Z"/><path class="cls-57" d="M154.87,159.06h0a85.25,85.25,0,0,1,42.64-73.82h0a85.24,85.24,0,0,1,85.25,0h0a85.26,85.26,0,0,1,42.61,73.83h0a85.25,85.25,0,0,1-42.64,73.82h0a85.24,85.24,0,0,1-85.25,0h0A85.26,85.26,0,0,1,154.87,159.06Z"/><path class="cls-58" d="M155.79,158.65h0A84.56,84.56,0,0,1,198.1,85.4h0a84.61,84.61,0,0,1,84.6,0h0A84.6,84.6,0,0,1,325,158.69h0a84.56,84.56,0,0,1-42.31,73.25h0a84.61,84.61,0,0,1-84.6,0h0A84.6,84.6,0,0,1,155.79,158.65Z"/><path class="cls-59" d="M156.7,158.25h0a84,84,0,0,1,42-72.7h0a84,84,0,0,1,83.95,0h0a84,84,0,0,1,42,72.71h0a84,84,0,0,1-42,72.69h0a84,84,0,0,1-84,0h0A83.94,83.94,0,0,1,156.7,158.25Z"/><path class="cls-60" d="M157.62,157.84h0a83.27,83.27,0,0,1,41.66-72.13h0a83.28,83.28,0,0,1,83.3,0h0a83.3,83.3,0,0,1,41.64,72.14h0A83.3,83.3,0,0,1,282.55,230h0a83.3,83.3,0,0,1-83.3,0h0A83.3,83.3,0,0,1,157.62,157.84Z"/><path class="cls-61" d="M158.53,157.43h0a82.68,82.68,0,0,1,41.34-71.57h0a82.67,82.67,0,0,1,82.65,0h0a82.65,82.65,0,0,1,41.31,71.59h0A82.61,82.61,0,0,1,282.49,229h0a82.65,82.65,0,0,1-82.65,0h0A82.67,82.67,0,0,1,158.53,157.43Z"/><path class="cls-62" d="M159.45,157h0a82,82,0,0,1,41-71h0a82,82,0,0,1,82,0h0a82,82,0,0,1,41,71h0a82,82,0,0,1-41,71h0a82,82,0,0,1-82,0h0A82,82,0,0,1,159.45,157Z"/><path class="cls-63" d="M160.36,156.62h0a81.36,81.36,0,0,1,40.69-70.44h0a81.36,81.36,0,0,1,81.35,0h0a81.34,81.34,0,0,1,40.66,70.46h0a81.33,81.33,0,0,1-40.69,70.45h0a81.36,81.36,0,0,1-81.35,0h0A81.39,81.39,0,0,1,160.36,156.62Z"/><path class="cls-64" d="M161.28,156.21h0a80.69,80.69,0,0,1,40.36-69.88h0a80.7,80.7,0,0,1,80.7,0h0a80.7,80.7,0,0,1,40.34,69.9h0a80.71,80.71,0,0,1-40.36,69.88h0a80.7,80.7,0,0,1-80.7,0h0A80.69,80.69,0,0,1,161.28,156.21Z"/><path class="cls-65" d="M162.19,155.81h0a80.06,80.06,0,0,1,40-69.32h0a80,80,0,0,1,80,0h0a80,80,0,0,1,40,69.33h0a80,80,0,0,1-40,69.32h0a80,80,0,0,1-80,0h0A80,80,0,0,1,162.19,155.81Z"/><path class="cls-66" d="M163.11,155.4h0a79.36,79.36,0,0,1,39.71-68.75h0a79.39,79.39,0,0,1,79.4,0h0a79.38,79.38,0,0,1,39.69,68.77h0a79.39,79.39,0,0,1-39.71,68.76h0a79.39,79.39,0,0,1-79.4,0h0A79.38,79.38,0,0,1,163.11,155.4Z"/><path class="cls-67" d="M164,155h0A78.76,78.76,0,0,1,203.41,86.8h0a78.74,78.74,0,0,1,78.75,0h0A78.75,78.75,0,0,1,321.53,155h0a78.76,78.76,0,0,1-39.39,68.19h0a78.76,78.76,0,0,1-78.75,0h0A78.75,78.75,0,0,1,164,155Z"/><path class="cls-68" d="M164.94,154.59h0A78.11,78.11,0,0,1,204,87h0a78.11,78.11,0,0,1,78.1,0h0a78.1,78.1,0,0,1,39,67.65h0a78.09,78.09,0,0,1-39.06,67.63h0a78.08,78.08,0,0,1-78.1,0h0A78.09,78.09,0,0,1,164.94,154.59Z"/><path class="cls-69" d="M165.86,154.18h0a77.45,77.45,0,0,1,38.73-67.07h0a77.47,77.47,0,0,1,77.46,0h0a77.46,77.46,0,0,1,38.71,67.08h0A77.46,77.46,0,0,1,282,221.28h0a77.45,77.45,0,0,1-77.45,0h0A77.44,77.44,0,0,1,165.86,154.18Z"/><path class="cls-70" d="M166.77,153.77h0a76.82,76.82,0,0,1,38.41-66.5h0a76.84,76.84,0,0,1,76.81,0h0a76.8,76.8,0,0,1,38.38,66.52h0A76.78,76.78,0,0,1,282,220.31h0a76.8,76.8,0,0,1-76.8,0h0A76.81,76.81,0,0,1,166.77,153.77Z"/><path class="cls-71" d="M167.69,153.37h0a76.12,76.12,0,0,1,38.08-65.94h0a76.14,76.14,0,0,1,76.15,0h0a76.14,76.14,0,0,1,38.06,66h0a76.16,76.16,0,0,1-38.09,65.94h0a76.16,76.16,0,0,1-76.15,0h0A76.14,76.14,0,0,1,167.69,153.37Z"/><path class="cls-72" d="M168.6,153h0a75.51,75.51,0,0,1,37.77-65.38h0a75.51,75.51,0,0,1,75.5,0h0A75.51,75.51,0,0,1,319.61,153h0a75.49,75.49,0,0,1-37.77,65.38h0a75.51,75.51,0,0,1-75.5,0h0A75.52,75.52,0,0,1,168.6,153Z"/><path class="cls-73" d="M169.52,152.56h0A74.81,74.81,0,0,1,207,87.74h0a74.85,74.85,0,0,1,74.85,0h0a74.84,74.84,0,0,1,37.41,64.83h0a74.83,74.83,0,0,1-37.44,64.82h0a74.85,74.85,0,0,1-74.85,0h0A74.84,74.84,0,0,1,169.52,152.56Z"/><path class="cls-74" d="M170.43,152.15h0a74.23,74.23,0,0,1,37.12-64.26h0a74.2,74.2,0,0,1,74.2,0h0a74.21,74.21,0,0,1,37.09,64.27h0a74.19,74.19,0,0,1-37.12,64.25h0a74.2,74.2,0,0,1-74.2,0h0A74.23,74.23,0,0,1,170.43,152.15Z"/><path class="cls-75" d="M171.35,151.74h0a73.54,73.54,0,0,1,36.79-63.69h0a73.57,73.57,0,0,1,73.55,0h0a73.56,73.56,0,0,1,36.76,63.71h0a73.52,73.52,0,0,1-36.78,63.69h0a73.54,73.54,0,0,1-73.55,0h0A73.56,73.56,0,0,1,171.35,151.74Z"/><path class="cls-76" d="M172.26,151.34h0a72.92,72.92,0,0,1,36.47-63.13h0a72.89,72.89,0,0,1,72.9,0h0a72.91,72.91,0,0,1,36.44,63.14h0a72.93,72.93,0,0,1-36.46,63.13h0a72.91,72.91,0,0,1-72.91,0h0A72.93,72.93,0,0,1,172.26,151.34Z"/><path class="cls-77" d="M173.18,150.93h0a72.26,72.26,0,0,1,36.14-62.57h0a72.26,72.26,0,0,1,72.25,0h0A72.27,72.27,0,0,1,317.69,151h0a72.27,72.27,0,0,1-36.14,62.56h0a72.25,72.25,0,0,1-72.26,0h0A72.25,72.25,0,0,1,173.18,150.93Z"/><path class="cls-78" d="M174.09,150.52h0a71.61,71.61,0,0,1,35.82-62h0a71.6,71.6,0,0,1,71.6,0h0a71.61,71.61,0,0,1,35.79,62h0a71.59,71.59,0,0,1-35.81,62h0a71.59,71.59,0,0,1-71.61,0h0A71.62,71.62,0,0,1,174.09,150.52Z"/><path class="cls-79" d="M175,150.12h0A71,71,0,0,1,210.5,88.67h0a71,71,0,0,1,70.95,0h0a71,71,0,0,1,35.47,61.45h0a71,71,0,0,1-35.49,61.44h0a70.94,70.94,0,0,1-71,0h0A70.93,70.93,0,0,1,175,150.12Z"/><path class="cls-80" d="M175.92,149.71h0a70.32,70.32,0,0,1,35.17-60.88h0a70.31,70.31,0,0,1,70.3,0h0a70.31,70.31,0,0,1,35.14,60.9h0a70.32,70.32,0,0,1-35.16,60.88h0a70.31,70.31,0,0,1-70.3,0h0A70.31,70.31,0,0,1,175.92,149.71Z"/><path class="cls-81" d="M176.84,149.3h0A69.67,69.67,0,0,1,211.68,89h0a69.63,69.63,0,0,1,69.65,0h0a69.67,69.67,0,0,1,34.82,60.33h0a69.68,69.68,0,0,1-34.84,60.32h0a69.66,69.66,0,0,1-69.65,0h0A69.65,69.65,0,0,1,176.84,149.3Z"/><path class="cls-82" d="M177.76,148.9h0a69,69,0,0,1,34.51-59.76h0a69,69,0,0,1,69,0h0a69,69,0,0,1,34.5,59.76h0a69,69,0,0,1-34.52,59.76h0a69,69,0,0,1-69,0h0A69,69,0,0,1,177.76,148.9Z"/><path class="cls-83" d="M178.67,148.49h0A68.37,68.37,0,0,1,212.86,89.3h0a68.37,68.37,0,0,1,68.36,0h0a68.37,68.37,0,0,1,34.16,59.21h0a68.35,68.35,0,0,1-34.19,59.19h0a68.35,68.35,0,0,1-68.35,0h0A68.35,68.35,0,0,1,178.67,148.49Z"/><path class="cls-84" d="M179.59,148.08h0a67.68,67.68,0,0,1,33.86-58.62h0a67.71,67.71,0,0,1,67.71,0h0A67.72,67.72,0,0,1,315,148.11h0a67.72,67.72,0,0,1-33.87,58.63h0a67.69,67.69,0,0,1-67.7,0h0A67.67,67.67,0,0,1,179.59,148.08Z"/><path class="cls-85" d="M180.5,147.68h0A67.08,67.08,0,0,1,214,89.61h0a67.08,67.08,0,0,1,67.06,0h0a67.07,67.07,0,0,1,33.51,58.08h0a67.06,67.06,0,0,1-33.54,58.07h0a67.06,67.06,0,0,1-67,0h0A67.08,67.08,0,0,1,180.5,147.68Z"/><path class="cls-86" d="M181.42,147.27h0a66.39,66.39,0,0,1,33.21-57.5h0a66.4,66.4,0,0,1,66.41,0h0a66.43,66.43,0,0,1,33.19,57.52h0A66.43,66.43,0,0,1,281,204.8h0a66.42,66.42,0,0,1-66.41,0h0A66.41,66.41,0,0,1,181.42,147.27Z"/><path class="cls-87" d="M182.33,146.86h0a65.77,65.77,0,0,1,32.89-56.94h0a65.77,65.77,0,0,1,65.76,0h0a65.77,65.77,0,0,1,32.87,56.95h0A65.78,65.78,0,0,1,281,203.83h0a65.77,65.77,0,0,1-65.76,0h0A65.78,65.78,0,0,1,182.33,146.86Z"/><path class="cls-88" d="M183.25,146.46h0a65.12,65.12,0,0,1,32.56-56.38h0a65.11,65.11,0,0,1,65.11,0h0a65.1,65.1,0,0,1,32.54,56.39h0a65.12,65.12,0,0,1-32.56,56.38h0a65.11,65.11,0,0,1-65.11,0h0A65.1,65.1,0,0,1,183.25,146.46Z"/><path class="cls-89" d="M184.16,146.05h0A64.47,64.47,0,0,1,216.4,90.24h0a64.46,64.46,0,0,1,64.46,0h0a64.47,64.47,0,0,1,32.22,55.83h0a64.48,64.48,0,0,1-32.24,55.81h0a64.46,64.46,0,0,1-64.46,0h0A64.47,64.47,0,0,1,184.16,146.05Z"/><path class="cls-90" d="M185.08,145.64h0A63.81,63.81,0,0,1,217,90.39h0a63.83,63.83,0,0,1,63.81,0h0a63.81,63.81,0,0,1,31.89,55.27h0a63.79,63.79,0,0,1-31.91,55.25h0a63.8,63.8,0,0,1-63.81,0h0A63.79,63.79,0,0,1,185.08,145.64Z"/><path class="cls-91" d="M186,145.24h0a63.17,63.17,0,0,1,31.59-54.69h0a63.15,63.15,0,0,1,63.16,0h0a63.17,63.17,0,0,1,31.57,54.7h0A63.17,63.17,0,0,1,280.72,200h0a63.15,63.15,0,0,1-63.16,0h0A63.17,63.17,0,0,1,186,145.24Z"/><path class="cls-92" d="M186.91,144.83h0A62.52,62.52,0,0,1,218.17,90.7h0a62.52,62.52,0,0,1,62.51,0h0a62.51,62.51,0,0,1,31.25,54.14h0A62.52,62.52,0,0,1,280.66,199h0a62.52,62.52,0,0,1-62.51,0h0A62.53,62.53,0,0,1,186.91,144.83Z"/><path class="cls-93" d="M187.83,144.42h0a61.84,61.84,0,0,1,30.94-53.56h0a61.84,61.84,0,0,1,61.85,0h0a61.85,61.85,0,0,1,30.92,53.58h0A61.84,61.84,0,0,1,280.6,198h0a61.86,61.86,0,0,1-61.86,0h0A61.85,61.85,0,0,1,187.83,144.42Z"/><path class="cls-94" d="M188.74,144h0a61.22,61.22,0,0,1,30.62-53h0a61.19,61.19,0,0,1,61.2,0h0a61.21,61.21,0,0,1,30.6,53h0a61.22,61.22,0,0,1-30.62,53h0a61.21,61.21,0,0,1-61.21,0h0A61.22,61.22,0,0,1,188.74,144Z"/><path class="cls-95" d="M189.66,143.61h0A60.56,60.56,0,0,1,220,91.17h0a60.56,60.56,0,0,1,60.55,0h0a60.56,60.56,0,0,1,30.27,52.46h0a60.53,60.53,0,0,1-30.29,52.43h0a60.53,60.53,0,0,1-60.55,0h0A60.53,60.53,0,0,1,189.66,143.61Z"/><path class="cls-96" d="M190.57,143.21h0a59.92,59.92,0,0,1,30-51.88h0a59.9,59.9,0,0,1,59.9,0h0a59.92,59.92,0,0,1,29.95,51.89h0a59.91,59.91,0,0,1-30,51.87h0a59.88,59.88,0,0,1-59.9,0h0A59.89,59.89,0,0,1,190.57,143.21Z"/><path class="cls-97" d="M191.49,142.8h0a59.26,59.26,0,0,1,29.64-51.32h0a59.26,59.26,0,0,1,59.26,0h0A59.24,59.24,0,0,1,310,142.82h0a59.28,59.28,0,0,1-29.63,51.32h0a59.26,59.26,0,0,1-59.26,0h0A59.23,59.23,0,0,1,191.49,142.8Z"/><path class="cls-98" d="M192.4,142.39h0a58.62,58.62,0,0,1,29.32-50.75h0a58.63,58.63,0,0,1,58.61,0h0a58.63,58.63,0,0,1,29.29,50.76h0a58.62,58.62,0,0,1-29.31,50.75h0a58.61,58.61,0,0,1-58.61,0h0A58.62,58.62,0,0,1,192.4,142.39Z"/><path class="cls-99" d="M193.32,142h0a57.94,57.94,0,0,1,29-50.19h0a58,58,0,0,1,58,0h0a58,58,0,0,1,29,50.2h0a58,58,0,0,1-29,50.19h0a58,58,0,0,1-58,0h0A58,58,0,0,1,193.32,142Z"/><path class="cls-100" d="M194.23,141.58h0A57.32,57.32,0,0,1,222.9,92h0a57.32,57.32,0,0,1,57.31,0h0a57.31,57.31,0,0,1,28.64,49.64h0a57.31,57.31,0,0,1-28.66,49.63h0a57.32,57.32,0,0,1-57.31,0h0A57.33,57.33,0,0,1,194.23,141.58Z"/><path class="cls-101" d="M195.15,141.17h0a56.66,56.66,0,0,1,28.34-49.06h0a56.67,56.67,0,0,1,56.66,0h0a56.67,56.67,0,0,1,28.32,49.07h0a56.68,56.68,0,0,1-28.34,49.07h0a56.67,56.67,0,0,1-56.66,0h0A56.67,56.67,0,0,1,195.15,141.17Z"/><path class="cls-102" d="M196.06,140.77h0a56,56,0,0,1,28-48.5h0a56,56,0,0,1,56,0h0a56,56,0,0,1,28,48.51h0a56,56,0,0,1-28,48.5h0a56,56,0,0,1-56,0h0A56,56,0,0,1,196.06,140.77Z"/><path class="cls-103" d="M197,140.36h0a55.36,55.36,0,0,1,27.69-47.94h0a55.38,55.38,0,0,1,55.36,0h0a55.36,55.36,0,0,1,27.67,47.95h0A55.36,55.36,0,0,1,280,188.32h0a55.38,55.38,0,0,1-55.36,0h0A55.36,55.36,0,0,1,197,140.36Z"/><path class="cls-104" d="M197.9,140h0a54.7,54.7,0,0,1,27.36-47.37h0a54.7,54.7,0,0,1,54.71,0h0A54.7,54.7,0,0,1,307.32,140h0A54.73,54.73,0,0,1,280,187.35h0a54.7,54.7,0,0,1-54.71,0h0A54.71,54.71,0,0,1,197.9,140Z"/><path class="cls-105" d="M198.81,139.55h0a54.06,54.06,0,0,1,27-46.82h0a54.07,54.07,0,0,1,54.06,0h0a54,54,0,0,1,27,46.83h0a54,54,0,0,1-27,46.81h0a54.07,54.07,0,0,1-54.06,0h0A54.08,54.08,0,0,1,198.81,139.55Z"/><path class="cls-106" d="M199.73,139.14h0a53.4,53.4,0,0,1,26.71-46.25h0a53.41,53.41,0,0,1,53.41,0h0a53.41,53.41,0,0,1,26.7,46.26h0a53.43,53.43,0,0,1-26.72,46.25h0a53.41,53.41,0,0,1-53.41,0h0A53.4,53.4,0,0,1,199.73,139.14Z"/><path class="cls-107" d="M200.64,138.73h0A52.77,52.77,0,0,1,227,93.05h0a52.73,52.73,0,0,1,52.76,0h0a52.73,52.73,0,0,1,26.37,45.69h0a52.75,52.75,0,0,1-26.39,45.69h0a52.76,52.76,0,0,1-52.76,0h0A52.78,52.78,0,0,1,200.64,138.73Z"/><path class="cls-108" d="M201.56,138.33h0A52.12,52.12,0,0,1,227.62,93.2h0a52.13,52.13,0,0,1,52.11,0h0a52.13,52.13,0,0,1,26,45.14h0a52.11,52.11,0,0,1-26.06,45.12h0a52.12,52.12,0,0,1-52.12,0h0A52.09,52.09,0,0,1,201.56,138.33Z"/><path class="cls-109" d="M202.47,137.92h0a51.48,51.48,0,0,1,25.74-44.56h0a51.45,51.45,0,0,1,51.46,0h0a51.46,51.46,0,0,1,25.73,44.57h0a51.48,51.48,0,0,1-25.74,44.56h0a51.47,51.47,0,0,1-51.47,0h0A51.45,51.45,0,0,1,202.47,137.92Z"/><path class="cls-110" d="M203.39,137.51h0a50.82,50.82,0,0,1,25.41-44h0a50.82,50.82,0,0,1,50.81,0h0a50.81,50.81,0,0,1,25.4,44h0a50.8,50.8,0,0,1-25.41,44h0a50.79,50.79,0,0,1-50.81,0h0A50.79,50.79,0,0,1,203.39,137.51Z"/><path class="cls-111" d="M204.3,137.11h0a50.19,50.19,0,0,1,25.09-43.44h0a50.18,50.18,0,0,1,50.17,0h0a50.19,50.19,0,0,1,25.07,43.45h0a50.16,50.16,0,0,1-25.09,43.43h0a50.14,50.14,0,0,1-50.16,0h0A50.16,50.16,0,0,1,204.3,137.11Z"/><path class="cls-112" d="M205.22,136.7h0A49.49,49.49,0,0,1,230,93.83h0a49.52,49.52,0,0,1,49.52,0h0a49.49,49.49,0,0,1,24.74,42.88h0a49.49,49.49,0,0,1-24.76,42.87h0a49.48,49.48,0,0,1-49.51,0h0A49.5,49.5,0,0,1,205.22,136.7Z"/><path class="cls-113" d="M206.13,136.29h0A48.89,48.89,0,0,1,230.57,94h0a48.89,48.89,0,0,1,48.87,0h0a48.89,48.89,0,0,1,24.42,42.32h0a48.84,48.84,0,0,1-24.44,42.31h0a48.85,48.85,0,0,1-48.86,0h0A48.89,48.89,0,0,1,206.13,136.29Z"/><path class="cls-114" d="M207.05,135.89h0a48.22,48.22,0,0,1,24.11-41.75h0a48.21,48.21,0,0,1,48.22,0h0a48.22,48.22,0,0,1,24.1,41.76h0a48.24,48.24,0,0,1-24.12,41.75h0a48.24,48.24,0,0,1-48.21,0h0A48.23,48.23,0,0,1,207.05,135.89Z"/><path class="cls-115" d="M208,135.48h0a47.57,47.57,0,0,1,23.79-41.19h0a47.56,47.56,0,0,1,47.56,0h0a47.59,47.59,0,0,1,23.77,41.2h0a47.57,47.57,0,0,1-23.79,41.19h0a47.56,47.56,0,0,1-47.56,0h0A47.55,47.55,0,0,1,208,135.48Z"/><path class="cls-116" d="M208.88,135.07h0a46.9,46.9,0,0,1,23.47-40.62h0a46.91,46.91,0,0,1,46.91,0h0a46.92,46.92,0,0,1,23.45,40.63h0a46.94,46.94,0,0,1-23.47,40.63h0a46.93,46.93,0,0,1-46.91,0h0A46.94,46.94,0,0,1,208.88,135.07Z"/><path class="cls-117" d="M209.8,134.67h0a46.24,46.24,0,0,1,23.14-40.06h0a46.25,46.25,0,0,1,46.26,0h0a46.24,46.24,0,0,1,23.12,40.07h0a46.25,46.25,0,0,1-23.14,40.06h0a46.25,46.25,0,0,1-46.26,0h0A46.25,46.25,0,0,1,209.8,134.67Z"/><path class="cls-118" d="M210.71,134.26h0a45.62,45.62,0,0,1,22.82-39.5h0a45.62,45.62,0,0,1,45.61,0h0a45.62,45.62,0,0,1,22.8,39.51h0a45.6,45.6,0,0,1-22.82,39.5h0a45.62,45.62,0,0,1-45.61,0h0A45.62,45.62,0,0,1,210.71,134.26Z"/><path class="cls-119" d="M211.63,133.85h0a44.94,44.94,0,0,1,22.49-38.93h0a44.94,44.94,0,0,1,45,0h0a45,45,0,0,1,22.48,38.94h0a45,45,0,0,1-22.49,38.94h0a45,45,0,0,1-45,0h0A45,45,0,0,1,211.63,133.85Z"/><path class="cls-120" d="M212.54,133.45h0a44.33,44.33,0,0,1,22.17-38.37h0a44.31,44.31,0,0,1,44.31,0h0a44.33,44.33,0,0,1,22.15,38.39h0A44.3,44.3,0,0,1,279,171.84h0a44.33,44.33,0,0,1-44.32,0h0A44.32,44.32,0,0,1,212.54,133.45Z"/><path class="cls-121" d="M213.46,133h0A43.66,43.66,0,0,1,235.3,95.23h0a43.66,43.66,0,0,1,43.66,0h0a43.67,43.67,0,0,1,21.83,37.82h0A43.68,43.68,0,0,1,279,170.87h0a43.67,43.67,0,0,1-43.67,0h0A43.64,43.64,0,0,1,213.46,133Z"/><path class="cls-122" d="M214.37,132.64h0a43,43,0,0,1,21.52-37.25h0a43,43,0,0,1,43,0h0a43,43,0,0,1,21.5,37.25h0a43,43,0,0,1-21.51,37.25h0a43,43,0,0,1-43,0h0A43,43,0,0,1,214.37,132.64Z"/><path class="cls-123" d="M215.29,132.23h0a42.37,42.37,0,0,1,21.19-36.69h0a42.37,42.37,0,0,1,42.36,0h0A42.37,42.37,0,0,1,300,132.25h0a42.35,42.35,0,0,1-21.19,36.68h0a42.36,42.36,0,0,1-42.37,0h0A42.38,42.38,0,0,1,215.29,132.23Z"/><path class="cls-124" d="M216.2,131.82h0A41.73,41.73,0,0,1,237.07,95.7h0a41.69,41.69,0,0,1,41.71,0h0a41.69,41.69,0,0,1,20.85,36.13h0A41.7,41.7,0,0,1,278.77,168h0a41.71,41.71,0,0,1-41.72,0h0A41.72,41.72,0,0,1,216.2,131.82Z"/><path class="cls-125" d="M217.12,131.42h0a41,41,0,0,1,20.54-35.56h0a41.08,41.08,0,0,1,41.07,0h0a41.08,41.08,0,0,1,20.52,35.57h0A41.05,41.05,0,0,1,278.71,167h0a41.06,41.06,0,0,1-41.06,0h0A41,41,0,0,1,217.12,131.42Z"/><path class="cls-126" d="M218,131h0a40.4,40.4,0,0,1,20.21-35h0a40.45,40.45,0,0,1,40.42,0h0a40.43,40.43,0,0,1,20.2,35h0a40.43,40.43,0,0,1-20.22,35h0a40.38,40.38,0,0,1-40.41,0h0A40.37,40.37,0,0,1,218,131Z"/><path class="cls-127" d="M219,130.6h0a39.77,39.77,0,0,1,19.89-34.43h0a39.77,39.77,0,0,1,39.77,0h0a39.74,39.74,0,0,1,19.87,34.44h0a39.74,39.74,0,0,1-19.89,34.43h0a39.75,39.75,0,0,1-39.76,0h0A39.74,39.74,0,0,1,219,130.6Z"/><path class="cls-128" d="M219.87,130.2h0a39.13,39.13,0,0,1,19.56-33.88h0a39.14,39.14,0,0,1,39.12,0h0a39.13,39.13,0,0,1,19.55,33.88h0a39.09,39.09,0,0,1-19.57,33.87h0a39.09,39.09,0,0,1-39.11,0h0A39.11,39.11,0,0,1,219.87,130.2Z"/><path class="cls-129" d="M220.78,129.79h0A38.47,38.47,0,0,1,240,96.48h0a38.46,38.46,0,0,1,38.47,0h0a38.43,38.43,0,0,1,19.22,33.31h0a38.44,38.44,0,0,1-19.24,33.31h0a38.46,38.46,0,0,1-38.46,0h0A38.49,38.49,0,0,1,220.78,129.79Z"/><path class="cls-130" d="M221.7,129.38h0a37.8,37.8,0,0,1,18.91-32.74h0a37.82,37.82,0,0,1,37.82,0h0a37.83,37.83,0,0,1,18.9,32.76h0a37.8,37.8,0,0,1-18.91,32.74h0a37.82,37.82,0,0,1-37.82,0h0A37.81,37.81,0,0,1,221.7,129.38Z"/><path class="cls-131" d="M222.61,129h0A37.2,37.2,0,0,1,241.2,96.79h0a37.19,37.19,0,0,1,37.17,0h0A37.17,37.17,0,0,1,297,129h0a37.2,37.2,0,0,1-18.59,32.19h0a37.19,37.19,0,0,1-37.17,0h0A37.17,37.17,0,0,1,222.61,129Z"/><path class="cls-132" d="M223.53,128.57h0A36.5,36.5,0,0,1,241.79,97h0a36.51,36.51,0,0,1,36.52,0h0a36.48,36.48,0,0,1,18.25,31.62h0a36.53,36.53,0,0,1-18.26,31.63h0a36.54,36.54,0,0,1-36.52,0h0A36.52,36.52,0,0,1,223.53,128.57Z"/><path d="M224.44,128.16h0A35.89,35.89,0,0,1,242.38,97.1h0a35.88,35.88,0,0,1,35.87,0h0a35.87,35.87,0,0,1,17.93,31.07h0a35.87,35.87,0,0,1-17.94,31.06h0a35.88,35.88,0,0,1-35.87,0h0A35.87,35.87,0,0,1,224.44,128.16Z"/></g><ellipse class="cls-133" cx="258.54" cy="131.99" rx="68.64" ry="68.72"/><ellipse class="cls-47" cx="258.54" cy="132.11" rx="65.87" ry="65.95"/><path class="cls-134" d="M171.45,130.8l-8.2-.06H148.66a2.79,2.79,0,1,0,0,.55l14.81,0,8,0a2.83,2.83,0,1,0,0-.49Z"/><path class="cls-134" d="M105.65,63.41a2.78,2.78,0,0,0,2.77-2.55h58.11l16.58,14.42a2.75,2.75,0,0,0-.79,1.94,2.8,2.8,0,1,0,2.8-2.8,2.75,2.75,0,0,0-1.6.51L166.59,60.3H108.41a2.79,2.79,0,1,0-2.76,3.11Z"/><path class="cls-134" d="M166.59,203.93l16.93-14.64a2.75,2.75,0,0,0,1.6.51,2.8,2.8,0,1,0-2.8-2.8,2.75,2.75,0,0,0,.79,1.94l-16.58,14.43h-58a2.8,2.8,0,1,0,0,.56Z"/><path class="cls-134" d="M367.42,130.74H352.84l-8.2.06a2.82,2.82,0,1,0,0,.49l8,0,14.8,0a2.8,2.8,0,1,0,0-.55Z"/><path class="cls-134" d="M350.49,60.3,333.56,74.93a2.75,2.75,0,0,0-1.6-.51,2.8,2.8,0,1,0,2.8,2.8,2.75,2.75,0,0,0-.79-1.94l16.58-14.42h57a2.81,2.81,0,1,0,0-.56Z"/><path class="cls-134" d="M410.5,200.81a2.79,2.79,0,0,0-2.77,2.56H350.55L334,188.94a2.75,2.75,0,0,0,.79-1.94,2.8,2.8,0,1,0-2.8,2.8,2.75,2.75,0,0,0,1.6-.51l16.93,14.64h57.25a2.79,2.79,0,1,0,2.76-3.12Z"/><polygon class="cls-135" points="404.88 40.12 404.88 84.69 443.48 106.97 482.08 84.69 482.08 40.12 443.48 17.83 404.88 40.12"/><polygon class="cls-47" points="407.28 41.5 407.28 83.3 443.48 104.2 479.68 83.3 479.68 41.5 443.48 20.6 407.28 41.5"/><polygon class="cls-136" points="403.63 179.04 403.63 223.61 442.23 245.9 480.83 223.61 480.83 179.04 442.23 156.76 403.63 179.04"/><polygon class="cls-47" points="406.03 180.43 406.03 222.23 442.23 243.13 478.43 222.23 478.43 180.43 442.23 159.53 406.03 180.43"/><path class="cls-137" d="M233.75,121a24.29,24.29,0,0,1,8.91-9.28,25.58,25.58,0,0,1,9-3.52c.44-.08,1,0,1.34-.46h25.35l1.92,1c-.44.08-.88.13-1.3.25q-15.4,4.09-30.81,8.22-7.18,1.94-14.36,3.91A.19.19,0,0,1,233.75,121Z"/><path class="cls-138" d="M283.41,138.19c-.5.47-.39,1.14-.52,1.72a26.1,26.1,0,0,1-12.56,17.46c.08-2.2.92-4.22,1.47-6.31q4.35-16.47,8.83-32.9c.61-2.25.91-4.59,2-6.68l.76,1.36Z"/><path class="cls-139" d="M282,110.39a2.11,2.11,0,0,1,.65,1.09c-1.11,2.09-1.41,4.43-2,6.68q-4.47,16.44-8.83,32.9c-.55,2.09-1.39,4.11-1.47,6.31l-.49.06a8,8,0,0,0-.33-.86,27.13,27.13,0,0,1-2.43-18c.28-1.49,1.12-2.81,1.11-4.35,2.94-5.11,5.85-10.23,8.81-15.32C278.65,116,280.16,113.1,282,110.39Z"/><path class="cls-140" d="M268.19,134.17c0,1.54-.83,2.86-1.11,4.35a27.13,27.13,0,0,0,2.43,18,8,8,0,0,1,.33.86.82.82,0,0,1-.5.57,26.05,26.05,0,0,1-16.61,2.82,1.61,1.61,0,0,0,0-.22,9.83,9.83,0,0,0,1.46-2.35c3.82-6.59,7.66-13.16,11.43-19.78.64-1.13,1.63-2.11,1.77-3.5h0l.26-.36Z"/><path class="cls-141" d="M230.37,138.22a23.58,23.58,0,0,1,.66-11,19,19,0,0,1,2.72-6.16.19.19,0,0,0,0,.14,26.05,26.05,0,0,0,17.57,3.21c1.93-.27,3.73-1.05,5.64-1.4a.54.54,0,0,1-.48.55l-.33.26h0a.48.48,0,0,0-.54.28h0a2.54,2.54,0,0,0-1.34.53c-6.58,3.81-13.14,7.66-19.76,11.42C233.2,136.79,232,137.88,230.37,138.22Z"/><path class="cls-142" d="M230.37,138.22c1.6-.34,2.83-1.43,4.2-2.21,6.62-3.76,13.18-7.61,19.76-11.42a2.54,2.54,0,0,1,1.34-.53c0,.52-.4.77-.71,1.07a24.16,24.16,0,0,0-4.11,5.18A26.77,26.77,0,0,0,246.92,144l-.09.19-.51.1a54.47,54.47,0,0,1-7.16-1.26,37.17,37.17,0,0,1-8.74-4.41Z"/><path class="cls-143" d="M246.32,144.33l.51-.1a.88.88,0,0,0,.2.09,26.75,26.75,0,0,0,.61,5.92,24.17,24.17,0,0,0,5.09,10.36,1.61,1.61,0,0,1,0,.22,25.21,25.21,0,0,1-15-7.67c2.92-2.59,5.56-5.47,8.33-8.22C246.22,144.79,246.24,144.54,246.32,144.33Z"/><path class="cls-144" d="M246.32,144.33c-.08.21-.1.46-.24.6-2.77,2.75-5.41,5.63-8.33,8.22a24.83,24.83,0,0,1-7.33-14.49,37.17,37.17,0,0,0,8.74,4.41A54.47,54.47,0,0,0,246.32,144.33Z"/><path class="cls-145" d="M257,123c-1.91.35-3.71,1.13-5.64,1.4a26.05,26.05,0,0,1-17.57-3.21q7.17-2,14.36-3.91Q263.54,113.13,279,109c.42-.12.86-.17,1.3-.25l.68.49c-.74.4-1.5.77-2.23,1.19l-21.17,12.26-.29.2Z"/><path class="cls-146" d="M247,144.32a.88.88,0,0,1-.2-.09l.09-.19c.2-.17.42-.32.61-.5l33.09-33.1c.25-.25.46-.53.69-.8a1.48,1.48,0,0,1,.69.75c-1.84,2.71-3.35,5.62-5,8.46-3,5.09-5.87,10.21-8.81,15.32l-.55.45-.26.36h0a5,5,0,0,0-.61.51A27.07,27.07,0,0,1,247,144.32Z"/><path class="cls-147" d="M281.31,109.64c-.23.27-.44.55-.69.8l-33.09,33.1c-.19.18-.41.33-.61.5a26.77,26.77,0,0,1,3.93-13.73,24.16,24.16,0,0,1,4.11-5.18c.31-.3.72-.55.71-1.07h0a.49.49,0,0,0,.54-.28h0l.33-.26A.54.54,0,0,0,257,123l.25,0,.29-.2,21.17-12.26c.73-.42,1.49-.79,2.23-1.19Z"/><path class="cls-148" d="M247,144.32a27.07,27.07,0,0,0,19.75-8.84,5,5,0,0,1,.61-.51c-.14,1.39-1.13,2.37-1.77,3.5-3.77,6.62-7.61,13.19-11.43,19.78a9.83,9.83,0,0,1-1.46,2.35,24.17,24.17,0,0,1-5.09-10.36A26.75,26.75,0,0,1,247,144.32Z"/><path class="cls-147" d="M460,56.48c0,1.88,0,3.77,0,5.65a16.31,16.31,0,0,1-4.17,11.23,15.93,15.93,0,0,1-9.49,5.33,16.54,16.54,0,0,1-19.18-13.41,16.54,16.54,0,0,1,16.34-19.43h12.23A4.13,4.13,0,0,1,460,50.1C460,52.23,460,54.35,460,56.48Zm-9,6.65c0-.35,0-.7,0-1.05a15.34,15.34,0,0,0-.12-2.79,7.56,7.56,0,0,0-8.39-6A7.45,7.45,0,0,0,436,59.68a43.26,43.26,0,0,0-.06,6.54,2.4,2.4,0,0,0,2.38,2.19c.64,0,1.27,0,1.91,0,.29,0,.33-.1.33-.35q0-2.61,0-5.22c0-.29-.09-.35-.37-.35-.77,0-1.54,0-2.31,0-.15,0-.27,0-.27-.2a23,23,0,0,1,.07-2.35,5.92,5.92,0,0,1,11.6-.63,13,13,0,0,1,.19,3c0,.22-.14.2-.27.2-.79,0-1.57,0-2.35,0-.27,0-.32.09-.32.33q0,2.64,0,5.28c0,.25.07.31.31.3.45,0,.91,0,1.36,0,.26,0,.33.08.3.34a2.29,2.29,0,0,1-2.28,2.1c-.7,0-1.41,0-2.11,0-.27,0-.51.05-.52.35s.24.38.5.38c.68,0,1.36,0,2,0a3,3,0,0,0,3.07-3,.29.29,0,0,1,.22-.31,2.5,2.5,0,0,0,1.66-2.46C451,64.93,451.05,64,451.05,63.13Z"/><path class="cls-149" d="M451.05,63.13c0,.9,0,1.8,0,2.7a2.5,2.5,0,0,1-1.66,2.46.29.29,0,0,0-.22.31,3,3,0,0,1-3.07,3c-.68,0-1.36,0-2,0-.26,0-.51-.07-.5-.38s.25-.35.52-.35c.7,0,1.41,0,2.11,0a2.29,2.29,0,0,0,2.28-2.1c0-.26,0-.35-.3-.34-.45,0-.91,0-1.36,0-.24,0-.31,0-.31-.3q0-2.64,0-5.28c0-.24.05-.33.32-.33.78,0,1.56,0,2.35,0,.13,0,.28,0,.27-.2a13,13,0,0,0-.19-3,5.92,5.92,0,0,0-11.6.63,23,23,0,0,0-.07,2.35c0,.21.12.2.27.2.77,0,1.54,0,2.31,0,.28,0,.38.06.37.35q0,2.61,0,5.22c0,.25,0,.36-.33.35-.64,0-1.27,0-1.91,0a2.4,2.4,0,0,1-2.38-2.19,43.26,43.26,0,0,1,.06-6.54,7.45,7.45,0,0,1,6.56-6.41,7.56,7.56,0,0,1,8.39,6,15.34,15.34,0,0,1,.12,2.79C451.05,62.43,451.05,62.78,451.05,63.13Z"/><path class="cls-150" d="M407.73,116.56c2.75,0,5,0,7.23,0a3.93,3.93,0,0,1,4.08,4.1c0,4.24,0,8.47,0,12.7a16.39,16.39,0,1,1-19.42-16.55C402.48,116.29,405.37,116.71,407.73,116.56ZM400,134.75c1.1,0,2.21,0,3.31,0,.74,0,.82.2.58.85-.52,1.47-1,3-1.46,4.44-.11.36-.35.81.14,1s.6-.26.8-.53l5.79-8c.22-.3.57-.6.34-1s-.67-.33-1.05-.33c-2.1,0-4.19,0-6.29,0-.76,0-1-.11-.71-.93.55-1.46,1-3,1.47-4.44.11-.32.29-.74-.11-1s-.62.18-.82.46q-3,4.1-5.9,8.21c-.2.28-.49.56-.24,1s.52.31.85.31Z"/><path class="cls-151" d="M400,134.75h-3.3c-.33,0-.65,0-.85-.31s0-.68.24-1q2.94-4.11,5.9-8.21c.2-.28.4-.7.82-.46s.22.64.11,1c-.47,1.49-.92,3-1.47,4.44-.31.82,0,.94.71.93,2.1,0,4.19,0,6.29,0,.38,0,.82-.09,1.05.33s-.12.74-.34,1l-5.79,8c-.2.27-.38.72-.8.53s-.25-.68-.14-1c.47-1.48.94-3,1.46-4.44.24-.65.16-.89-.58-.85C402.22,134.78,401.11,134.75,400,134.75Z"/><path class="cls-152" d="M77.68,185.88h6.25a4.1,4.1,0,0,1,4.29,4.28c0,4.05,0,8.1,0,12.14A16.34,16.34,0,1,1,72,185.88Zm-11.19,8.3H65.16c-1,0-1.35.38-1.34,1.32A14.05,14.05,0,0,0,65.94,203a14.73,14.73,0,0,0,12.72,7.3c.85,0,1.25-.4,1.26-1.26V206.3a1.1,1.1,0,0,0-1.22-1.25,9,9,0,0,1-2.91-.51,1.06,1.06,0,0,0-1.21.27c-.48.47-1,.95-1.44,1.45a.41.41,0,0,1-.61.08,13.48,13.48,0,0,1-4.79-4.73.45.45,0,0,1,.12-.66c.45-.41.89-.85,1.34-1.26a1.31,1.31,0,0,0,.43-1.39,11,11,0,0,1-.5-3,1.08,1.08,0,0,0-1.21-1.1C67.45,194.17,67,194.18,66.49,194.18Z"/><path class="cls-153" d="M66.49,194.18c.48,0,1,0,1.43,0a1.08,1.08,0,0,1,1.21,1.1,11,11,0,0,0,.5,3,1.31,1.31,0,0,1-.43,1.39c-.45.41-.89.85-1.34,1.26a.45.45,0,0,0-.12.66,13.48,13.48,0,0,0,4.79,4.73.41.41,0,0,0,.61-.08c.47-.5,1-1,1.44-1.45a1.06,1.06,0,0,1,1.21-.27,9,9,0,0,0,2.91.51,1.1,1.1,0,0,1,1.22,1.25V209c0,.86-.41,1.28-1.26,1.26A14.73,14.73,0,0,1,65.94,203a14.05,14.05,0,0,1-2.12-7.47c0-.94.39-1.32,1.34-1.32Z"/><path class="cls-154" d="M110.85,115.71h15.44a.54.54,0,0,0,.18.1,4.14,4.14,0,0,1,3.26,4.25c0,4.15,0,8.3,0,12.44a15.87,15.87,0,0,1-5.68,12.3,17.14,17.14,0,0,1-28-9,21,21,0,0,0-.42-2.37v-2.22a5.06,5.06,0,0,0,.25-1.49,16.86,16.86,0,0,1,13-13.65A13,13,0,0,0,110.85,115.71Zm1.41,25a8.82,8.82,0,0,0,7.6-3.76.64.64,0,0,0,0-.84,8.67,8.67,0,0,0-14.3.06.62.62,0,0,0,0,.79A8.34,8.34,0,0,0,112.26,140.71Zm.42-10.1a3.29,3.29,0,1,0-3.36-3.28A3.31,3.31,0,0,0,112.68,130.61Z"/><path class="cls-155" d="M112.26,140.71a8.34,8.34,0,0,1-6.67-3.75.62.62,0,0,1,0-.79,8.67,8.67,0,0,1,14.3-.06.64.64,0,0,1,0,.84A8.82,8.82,0,0,1,112.26,140.71Z"/><path class="cls-155" d="M112.68,130.61a3.29,3.29,0,1,1,.09-6.57,3.29,3.29,0,1,1-.09,6.57Z"/><path class="cls-156" d="M89.27,64.8a15,15,0,0,1-1.75,4.79,17.21,17.21,0,0,1-29.8.75,16.54,16.54,0,0,1-2.2-12.18,16.75,16.75,0,0,1,7.92-11.45,16,16,0,0,1,8.2-2.48c.16.18.37.11.56.11h13c.19,0,.4.07.56-.1a4.3,4.3,0,0,1,2.58,1.18,4.82,4.82,0,0,1,1.13,3.17c.38,5.65-.07,8.61,0,13.1A15.8,15.8,0,0,1,89.27,64.8Zm-24.21-4,.42.47c1.73,1.72,3.45,3.45,5.18,5.16a.88.88,0,0,1,.27.66c0,.85,0,1.7,0,2.55,0,.28.08.38.37.38q1.11,0,2.22,0c.33,0,.38-.14.38-.42,0-.85,0-1.7,0-2.55a.69.69,0,0,1,.22-.57c1.3-1.28,2.58-2.58,3.87-3.87.58-.57,1.14-1.16,1.79-1.81Zm7.48-1.21a3.38,3.38,0,1,0-3.38-3.39A3.39,3.39,0,0,0,72.54,59.55Z"/><path class="cls-157" d="M85.74,44.24c-.16.17-.37.1-.56.1h-13c-.19,0-.4.07-.56-.11.2,0,.39,0,.59,0h13A4.55,4.55,0,0,1,85.74,44.24Z"/><path class="cls-158" d="M65.06,60.76h14.7c-.65.65-1.21,1.24-1.79,1.81-1.29,1.29-2.57,2.59-3.87,3.87a.69.69,0,0,0-.22.57c0,.85,0,1.7,0,2.55,0,.28,0,.43-.38.42q-1.11,0-2.22,0c-.29,0-.38-.1-.37-.38,0-.85,0-1.7,0-2.55a.88.88,0,0,0-.27-.66c-1.73-1.71-3.45-3.44-5.18-5.16Z"/><path class="cls-159" d="M72.54,59.55A3.38,3.38,0,1,1,76,56.21,3.41,3.41,0,0,1,72.54,59.55Z"/><path class="cls-160" d="M458.26,189.57q0,3.15,0,6.28c0,2,0,4.07,0,6.1A16.12,16.12,0,0,1,445,217.62a15.73,15.73,0,0,1-14.39-4.46,15.52,15.52,0,0,1-4.68-10,16.18,16.18,0,0,1,12.73-17.36,14.94,14.94,0,0,1,3.2-.35c4.13,0,8.25,0,12.38,0a4,4,0,0,1,4,3.52,4.47,4.47,0,0,1,0,.52l0,0Zm-16.73,17.35h0c1.85,0,3.69,0,5.53,0a4,4,0,0,0,4-3.7,37.12,37.12,0,0,0,0-4.22,4.1,4.1,0,0,0-4.28-4c-2.56.08-5.12.07-7.68,0a4.13,4.13,0,0,0-4.26,4.24c.06,2.21,0,4.41,0,6.61,0,.8.28,1.09,1.06,1.09Z"/><path class="cls-161" d="M441.53,206.92H436c-.78,0-1.06-.29-1.06-1.09,0-2.2,0-4.4,0-6.61a4.13,4.13,0,0,1,4.26-4.24c2.56.06,5.12.07,7.68,0a4.1,4.1,0,0,1,4.28,4,37.12,37.12,0,0,1,0,4.22,4,4,0,0,1-4,3.7c-1.84,0-3.68,0-5.53,0Zm1.45-7.06h2.67c.69,0,1.37,0,2.06,0a.81.81,0,0,0,.81-.8.76.76,0,0,0-.8-.75h-9.17a1.45,1.45,0,0,0-.65.09.75.75,0,0,0,.08,1.4,1.74,1.74,0,0,0,.51.06Zm-1.8,3.8H444c.58,0,.88-.26.89-.73s-.29-.79-.89-.79h-5.61a.84.84,0,0,0-.92.8c0,.45.35.71.91.72Z"/><path class="cls-162" d="M443,199.86h-4.49a1.74,1.74,0,0,1-.51-.06.75.75,0,0,1-.08-1.4,1.45,1.45,0,0,1,.65-.09h9.17a.76.76,0,0,1,.8.75.81.81,0,0,1-.81.8c-.69,0-1.37,0-2.06,0Z"/><path class="cls-163" d="M441.18,203.66h-2.81c-.56,0-.89-.27-.91-.72a.84.84,0,0,1,.92-.8H444c.6,0,.91.29.89.79s-.31.72-.89.73Z"/></g></g></g></svg>