<svg width="1014" height="273" viewBox="0 0 1014 273" fill="none" xmlns="http://www.w3.org/2000/svg">
<g clip-path="url(#clip0)">
<path d="M731.45 186.68C731.379 191.471 729.575 196.074 726.373 199.638C723.171 203.202 718.786 205.486 714.03 206.068C709.274 206.65 704.468 205.49 700.501 202.803C696.534 200.115 693.674 196.083 692.45 191.45L589.66 191.75C568.66 238.8 518.05 272.02 458.92 272.19C381.5 272.42 318.44 215.92 316.99 145.56L337.56 145.5C338.64 145.44 340.23 145.43 342.56 145.41C346.04 145.41 350.68 145.41 355.44 145.41C363.58 145.41 372.02 145.41 375.35 145.46L386.09 123.81C386.33 123.317 386.708 122.906 387.178 122.625C387.648 122.345 388.19 122.208 388.737 122.231C389.284 122.254 389.813 122.437 390.257 122.757C390.702 123.076 391.044 123.519 391.24 124.03L405.63 160.16L425 95.6999C425.186 95.0833 425.576 94.5487 426.107 94.1848C426.639 93.821 427.278 93.6499 427.92 93.6999C428.568 93.7508 429.179 94.0214 429.652 94.467C430.125 94.9126 430.431 95.5064 430.52 96.15L442.41 173.66L456.22 140.48C456.433 139.961 456.794 139.516 457.258 139.201C457.722 138.886 458.269 138.715 458.83 138.71L498.83 138.59C499.272 136.272 500.543 134.195 502.405 132.746C504.267 131.297 506.593 130.575 508.949 130.716C511.304 130.857 513.527 131.851 515.203 133.512C516.879 135.173 517.893 137.387 518.055 139.741C518.218 142.095 517.517 144.427 516.085 146.302C514.653 148.178 512.587 149.467 510.274 149.93C507.96 150.393 505.557 149.998 503.514 148.818C501.47 147.638 499.926 145.755 499.17 143.52L460.12 143.64L444.12 182.05C443.908 182.566 443.548 183.009 443.086 183.322C442.623 183.635 442.079 183.805 441.52 183.81H441.15C440.532 183.726 439.957 183.443 439.515 183.002C439.072 182.562 438.786 181.988 438.7 181.37L427.06 105.54L408.65 167C408.493 167.572 408.158 168.08 407.694 168.45C407.23 168.82 406.66 169.034 406.067 169.06C405.475 169.087 404.888 168.925 404.393 168.598C403.898 168.271 403.519 167.796 403.31 167.24L388.47 130L379.12 148.84C378.889 149.317 378.528 149.719 378.079 150C377.63 150.281 377.11 150.43 376.58 150.43C363.2 150.36 348.63 150.33 341.52 150.43C342.388 161.784 345.276 172.892 350.05 183.23C367.68 221.63 409.85 248.67 458.86 248.52C507.87 248.37 549.86 221.09 567.27 182.59L692.43 182.22C693.659 177.617 696.503 173.61 700.443 170.931C704.383 168.252 709.156 167.08 713.888 167.63C718.621 168.179 722.997 170.414 726.218 173.924C729.439 177.435 731.289 181.988 731.43 186.75L731.45 186.68Z" fill="#00B0AD"/>
<path d="M592.17 91.28H565.72C547.35 52.37 506.28 25.2 458.72 25.2C419.57 25.2 384.86 43.57 363.54 71.73C361.54 74.37 359.66 77.11 357.9 79.92H222.39C221.379 84.6333 218.659 88.8056 214.755 91.6335C210.851 94.4613 206.039 95.7446 201.245 95.2361C196.452 94.7276 192.016 92.4634 188.792 88.8795C185.568 85.2956 183.784 80.6455 183.784 75.825C183.784 71.0045 185.568 66.3544 188.792 62.7705C192.016 59.1866 196.452 56.9224 201.245 56.4139C206.039 55.9054 210.851 57.1887 214.755 60.0165C218.659 62.8444 221.379 67.0167 222.39 71.73H334.21C358.17 29 404.94 0 458.7 0C520.31 0 572.72 38.1 592.17 91.28Z" fill="#00B0AD"/>
<path d="M58.7084 116.282V179.52H46.0245V152.612H18.9353V179.52H6.25136V116.282H18.9353V142.284H46.0245V116.282H58.7084ZM117.851 153.337C117.851 155.149 117.731 156.78 117.489 158.229H80.7962C81.0982 161.853 82.3666 164.692 84.6014 166.746C86.8362 168.799 89.5844 169.826 92.846 169.826C97.5571 169.826 100.909 167.802 102.902 163.756H116.583C115.133 168.588 112.355 172.574 108.248 175.715C104.141 178.795 99.0973 180.335 93.1178 180.335C88.2858 180.335 83.937 179.278 80.0714 177.164C76.2663 174.99 73.2765 171.94 71.1021 168.014C68.9881 164.088 67.9311 159.558 67.9311 154.424C67.9311 149.23 68.9881 144.669 71.1021 140.743C73.2161 136.818 76.1757 133.798 79.9808 131.684C83.786 129.57 88.165 128.513 93.1178 128.513C97.8893 128.513 102.147 129.539 105.892 131.593C109.697 133.647 112.627 136.576 114.68 140.381C116.794 144.126 117.851 148.444 117.851 153.337ZM104.714 149.713C104.654 146.451 103.476 143.854 101.181 141.921C98.8859 139.928 96.0773 138.931 92.7554 138.931C89.6146 138.931 86.957 139.898 84.7826 141.831C82.6686 143.703 81.37 146.33 80.8868 149.713H104.714ZM123.848 154.243C123.848 149.169 124.845 144.669 126.838 140.743C128.891 136.818 131.639 133.798 135.082 131.684C138.585 129.57 142.481 128.513 146.77 128.513C150.514 128.513 153.776 129.268 156.554 130.778C159.393 132.288 161.658 134.19 163.349 136.485V129.328H176.124V179.52H163.349V172.181C161.718 174.537 159.453 176.5 156.554 178.07C153.716 179.58 150.424 180.335 146.679 180.335C142.451 180.335 138.585 179.248 135.082 177.074C131.639 174.899 128.891 171.849 126.838 167.923C124.845 163.937 123.848 159.377 123.848 154.243ZM163.349 154.424C163.349 151.344 162.745 148.716 161.537 146.542C160.329 144.307 158.698 142.616 156.645 141.468C154.591 140.26 152.387 139.656 150.031 139.656C147.676 139.656 145.501 140.23 143.508 141.378C141.515 142.525 139.884 144.216 138.616 146.451C137.408 148.626 136.804 151.223 136.804 154.243C136.804 157.263 137.408 159.92 138.616 162.216C139.884 164.45 141.515 166.172 143.508 167.38C145.562 168.588 147.736 169.192 150.031 169.192C152.387 169.192 154.591 168.618 156.645 167.47C158.698 166.262 160.329 164.571 161.537 162.397C162.745 160.162 163.349 157.504 163.349 154.424ZM201.196 112.476V179.52H188.512V112.476H201.196ZM228.495 139.747V164.028C228.495 165.719 228.888 166.957 229.673 167.742C230.519 168.467 231.908 168.829 233.841 168.829H239.729V179.52H231.757C221.066 179.52 215.721 174.326 215.721 163.937V139.747H209.741V129.328H215.721V116.916H228.495V129.328H239.729V139.747H228.495ZM277.119 128.603C280.925 128.603 284.307 129.449 287.267 131.14C290.226 132.771 292.521 135.217 294.152 138.479C295.843 141.68 296.689 145.545 296.689 150.075V179.52H284.005V151.797C284.005 147.81 283.008 144.76 281.015 142.646C279.022 140.472 276.304 139.384 272.861 139.384C269.358 139.384 266.58 140.472 264.526 142.646C262.533 144.76 261.536 147.81 261.536 151.797V179.52H248.852V112.476H261.536V135.579C263.167 133.405 265.341 131.714 268.059 130.506C270.777 129.237 273.797 128.603 277.119 128.603Z" fill="#00B0AD"/>
<path d="M634.585 101.943C640.565 101.943 645.397 103.846 649.081 107.651C652.766 111.396 654.608 116.65 654.608 123.415V152.86H641.924V125.136C641.924 121.15 640.927 118.1 638.934 115.986C636.941 113.812 634.223 112.724 630.78 112.724C627.277 112.724 624.499 113.812 622.445 115.986C620.452 118.1 619.455 121.15 619.455 125.136V152.86H606.771V102.668H619.455V108.919C621.146 106.745 623.291 105.054 625.888 103.846C628.545 102.577 631.445 101.943 634.585 101.943ZM686.33 101.852C690.074 101.852 693.366 102.607 696.205 104.117C699.044 105.567 701.279 107.47 702.909 109.825V102.668H715.684V153.222C715.684 157.873 714.748 162.01 712.875 165.634C711.003 169.319 708.194 172.218 704.45 174.332C700.705 176.506 696.175 177.593 690.86 177.593C683.732 177.593 677.874 175.933 673.283 172.611C668.753 169.289 666.186 164.759 665.582 159.021H678.176C678.84 161.316 680.26 163.128 682.434 164.457C684.669 165.846 687.356 166.54 690.497 166.54C694.182 166.54 697.171 165.423 699.467 163.188C701.762 161.014 702.909 157.692 702.909 153.222V145.431C701.279 147.786 699.014 149.749 696.114 151.32C693.276 152.89 690.014 153.675 686.33 153.675C682.102 153.675 678.236 152.588 674.733 150.414C671.23 148.239 668.451 145.189 666.398 141.263C664.405 137.277 663.408 132.717 663.408 127.583C663.408 122.509 664.405 118.009 666.398 114.083C668.451 110.157 671.2 107.137 674.642 105.023C678.146 102.909 682.041 101.852 686.33 101.852ZM702.909 127.764C702.909 124.683 702.305 122.056 701.097 119.882C699.889 117.647 698.259 115.956 696.205 114.808C694.151 113.6 691.947 112.996 689.591 112.996C687.236 112.996 685.061 113.57 683.068 114.718C681.075 115.865 679.444 117.556 678.176 119.791C676.968 121.965 676.364 124.563 676.364 127.583C676.364 130.603 676.968 133.26 678.176 135.555C679.444 137.79 681.075 139.512 683.068 140.72C685.122 141.928 687.296 142.532 689.591 142.532C691.947 142.532 694.151 141.958 696.205 140.81C698.259 139.602 699.889 137.911 701.097 135.737C702.305 133.502 702.909 130.844 702.909 127.764ZM734.504 96.6883C732.27 96.6883 730.397 95.9937 728.887 94.6045C727.438 93.1549 726.713 91.3731 726.713 89.2591C726.713 87.1451 727.438 85.3935 728.887 84.0043C730.397 82.5547 732.27 81.83 734.504 81.83C736.739 81.83 738.581 82.5547 740.031 84.0043C741.541 85.3935 742.296 87.1451 742.296 89.2591C742.296 91.3731 741.541 93.1549 740.031 94.6045C738.581 95.9937 736.739 96.6883 734.504 96.6883ZM740.756 102.668V152.86H728.072V102.668H740.756ZM781.102 101.943C787.081 101.943 791.913 103.846 795.597 107.651C799.282 111.396 801.124 116.65 801.124 123.415V152.86H788.44V125.136C788.44 121.15 787.444 118.1 785.45 115.986C783.457 113.812 780.739 112.724 777.296 112.724C773.793 112.724 771.015 113.812 768.961 115.986C766.968 118.1 765.971 121.15 765.971 125.136V152.86H753.288V102.668H765.971V108.919C767.663 106.745 769.807 105.054 772.404 103.846C775.062 102.577 777.961 101.943 781.102 101.943ZM859.844 126.677C859.844 128.489 859.724 130.119 859.482 131.569H822.789C823.091 135.193 824.36 138.032 826.594 140.085C828.829 142.139 831.577 143.166 834.839 143.166C839.55 143.166 842.902 141.142 844.896 137.096H858.576C857.126 141.928 854.348 145.914 850.241 149.055C846.134 152.135 841.09 153.675 835.111 153.675C830.279 153.675 825.93 152.618 822.065 150.504C818.259 148.33 815.27 145.28 813.095 141.354C810.981 137.428 809.924 132.898 809.924 127.764C809.924 122.569 810.981 118.009 813.095 114.083C815.209 110.157 818.169 107.137 821.974 105.023C825.779 102.909 830.158 101.852 835.111 101.852C839.882 101.852 844.141 102.879 847.885 104.933C851.691 106.986 854.62 109.916 856.673 113.721C858.787 117.466 859.844 121.784 859.844 126.677ZM846.708 123.053C846.647 119.791 845.469 117.194 843.174 115.261C840.879 113.268 838.07 112.271 834.748 112.271C831.608 112.271 828.95 113.238 826.776 115.171C824.662 117.043 823.363 119.67 822.88 123.053H846.708ZM915.761 126.677C915.761 128.489 915.64 130.119 915.399 131.569H878.706C879.008 135.193 880.277 138.032 882.511 140.085C884.746 142.139 887.494 143.166 890.756 143.166C895.467 143.166 898.819 141.142 900.812 137.096H914.493C913.043 141.928 910.265 145.914 906.158 149.055C902.051 152.135 897.007 153.675 891.028 153.675C886.196 153.675 881.847 152.618 877.981 150.504C874.176 148.33 871.186 145.28 869.012 141.354C866.898 137.428 865.841 132.898 865.841 127.764C865.841 122.569 866.898 118.009 869.012 114.083C871.126 110.157 874.086 107.137 877.891 105.023C881.696 102.909 886.075 101.852 891.028 101.852C895.799 101.852 900.057 102.879 903.802 104.933C907.607 106.986 910.537 109.916 912.59 113.721C914.704 117.466 915.761 121.784 915.761 126.677ZM902.624 123.053C902.564 119.791 901.386 117.194 899.091 115.261C896.796 113.268 893.987 112.271 890.665 112.271C887.524 112.271 884.867 113.238 882.692 115.171C880.579 117.043 879.28 119.67 878.797 123.053H902.624ZM937.703 110.459C939.334 107.802 941.448 105.718 944.045 104.208C946.703 102.698 949.723 101.943 953.105 101.943V115.261H949.753C945.767 115.261 942.747 116.197 940.693 118.07C938.7 119.942 937.703 123.204 937.703 127.854V152.86H925.019V102.668H937.703V110.459ZM980.855 153.675C976.748 153.675 973.064 152.95 969.802 151.501C966.541 149.991 963.944 147.967 962.011 145.431C960.138 142.894 959.112 140.085 958.93 137.005H971.705C971.947 138.938 972.883 140.538 974.514 141.807C976.205 143.075 978.289 143.709 980.765 143.709C983.181 143.709 985.053 143.226 986.382 142.26C987.771 141.293 988.466 140.055 988.466 138.545C988.466 136.914 987.62 135.706 985.929 134.921C984.298 134.076 981.671 133.17 978.047 132.203C974.302 131.297 971.222 130.361 968.806 129.395C966.45 128.428 964.397 126.948 962.645 124.955C960.954 122.962 960.108 120.274 960.108 116.892C960.108 114.114 960.893 111.577 962.464 109.282C964.095 106.986 966.39 105.174 969.349 103.846C972.369 102.517 975.903 101.852 979.949 101.852C985.929 101.852 990.701 103.362 994.264 106.382C997.828 109.342 999.791 113.359 1000.15 118.432H988.013C987.832 116.439 986.986 114.869 985.476 113.721C984.026 112.513 982.063 111.909 979.587 111.909C977.292 111.909 975.51 112.332 974.242 113.177C973.034 114.023 972.43 115.201 972.43 116.711C972.43 118.402 973.275 119.7 974.967 120.606C976.658 121.452 979.285 122.328 982.849 123.234C986.473 124.14 989.462 125.076 991.818 126.042C994.174 127.009 996.197 128.519 997.888 130.572C999.64 132.566 1000.55 135.223 1000.61 138.545C1000.61 141.444 999.791 144.042 998.16 146.337C996.59 148.632 994.294 150.444 991.274 151.773C988.315 153.041 984.842 153.675 980.855 153.675Z" fill="#00B0AD"/>
</g>
<defs>
<clipPath id="clip0">
<rect width="1013.07" height="272.2" fill="white"/>
</clipPath>
</defs>
</svg>
