<svg width="137" height="73" viewBox="0 0 137 73" fill="none" xmlns="http://www.w3.org/2000/svg">
<g clip-path="url(#clip0_449_647)">
<path d="M10.6729 0C10.7678 0.114667 10.8516 0.304585 10.952 0.329668C15.3645 1.32942 16.5952 5.19586 16.7208 9.48513C16.8073 12.3052 16.7208 15.1289 16.7515 17.9526C16.7515 18.9308 16.5422 19.3035 15.7273 19.3501C11.5102 19.5973 11.513 19.626 11.513 14.1901C11.513 12.6886 11.5632 11.1836 11.4907 9.68938C11.3651 7.13087 10.3017 5.76919 8.54906 5.76919C6.79637 5.76919 5.69396 7.07712 5.62977 9.67504C5.55162 13.0326 5.57116 16.3974 5.64651 19.7586C5.71704 21.5665 6.14545 23.3215 6.89126 24.8577C9.48959 30.4836 12.0182 36.1524 14.6249 41.7675C16.0633 44.8085 16.7989 48.3118 16.7459 51.869C16.7069 55.4129 16.7459 58.9568 16.7459 62.5008C16.7125 69.4776 13.9048 73.0752 8.48766 73C7.41405 73.0002 6.34451 72.8305 5.30323 72.4947C2.51233 71.5595 0.837781 69.2411 0.329836 65.6864C-0.259045 61.6336 0.140054 57.5378 0.0451636 53.4636C0.0451636 52.8723 0.209827 52.5534 0.692654 52.5713C0.7856 52.5785 0.878798 52.5785 0.971745 52.5713C5.29765 52.213 5.29486 52.213 5.30044 57.7528C5.30044 59.6126 5.25858 61.4831 5.36742 63.3357C5.50976 65.7975 6.64845 67.2308 8.3509 67.324C9.98916 67.4136 11.2925 66.1558 11.3874 63.6761C11.58 58.7705 11.7977 53.8398 11.2227 48.945C11.0413 47.3934 10.4357 46.0066 9.82729 44.645C7.36943 39.1911 4.92088 33.7337 2.48163 28.2726C0.999654 24.9795 0.193082 21.4643 0.321463 17.6301C0.427518 14.4552 0.137264 11.2661 0.511245 8.09837C1.03594 3.68368 2.62117 1.45484 6.04003 0.358335C6.22702 0.297418 6.39727 0.265168 6.46146 0H10.6729Z" fill="white"/>
<path d="M137.002 6.48957L136.656 6.42507L136.69 0.749047L137.002 0.716797V6.48957Z" fill="#FDFEFE"/>
<path d="M136.689 66.7067L137.001 66.6816V72.4473L136.652 72.3828C136.667 70.4907 136.679 68.5987 136.689 66.7067Z" fill="#FDFEFE"/>
<path d="M57.6597 34.7587C57.788 34.9773 57.8299 35.1385 57.8997 35.16C61.7846 36.3067 62.3316 39.2665 62.3065 43.4017C62.2451 52.4676 62.2674 61.5335 62.3065 70.5993C62.3065 71.9359 62.1335 72.6239 60.9473 72.434C59.7082 72.2369 58.0895 73.0898 57.2968 72.0757C56.5042 71.0616 57.054 69.0012 57.0484 67.4173C57.0205 59.2509 57.0485 51.0844 57.0345 42.918C57.0345 39.4421 55.9181 37.9944 53.2305 37.9013C49.7391 37.8009 49.7391 37.8009 49.7391 42.2013C49.7391 51.6291 49.7056 61.0569 49.7726 70.4811C49.7726 72.1258 49.407 72.5988 48.2013 72.4197C47.366 72.3149 46.5247 72.3149 45.6895 72.4197C44.8047 72.5093 44.5731 72.0613 44.5926 70.9863C44.6345 66.9658 44.6094 62.9417 44.6094 58.9176C44.6094 40.2448 44.6345 21.5719 44.5703 2.89911C44.5703 1.0071 44.9862 0.612929 46.3509 0.69893C49.9428 0.917514 53.5598 0.369261 57.1378 0.978431C60.4645 1.54818 61.9297 3.65161 61.9911 7.95163C62.0842 14.7361 62.0842 21.5206 61.9911 28.3051C61.9242 32.2002 60.7157 33.8449 57.6597 34.7587ZM49.7391 19.2714V28.8211C49.7391 32.2432 49.7391 32.2432 52.3876 32.2217C55.787 32.1966 56.8084 30.8922 56.8224 26.4883C56.8224 22.285 56.7498 18.0746 56.8447 13.8749C56.9759 8.0018 56.3758 6.13129 50.9085 6.39646C49.9986 6.44304 49.7028 6.72254 49.7195 7.9158C49.7726 11.7034 49.7391 15.4874 49.7391 19.2714Z" fill="white"/>
<path d="M23.0222 36.5959C23.0222 25.1866 23.0389 13.7807 22.9971 2.37494C22.9971 1.03835 23.2399 0.619101 24.306 0.690768C27.6132 0.912936 30.9456 0.332433 34.2416 1.02402C37.6493 1.74069 39.296 3.75095 39.5304 8.11547C39.9728 16.2589 39.9728 24.432 39.5304 32.5754C39.2708 37.3377 37.1553 39.6059 33.195 39.9643C31.9883 40.093 30.7761 40.1169 29.5669 40.036C28.4896 39.9464 28.2328 40.4409 28.2384 41.7667C28.2802 51.3128 28.2384 60.8588 28.2858 70.4048C28.2858 71.9134 28.0877 72.648 26.776 72.4187C25.587 72.2109 24.0185 73.0565 23.2706 72.0819C22.5226 71.1072 23.0445 69.1148 23.0417 67.5704C23.011 57.2468 23.0222 46.9196 23.0222 36.5959ZM28.2495 20.3239V31.1277C28.2495 34.6 28.2495 34.6 31.0153 34.3528C33.5272 34.1198 34.5235 32.7725 34.5291 29.5475C34.5291 23.4271 34.5291 17.3056 34.5291 11.1828C34.5291 7.92197 33.4127 6.4958 30.8423 6.44563C30.4706 6.47776 30.0976 6.47776 29.7259 6.44563C28.59 6.23421 28.1909 6.73588 28.2244 8.28389C28.3082 12.2793 28.2495 16.3034 28.2495 20.3239Z" fill="white"/>
<path d="M136.69 66.7076C136.679 68.5996 136.667 70.4917 136.654 72.3837C132.59 72.3837 128.524 72.3514 124.46 72.4267C123.461 72.4267 123.224 72.0468 123.227 70.807C123.253 47.9524 123.253 25.0954 123.227 2.23601C123.227 1.13234 123.375 0.670084 124.343 0.688C128.454 0.770417 132.568 0.738167 136.679 0.748917L136.645 6.42494C134.262 6.42494 131.881 6.46794 129.498 6.42494C128.716 6.42494 128.446 6.7152 128.448 7.7472C128.476 15.4227 128.476 23.0983 128.448 30.7738C128.448 32.0316 128.839 32.2681 129.693 32.243C131.56 32.1821 133.43 32.2824 135.297 32.2C136.229 32.157 136.461 32.5583 136.461 33.7337C136.461 37.9118 136.497 37.9118 133.19 37.9118C132.024 37.9118 130.851 37.9943 129.688 37.8903C128.669 37.7972 128.446 38.3275 128.451 39.5387C128.485 48.0575 128.485 56.5739 128.451 65.088C128.451 66.3135 128.677 66.7506 129.682 66.7148C132.012 66.6252 134.354 66.6969 136.69 66.7076Z" fill="white"/>
<path d="M91.8494 39.478C91.8494 49.8697 91.8271 60.2614 91.8774 70.6531C91.8774 72.0865 91.5704 72.5738 90.4819 72.4162C89.2874 72.2441 87.7301 73.0504 86.9681 72.0972C86.2062 71.1441 86.7281 69.1374 86.7281 67.5965C86.7114 47.838 86.716 28.0806 86.7421 8.32437C86.7421 6.87311 86.5132 6.26394 85.3048 6.41086C84.1928 6.59073 83.0676 6.59073 81.9557 6.41086C79.9686 5.99161 81.3277 3.93477 81.0486 2.67343C80.8951 1.95676 80.5714 0.702585 81.9306 0.716919C86.8398 0.777836 91.7518 0.759919 96.6638 0.716919C97.4117 0.716919 97.5876 1.03942 97.6155 1.95317C97.7494 6.44669 97.7718 6.44669 94.2664 6.44669C91.869 6.44669 91.869 6.44669 91.869 9.58571L91.8494 39.478Z" fill="white"/>
<path d="M103.262 36.3895C103.262 25.1056 103.29 13.8144 103.234 2.53405C103.234 0.996796 103.572 0.520211 104.716 0.706545C105.905 0.900046 107.507 0.0472087 108.194 1.06488C108.78 1.9428 108.398 3.93156 108.398 5.41507C108.398 25.1629 108.42 44.9143 108.37 64.6622C108.37 66.3463 108.732 66.7907 109.994 66.7047C111.948 66.5685 113.921 66.7047 115.883 66.6545C116.514 66.6545 116.759 66.8372 116.801 67.7295C117.01 72.3879 117.035 72.3879 113.452 72.3879C110.507 72.3879 107.56 72.3162 104.616 72.4237C103.474 72.4631 103.234 71.9758 103.237 70.5998C103.287 59.2011 103.262 47.7953 103.262 36.3895Z" fill="white"/>
<path d="M70.1823 36.5499C70.1823 25.2695 70.2018 13.9748 70.16 2.70515C70.16 1.24314 70.2912 0.461972 71.6336 0.70564C72.8225 0.924224 74.3938 0.092887 75.1501 1.01022C75.9065 1.92756 75.3902 3.97007 75.3929 5.5145C75.4069 27.0576 75.3929 48.6043 75.4292 70.1474C75.4292 71.8531 75.2394 72.7596 73.7156 72.4336C72.5825 72.1899 71.0475 73.0821 70.3805 72.0573C69.8223 71.1937 70.1879 69.3125 70.1879 67.8791C70.1805 57.4253 70.1786 46.9822 70.1823 36.5499Z" fill="white"/>
</g>
<defs>
<clipPath id="clip0_449_647">
<rect width="137" height="73" fill="white"/>
</clipPath>
</defs>
</svg>
