<?xml version="1.0" encoding="utf-8"?>
<!-- Generator: Adobe Illustrator 26.0.2, SVG Export Plug-In . SVG Version: 6.00 Build 0)  -->
<svg version="1.1" id="Layer_1" xmlns="http://www.w3.org/2000/svg" xmlns:xlink="http://www.w3.org/1999/xlink" x="0px" y="0px"
	 viewBox="0 0 512 512" style="enable-background:new 0 0 512 512;" xml:space="preserve">
<style type="text/css">
	.st0{fill:#EF95ED;}
</style>
<g transform="translate(0.000000,512.000000) scale(0.100000,-0.100000)">
	<path class="st0" d="M1475,5106c-98-44-130-167-64-250c46-59,5-56,902-56h824l34,23c37,24,79,97,79,137c0,46-42,113-85,137l-40,23
		l-810-1C1660,5119,1499,5117,1475,5106z"/>
	<path class="st0" d="M1710,3947c0-565-2-682-15-730c-35-136-96-206-264-302c-67-38-168-104-224-146c-125-94-299-273-389-399
		c-65-91-198-338-198-366c0-12,263-14,1695-14h1695l-9,23c-27,69-58,131-102,209l-50,86l-48-48c-58-58-79-63-224-58
		c-116,3-134,11-189,79c-28,35-29,40-63,246c-5,27-14,36-52,53c-25,11-52,20-60,20s-50-28-95-61c-122-93-192-106-284-53
		c-46,26-136,120-161,167c-21,42-20,124,2,167c10,19,42,68,72,107c29,40,53,81,53,90c0,22-35,98-48,107c-5,3-55,12-111,21
		c-116,17-145,29-189,79c-42,48-54,102-50,210c6,160,54,214,218,241c145,23,139,21,160,71c11,25,20,52,20,61c0,8-26,51-59,96
		c-32,45-64,92-70,105c-19,37-15,125,7,169c30,59,151,169,198,180l39,9l3,127l3,127h-606h-605V3947z"/>
	<path class="st0" d="M3533,4452c-7-4-20-57-28-117c-22-150-45-187-145-237c-138-68-192-62-326,37c-49,36-93,65-100,65
		c-20,0-116-109-108-123c5-6,32-45,62-85c94-127,102-178,51-305c-51-126-81-145-289-180l-75-12l-3-73c-2-42,2-79,8-87
		c5-6,52-18,103-25c158-21,204-52,256-175c32-78,39-142,21-191c-6-15-33-57-59-93c-27-36-56-78-66-93l-17-27l53-56
		c28-30,56-55,61-55s48,29,97,65c48,35,100,69,115,75c45,17,102,11,173-16c131-52,162-92,183-239c20-140,17-135,104-135
		c41,0,77,4,80,9s13,55,21,111c18,120,35,160,83,200c44,36,160,80,212,80c56,0,84-13,182-86c99-74,98-74,167,1c48,52,48,48-19,135
		c-69,88-90,132-90,187c0,56,37,166,74,216c30,40,109,73,211,87c50,7,96,17,103,22c17,14,16,142-1,157c-8,6-60,18-118,27
		c-114,18-141,28-181,71c-41,43-88,162-88,223c0,59,14,89,85,185c28,39,54,76,59,82c8,14-88,123-108,123c-7,0-51-29-99-65
		c-88-64-135-85-192-85c-35,0-178,60-207,87c-37,33-58,92-74,200c-8,59-20,111-27,115C3661,4462,3549,4462,3533,4452z M3793,3807
		c177-87,277-274,247-460c-14-92-69-195-135-255c-177-162-435-159-605,8c-93,90-131,185-131,319c0,161,94,311,240,386
		c74,37,115,45,219,41C3711,3843,3728,3839,3793,3807z"/>
	<path class="st0" d="M3530,3671c-118-38-189-137-190-262c0-146,120-269,265-269c100,0,205,69,245,162c28,63,30,154,6,211
		c-22,51-81,114-130,139C3682,3675,3573,3685,3530,3671z"/>
	<path class="st0" d="M532,1733c-77-335-62-671,44-993c91-277,325-642,457-713l42-22h1235h1235l44,23c50,27,88,66,172,175
		c177,229,296,496,351,785c19,98,23,151,22,327c0,208-12,317-54,468l-11,37H2310H552L532,1733z"/>
</g>
</svg>
