<?xml version="1.0" standalone="no"?>
<!DOCTYPE svg PUBLIC "-//W3C//DTD SVG 20010904//EN"
 "http://www.w3.org/TR/2001/REC-SVG-20010904/DTD/svg10.dtd">
<svg version="1.0" xmlns="http://www.w3.org/2000/svg"
 width="512.000000pt" height="512.000000pt" viewBox="0 0 512.000000 512.000000"
 preserveAspectRatio="xMidYMid meet">

<g transform="translate(0.000000,512.000000) scale(0.100000,-0.100000)"
fill="#000000" stroke="none">
<path d="M1475 5106 c-98 -44 -130 -167 -64 -250 46 -59 5 -56 902 -56 l824 0
34 23 c37 24 79 97 79 137 0 46 -42 113 -85 137 l-40 23 -810 -1 c-655 0 -816
-2 -840 -13z"/>
<path d="M1710 3947 c0 -565 -2 -682 -15 -730 -35 -136 -96 -206 -264 -302
-67 -38 -168 -104 -224 -146 -125 -94 -299 -273 -389 -399 -65 -91 -198 -338
-198 -366 0 -12 263 -14 1695 -14 l1695 0 -9 23 c-27 69 -58 131 -102 209
l-50 86 -48 -48 c-58 -58 -79 -63 -224 -58 -116 3 -134 11 -189 79 -28 35 -29
40 -63 246 -5 27 -14 36 -52 53 -25 11 -52 20 -60 20 -8 0 -50 -28 -95 -61
-122 -93 -192 -106 -284 -53 -46 26 -136 120 -161 167 -21 42 -20 124 2 167
10 19 42 68 72 107 29 40 53 81 53 90 0 22 -35 98 -48 107 -5 3 -55 12 -111
21 -116 17 -145 29 -189 79 -42 48 -54 102 -50 210 6 160 54 214 218 241 145
23 139 21 160 71 11 25 20 52 20 61 0 8 -26 51 -59 96 -32 45 -64 92 -70 105
-19 37 -15 125 7 169 30 59 151 169 198 180 l39 9 3 127 3 127 -606 0 -605 0
0 -673z"/>
<path d="M3533 4452 c-7 -4 -20 -57 -28 -117 -22 -150 -45 -187 -145 -237
-138 -68 -192 -62 -326 37 -49 36 -93 65 -100 65 -20 0 -116 -109 -108 -123 5
-6 32 -45 62 -85 94 -127 102 -178 51 -305 -51 -126 -81 -145 -289 -180 l-75
-12 -3 -73 c-2 -42 2 -79 8 -87 5 -6 52 -18 103 -25 158 -21 204 -52 256 -175
32 -78 39 -142 21 -191 -6 -15 -33 -57 -59 -93 -27 -36 -56 -78 -66 -93 l-17
-27 53 -56 c28 -30 56 -55 61 -55 5 0 48 29 97 65 48 35 100 69 115 75 45 17
102 11 173 -16 131 -52 162 -92 183 -239 20 -140 17 -135 104 -135 41 0 77 4
80 9 3 5 13 55 21 111 18 120 35 160 83 200 44 36 160 80 212 80 56 0 84 -13
182 -86 99 -74 98 -74 167 1 48 52 48 48 -19 135 -69 88 -90 132 -90 187 0 56
37 166 74 216 30 40 109 73 211 87 50 7 96 17 103 22 17 14 16 142 -1 157 -8
6 -60 18 -118 27 -114 18 -141 28 -181 71 -41 43 -88 162 -88 223 0 59 14 89
85 185 28 39 54 76 59 82 8 14 -88 123 -108 123 -7 0 -51 -29 -99 -65 -88 -64
-135 -85 -192 -85 -35 0 -178 60 -207 87 -37 33 -58 92 -74 200 -8 59 -20 111
-27 115 -16 10 -128 10 -144 0z m260 -645 c177 -87 277 -274 247 -460 -14 -92
-69 -195 -135 -255 -177 -162 -435 -159 -605 8 -93 90 -131 185 -131 319 0
161 94 311 240 386 74 37 115 45 219 41 83 -3 100 -7 165 -39z"/>
<path d="M3530 3671 c-118 -38 -189 -137 -190 -262 0 -146 120 -269 265 -269
100 0 205 69 245 162 28 63 30 154 6 211 -22 51 -81 114 -130 139 -44 23 -153
33 -196 19z"/>
<path d="M532 1733 c-77 -335 -62 -671 44 -993 91 -277 325 -642 457 -713 l42
-22 1235 0 1235 0 44 23 c50 27 88 66 172 175 177 229 296 496 351 785 19 98
23 151 22 327 0 208 -12 317 -54 468 l-11 37 -1759 0 -1758 0 -20 -87z"/>
</g>
</svg>
