<?xml version="1.0" standalone="no"?>
<!DOCTYPE svg PUBLIC "-//W3C//DTD SVG 20010904//EN"
 "http://www.w3.org/TR/2001/REC-SVG-20010904/DTD/svg10.dtd">
<svg version="1.0" xmlns="http://www.w3.org/2000/svg"
 width="512.000000pt" height="512.000000pt" viewBox="0 0 512.000000 512.000000"
 preserveAspectRatio="xMidYMid meet">

<g transform="translate(0.000000,512.000000) scale(0.100000,-0.100000)"
fill="#000000" stroke="none">
<path d="M175 5026 c-37 -16 -70 -52 -84 -89 -39 -103 41 -303 211 -528 l68
-89 -68 -89 c-146 -193 -229 -372 -220 -478 8 -88 62 -143 150 -151 106 -8
284 74 480 222 l88 66 87 -66 c197 -148 375 -230 481 -222 88 8 142 63 150
151 9 106 -74 285 -220 478 l-68 89 68 89 c146 193 229 372 220 478 -8 89 -62
143 -151 151 -106 9 -285 -74 -478 -220 l-89 -68 -89 68 c-231 175 -433 254
-536 208z m200 -185 c68 -31 208 -121 265 -170 l35 -30 -97 -97 c-85 -86 -99
-96 -113 -84 -26 22 -161 229 -190 292 -14 32 -29 74 -32 94 l-6 37 37 -6 c21
-3 66 -19 101 -36z m982 4 c-3 -20 -18 -61 -32 -93 -29 -62 -164 -270 -190
-292 -14 -12 -27 -2 -111 81 -52 51 -94 97 -94 101 0 11 126 102 213 153 89
53 160 84 196 85 22 0 23 -3 18 -35z m-445 -414 c54 -54 98 -104 98 -111 0
-17 -192 -210 -209 -210 -18 0 -211 193 -211 210 0 17 193 210 211 210 7 0 58
-44 111 -99z m-333 -335 c80 -81 93 -97 82 -110 -24 -28 -219 -156 -293 -191
-84 -40 -128 -46 -128 -15 0 36 41 128 96 217 64 101 131 193 142 193 4 0 50
-42 101 -94z m604 22 c98 -135 171 -269 179 -328 3 -23 0 -25 -35 -24 -20 1
-67 16 -104 34 -73 36 -262 159 -283 185 -12 14 -2 28 81 111 51 52 97 94 101
94 4 0 32 -33 61 -72z"/>
<path d="M745 4375 c-50 -49 -15 -135 55 -135 41 0 80 39 80 80 0 41 -39 80
-80 80 -19 0 -40 -9 -55 -25z"/>
<path d="M3945 4855 c-24 -23 -25 -29 -25 -160 l0 -135 480 0 480 0 0 135 c0
131 -1 137 -25 160 l-24 25 -431 0 -431 0 -24 -25z"/>
<path d="M3920 4240 l0 -160 480 0 480 0 0 160 0 160 -480 0 -480 0 0 -160z"/>
<path d="M1680 4240 l0 -80 80 0 80 0 0 80 0 80 -80 0 -80 0 0 -80z"/>
<path d="M2000 4240 l0 -80 80 0 80 0 0 80 0 80 -80 0 -80 0 0 -80z"/>
<path d="M2320 4240 l0 -80 640 0 640 0 0 80 0 80 -640 0 -640 0 0 -80z"/>
<path d="M3920 3785 c0 -131 1 -137 25 -160 l24 -25 431 0 431 0 24 25 c24 23
25 29 25 160 l0 135 -480 0 -480 0 0 -135z"/>
<path d="M2398 3581 c-13 -11 -30 -37 -36 -58 -16 -53 -73 -117 -129 -144 -62
-30 -140 -30 -210 1 -36 15 -61 20 -80 15 -37 -9 -209 -181 -218 -218 -5 -19
0 -44 15 -80 31 -70 31 -148 1 -210 -27 -56 -91 -113 -144 -129 -69 -21 -77
-41 -77 -198 0 -157 8 -177 77 -198 53 -16 117 -73 144 -129 30 -62 30 -140
-1 -210 -15 -36 -20 -61 -15 -80 9 -37 181 -209 218 -218 19 -5 44 0 80 15 70
31 148 31 210 1 56 -27 113 -91 129 -144 21 -69 41 -77 198 -77 157 0 177 8
198 77 16 53 73 117 129 144 62 30 140 30 210 -1 36 -15 61 -20 80 -15 37 9
209 181 218 218 5 19 0 44 -15 80 -31 70 -31 148 -1 210 27 56 91 113 144 129
69 21 77 41 77 198 0 157 -8 177 -77 198 -53 16 -117 73 -144 129 -30 62 -30
140 1 210 15 36 20 61 15 80 -9 37 -181 209 -218 218 -19 5 -44 0 -80 -15 -70
-31 -148 -31 -210 -1 -56 27 -113 91 -129 144 -21 69 -41 77 -198 77 -121 0
-140 -2 -162 -19z m297 -396 c287 -60 505 -329 505 -625 0 -348 -292 -640
-640 -640 -168 0 -328 68 -451 190 -252 250 -251 649 0 901 156 155 370 219
586 174z"/>
<path d="M2485 2871 c-92 -24 -173 -90 -215 -176 -34 -69 -35 -198 -2 -265 34
-71 75 -114 144 -151 58 -31 70 -34 148 -33 72 0 93 4 136 26 75 40 107 70
145 140 31 58 34 70 34 148 0 78 -3 90 -34 148 -57 104 -144 160 -260 167 -36
2 -79 1 -96 -4z"/>
<path d="M640 2960 l0 -480 80 0 80 0 0 480 0 480 -80 0 -80 0 0 -480z"/>
<path d="M4320 3200 l0 -80 80 0 80 0 0 80 0 80 -80 0 -80 0 0 -80z"/>
<path d="M4320 2880 l0 -80 80 0 80 0 0 80 0 80 -80 0 -80 0 0 -80z"/>
<path d="M4320 2240 l0 -400 80 0 80 0 0 400 0 400 -80 0 -80 0 0 -400z"/>
<path d="M640 2240 l0 -80 80 0 80 0 0 80 0 80 -80 0 -80 0 0 -80z"/>
<path d="M640 1920 l0 -80 80 0 80 0 0 80 0 80 -80 0 -80 0 0 -80z"/>
<path d="M4560 920 l0 -680 -120 0 -120 0 0 360 0 360 -200 0 -200 0 0 -360 0
-360 -160 0 -160 0 0 520 0 520 -160 0 -160 0 0 -520 0 -520 -80 0 -80 0 0
-80 0 -80 960 0 960 0 0 80 0 80 -80 0 -80 0 0 680 0 680 -160 0 -160 0 0
-680z"/>
<path d="M265 1495 c-24 -23 -25 -29 -25 -160 l0 -135 480 0 480 0 0 135 c0
131 -1 137 -25 160 l-24 25 -431 0 -431 0 -24 -25z"/>
<path d="M240 880 l0 -160 480 0 480 0 0 160 0 160 -480 0 -480 0 0 -160z"/>
<path d="M1520 800 l0 -80 480 0 480 0 0 80 0 80 -480 0 -480 0 0 -80z"/>
<path d="M2640 800 l0 -80 80 0 80 0 0 80 0 80 -80 0 -80 0 0 -80z"/>
<path d="M2960 800 l0 -80 80 0 80 0 0 80 0 80 -80 0 -80 0 0 -80z"/>
<path d="M240 425 c0 -131 1 -137 25 -160 l24 -25 431 0 431 0 24 25 c24 23
25 29 25 160 l0 135 -480 0 -480 0 0 -135z"/>
</g>
</svg>
