<?xml version="1.0" standalone="no"?>
<!DOCTYPE svg PUBLIC "-//W3C//DTD SVG 20010904//EN"
 "http://www.w3.org/TR/2001/REC-SVG-20010904/DTD/svg10.dtd">
<svg version="1.0" xmlns="http://www.w3.org/2000/svg"
 width="512.000000pt" height="512.000000pt" viewBox="0 0 512.000000 512.000000"
 preserveAspectRatio="xMidYMid meet">

<g transform="translate(0.000000,512.000000) scale(0.100000,-0.100000)"
fill="#000000" stroke="none">
<path d="M1269 4932 c-6 -20 -13 -105 -16 -189 -6 -161 6 -241 49 -342 32 -77
107 -170 185 -232 68 -54 241 -149 271 -149 7 0 -6 28 -29 63 -57 87 -181 344
-218 452 l-31 90 30 -35 c106 -122 230 -300 301 -435 46 -87 48 -88 56 -60 4
17 8 91 8 165 0 151 -14 218 -67 329 -70 146 -278 304 -485 367 l-42 13 -12
-37z"/>
<path d="M3761 4944 c-278 -107 -437 -261 -498 -485 -19 -69 -25 -307 -10
-364 8 -28 10 -27 56 60 71 135 195 313 301 435 l30 35 -31 -90 c-37 -108
-161 -365 -218 -452 -23 -35 -36 -63 -29 -63 30 0 203 95 271 149 167 133 240
296 238 534 0 65 -3 135 -7 155 -10 63 -24 112 -32 112 -4 -1 -36 -12 -71 -26z"/>
<path d="M2504 4598 c-102 -132 -153 -275 -141 -402 8 -84 38 -160 100 -253
l52 -78 6 155 c6 160 25 320 39 320 14 0 33 -160 39 -320 l6 -155 52 78 c118
178 133 334 48 512 -32 67 -129 205 -145 205 -4 0 -29 -28 -56 -62z"/>
<path d="M1980 3666 c0 -85 10 -119 48 -160 29 -31 95 -76 112 -76 5 0 -3 21
-18 48 -26 43 -62 124 -62 138 0 11 52 -57 85 -112 40 -65 52 -57 41 28 -12
92 -53 146 -143 192 -58 29 -63 24 -63 -58z"/>
<path d="M3060 3714 c-59 -34 -78 -52 -100 -94 -22 -42 -35 -120 -25 -150 6
-18 11 -14 41 35 37 62 84 122 84 107 0 -15 -41 -103 -67 -144 -29 -47 -14
-49 48 -7 75 52 93 88 97 191 5 102 -1 106 -78 62z"/>
<path d="M967 3720 c-27 -5 -51 -11 -55 -14 -9 -10 49 -147 90 -212 71 -113
169 -186 295 -219 59 -15 179 -20 246 -8 l38 6 -71 38 c-121 66 -339 223 -326
236 13 14 295 -117 404 -188 l32 -21 -10 28 c-69 181 -198 308 -355 349 -63
16 -206 18 -288 5z"/>
<path d="M3861 3714 c-153 -41 -283 -170 -351 -348 l-10 -28 32 21 c104 68
305 164 388 185 61 16 -165 -154 -309 -232 l-72 -39 47 -7 c285 -39 491 85
599 362 15 39 26 74 23 77 -11 12 -127 25 -208 24 -47 0 -109 -7 -139 -15z"/>
<path d="M3178 3445 c12 -115 5 -363 -12 -470 -47 -285 -169 -592 -333 -838
-78 -116 -170 -237 -182 -237 -4 0 -15 15 -26 32 -10 18 -65 93 -121 168 -351
465 -791 811 -1234 970 -94 34 -95 35 45 -76 437 -347 745 -792 860 -1242 78
-308 85 -610 20 -938 -34 -168 -113 -404 -183 -547 l-59 -117 258 0 257 0 20
33 c11 17 62 115 114 217 336 660 568 1347 658 1945 27 180 38 536 21 697 -14
132 -51 307 -86 404 l-24 69 7 -70z"/>
<path d="M2386 3080 c-60 -24 -115 -75 -147 -138 -32 -63 -38 -194 -14 -279
77 -269 363 -401 534 -247 143 128 130 388 -27 557 -58 61 -103 91 -172 111
-69 21 -113 20 -174 -4z"/>
<path d="M410 2999 c-99 -27 -232 -98 -331 -177 l-80 -64 23 -25 c105 -114
324 -225 485 -248 146 -20 358 52 517 177 l49 38 -170 0 c-176 0 -343 16 -470
46 l-28 7 35 8 c107 25 282 42 447 43 101 0 183 2 183 3 0 9 -143 104 -204
135 -154 77 -307 97 -456 57z"/>
<path d="M4404 3000 c-89 -23 -210 -83 -291 -145 -35 -26 -63 -49 -63 -51 0
-3 37 -2 83 2 139 11 605 -35 565 -56 -15 -9 -110 -25 -228 -40 -47 -6 -161
-10 -254 -10 l-169 -1 63 -49 c78 -60 206 -124 291 -146 88 -23 228 -23 309 1
122 34 261 113 361 203 l50 45 -43 38 c-111 98 -265 182 -389 213 -85 21 -196
20 -285 -4z"/>
<path d="M3445 2828 c-16 -6 -46 -22 -65 -35 l-35 -23 70 -1 c87 0 159 -12
130 -21 -11 -4 -58 -10 -104 -13 l-84 -7 24 -19 c37 -29 125 -52 167 -44 39 7
93 33 132 64 24 19 24 20 6 40 -52 58 -166 85 -241 59z"/>
<path d="M1279 2226 c-148 -41 -271 -164 -343 -344 -20 -50 -26 -76 -19 -83 5
-5 53 -15 106 -21 256 -30 442 68 554 292 23 46 41 86 39 88 -3 2 -30 -12 -60
-32 -95 -61 -268 -142 -366 -171 -58 -18 162 148 306 230 54 30 71 44 59 49
-29 11 -228 5 -276 -8z"/>
<path d="M3557 2233 c-4 -3 27 -26 69 -49 112 -64 330 -221 320 -231 -13 -13
-272 104 -374 168 -35 22 -66 39 -68 37 -2 -2 15 -41 39 -87 116 -229 310
-329 570 -291 49 7 91 18 93 24 7 17 -57 164 -93 217 -73 105 -169 177 -277
205 -52 14 -267 20 -279 7z"/>
<path d="M1689 1456 c-223 -97 -368 -253 -420 -453 -29 -112 -28 -304 3 -426
9 -37 11 -38 41 -31 58 12 182 70 258 119 222 143 319 342 306 627 -3 64 -8
122 -12 128 -4 7 -23 -18 -47 -62 -81 -150 -203 -326 -297 -428 l-41 -45 29
80 c61 168 144 339 211 440 29 43 53 85 48 85 -2 0 -37 -15 -79 -34z"/>
<path d="M3371 1453 c12 -21 30 -49 39 -63 61 -92 167 -318 211 -450 l19 -55
-42 45 c-91 100 -199 256 -285 410 -64 116 -68 111 -68 -90 0 -112 5 -160 19
-210 41 -140 102 -231 217 -323 105 -85 317 -188 354 -173 18 6 37 147 38 271
0 201 -54 338 -188 470 -81 81 -176 143 -283 185 l-54 20 23 -37z"/>
</g>
</svg>
