<?xml version="1.0" encoding="utf-8"?>
<!-- Generator: Adobe Illustrator 26.0.2, SVG Export Plug-In . SVG Version: 6.00 Build 0)  -->
<svg version="1.1" id="Layer_1" xmlns="http://www.w3.org/2000/svg" xmlns:xlink="http://www.w3.org/1999/xlink" x="0px" y="0px"
	 viewBox="0 0 512 512" style="enable-background:new 0 0 512 512;" xml:space="preserve">
<style type="text/css">
	.st0{fill:#516B54;}
</style>
<g transform="translate(0.000000,512.000000) scale(0.100000,-0.100000)">
	<path class="st0" d="M1269,4932c-6-20-13-105-16-189c-6-161,6-241,49-342c32-77,107-170,185-232c68-54,241-149,271-149
		c7,0-6,28-29,63c-57,87-181,344-218,452l-31,90l30-35c106-122,230-300,301-435c46-87,48-88,56-60c4,17,8,91,8,165
		c0,151-14,218-67,329c-70,146-278,304-485,367l-42,13L1269,4932z"/>
	<path class="st0" d="M3761,4944c-278-107-437-261-498-485c-19-69-25-307-10-364c8-28,10-27,56,60c71,135,195,313,301,435l30,35
		l-31-90c-37-108-161-365-218-452c-23-35-36-63-29-63c30,0,203,95,271,149c167,133,240,296,238,534c0,65-3,135-7,155
		c-10,63-24,112-32,112C3828,4969,3796,4958,3761,4944z"/>
	<path class="st0" d="M2504,4598c-102-132-153-275-141-402c8-84,38-160,100-253l52-78l6,155c6,160,25,320,39,320s33-160,39-320
		l6-155l52,78c118,178,133,334,48,512c-32,67-129,205-145,205C2556,4660,2531,4632,2504,4598z"/>
	<path class="st0" d="M1980,3666c0-85,10-119,48-160c29-31,95-76,112-76c5,0-3,21-18,48c-26,43-62,124-62,138c0,11,52-57,85-112
		c40-65,52-57,41,28c-12,92-53,146-143,192C1985,3753,1980,3748,1980,3666z"/>
	<path class="st0" d="M3060,3714c-59-34-78-52-100-94s-35-120-25-150c6-18,11-14,41,35c37,62,84,122,84,107s-41-103-67-144
		c-29-47-14-49,48-7c75,52,93,88,97,191C3143,3754,3137,3758,3060,3714z"/>
	<path class="st0" d="M967,3720c-27-5-51-11-55-14c-9-10,49-147,90-212c71-113,169-186,295-219c59-15,179-20,246-8l38,6l-71,38
		c-121,66-339,223-326,236c13,14,295-117,404-188l32-21l-10,28c-69,181-198,308-355,349C1192,3731,1049,3733,967,3720z"/>
	<path class="st0" d="M3861,3714c-153-41-283-170-351-348l-10-28l32,21c104,68,305,164,388,185c61,16-165-154-309-232l-72-39l47-7
		c285-39,491,85,599,362c15,39,26,74,23,77c-11,12-127,25-208,24C3953,3729,3891,3722,3861,3714z"/>
	<path class="st0" d="M3178,3445c12-115,5-363-12-470c-47-285-169-592-333-838c-78-116-170-237-182-237c-4,0-15,15-26,32
		c-10,18-65,93-121,168c-351,465-791,811-1234,970c-94,34-95,35,45-76c437-347,745-792,860-1242c78-308,85-610,20-938
		c-34-168-113-404-183-547l-59-117h258h257l20,33c11,17,62,115,114,217c336,660,568,1347,658,1945c27,180,38,536,21,697
		c-14,132-51,307-86,404l-24,69L3178,3445z"/>
	<path class="st0" d="M2386,3080c-60-24-115-75-147-138s-38-194-14-279c77-269,363-401,534-247c143,128,130,388-27,557
		c-58,61-103,91-172,111C2491,3105,2447,3104,2386,3080z"/>
	<path class="st0" d="M410,2999c-99-27-232-98-331-177l-80-64l23-25c105-114,324-225,485-248c146-20,358,52,517,177l49,38H903
		c-176,0-343,16-470,46l-28,7l35,8c107,25,282,42,447,43c101,0,183,2,183,3c0,9-143,104-204,135C712,3019,559,3039,410,2999z"/>
	<path class="st0" d="M4404,3000c-89-23-210-83-291-145c-35-26-63-49-63-51c0-3,37-2,83,2c139,11,605-35,565-56c-15-9-110-25-228-40
		c-47-6-161-10-254-10l-169-1l63-49c78-60,206-124,291-146c88-23,228-23,309,1c122,34,261,113,361,203l50,45l-43,38
		c-111,98-265,182-389,213C4604,3025,4493,3024,4404,3000z"/>
	<path class="st0" d="M3445,2828c-16-6-46-22-65-35l-35-23l70-1c87,0,159-12,130-21c-11-4-58-10-104-13l-84-7l24-19
		c37-29,125-52,167-44c39,7,93,33,132,64c24,19,24,20,6,40C3634,2827,3520,2854,3445,2828z"/>
	<path class="st0" d="M1279,2226c-148-41-271-164-343-344c-20-50-26-76-19-83c5-5,53-15,106-21c256-30,442,68,554,292
		c23,46,41,86,39,88c-3,2-30-12-60-32c-95-61-268-142-366-171c-58-18,162,148,306,230c54,30,71,44,59,49
		C1526,2245,1327,2239,1279,2226z"/>
	<path class="st0" d="M3557,2233c-4-3,27-26,69-49c112-64,330-221,320-231c-13-13-272,104-374,168c-35,22-66,39-68,37s15-41,39-87
		c116-229,310-329,570-291c49,7,91,18,93,24c7,17-57,164-93,217c-73,105-169,177-277,205C3784,2240,3569,2246,3557,2233z"/>
	<path class="st0" d="M1689,1456c-223-97-368-253-420-453c-29-112-28-304,3-426c9-37,11-38,41-31c58,12,182,70,258,119
		c222,143,319,342,306,627c-3,64-8,122-12,128c-4,7-23-18-47-62c-81-150-203-326-297-428l-41-45l29,80c61,168,144,339,211,440
		c29,43,53,85,48,85C1766,1490,1731,1475,1689,1456z"/>
	<path class="st0" d="M3371,1453c12-21,30-49,39-63c61-92,167-318,211-450l19-55l-42,45c-91,100-199,256-285,410
		c-64,116-68,111-68-90c0-112,5-160,19-210c41-140,102-231,217-323c105-85,317-188,354-173c18,6,37,147,38,271c0,201-54,338-188,470
		c-81,81-176,143-283,185l-54,20L3371,1453z"/>
</g>
</svg>
