<?xml version="1.0" standalone="no"?>
<!DOCTYPE svg PUBLIC "-//W3C//DTD SVG 20010904//EN"
 "http://www.w3.org/TR/2001/REC-SVG-20010904/DTD/svg10.dtd">
<svg version="1.0" xmlns="http://www.w3.org/2000/svg"
 width="512.000000pt" height="512.000000pt" viewBox="0 0 512.000000 512.000000"
 preserveAspectRatio="xMidYMid meet">

<g transform="translate(0.000000,512.000000) scale(0.100000,-0.100000)"
fill="#000000" stroke="none">
<path d="M4353 5106 c-185 -45 -337 -205 -374 -394 -15 -79 -7 -191 19 -258
l19 -51 -268 -203 -269 -203 -71 33 c-139 64 -290 64 -427 0 l-63 -30 -263
216 -264 216 14 45 c18 58 18 193 0 258 -33 124 -129 248 -241 310 -305 171
-687 -22 -737 -372 -10 -71 -10 -92 6 -160 10 -43 19 -85 20 -94 0 -9 -154
-178 -343 -377 -320 -338 -345 -361 -370 -355 -51 15 -177 6 -245 -17 -295
-98 -428 -422 -290 -704 128 -261 476 -350 724 -184 225 150 286 463 135 689
l-34 50 311 327 c171 180 316 326 322 325 6 -1 40 -14 76 -29 47 -19 88 -28
150 -32 103 -6 172 8 257 50 l63 31 48 -39 c26 -22 143 -118 260 -213 183
-150 212 -177 206 -195 -18 -54 -24 -97 -24 -172 -1 -325 307 -561 625 -479
189 50 335 216 367 417 10 65 9 89 -6 164 -9 47 -15 87 -14 88 2 2 50 38 108
82 58 44 181 138 273 208 l168 127 67 -27 c184 -73 400 -26 539 119 96 99 143
214 143 347 0 318 -307 561 -617 486z m231 -323 c159 -112 80 -363 -114 -363
-223 0 -275 311 -65 389 50 18 133 6 179 -26z m-2550 -10 c64 -45 87 -94 84
-175 -4 -75 -18 -100 -82 -152 -34 -28 -44 -31 -110 -31 -62 0 -78 4 -114 28
-99 65 -117 205 -39 294 69 79 179 94 261 36z m1241 -1012 c81 -37 134 -129
120 -211 -10 -61 -56 -124 -109 -150 -93 -44 -193 -16 -260 73 -30 41 -34 142
-8 193 51 99 160 139 257 95z m-2569 -376 c56 -16 105 -61 128 -117 45 -108
-19 -234 -133 -264 -162 -42 -301 121 -232 271 21 47 80 102 119 111 15 3 32
7 37 9 19 6 32 5 81 -10z"/>
<path d="M4318 3161 c-150 -48 -257 -151 -319 -306 l-24 -60 -3 -1398 -2
-1397 490 0 490 0 0 1378 c0 1496 2 1429 -55 1541 -56 112 -184 214 -309 247
-72 19 -199 17 -268 -5z m232 -301 c22 -11 52 -39 67 -62 l28 -42 3 -1228 2
-1228 -190 0 -190 0 0 1213 c0 1161 1 1214 19 1253 47 103 163 144 261 94z"/>
<path d="M1797 2769 c-107 -25 -232 -118 -297 -219 -18 -28 -41 -77 -51 -111
-18 -58 -19 -111 -19 -1250 l0 -1189 490 0 491 0 -3 1188 c-3 1118 -4 1190
-22 1242 -56 169 -195 302 -356 339 -54 13 -180 12 -233 0z m230 -325 c79 -63
73 24 73 -1121 l0 -1023 -185 0 -185 0 2 1033 3 1034 28 36 c43 57 90 78 164
74 52 -2 69 -8 100 -33z"/>
<path d="M3111 1949 c-131 -23 -272 -122 -339 -240 -63 -111 -62 -95 -62 -941
l0 -768 490 0 490 0 0 738 c0 456 -4 762 -10 802 -21 131 -109 267 -216 336
-100 64 -240 93 -353 73z m182 -322 c23 -13 50 -41 65 -67 l27 -45 3 -608 3
-607 -191 0 -190 0 0 605 c0 486 3 612 14 638 16 40 77 95 114 103 15 3 32 7
37 9 20 8 81 -7 118 -28z"/>
<path d="M575 1500 c-150 -25 -293 -128 -361 -261 -51 -102 -54 -132 -54 -706
l0 -533 490 0 490 0 0 538 c0 583 -1 595 -56 704 -31 62 -123 161 -180 194
-94 55 -226 81 -329 64z m120 -301 c56 -15 104 -54 126 -103 17 -38 19 -71 19
-418 l0 -378 -190 0 -190 0 0 368 c0 227 4 381 11 405 13 50 76 112 125 125
52 13 53 13 99 1z"/>
</g>
</svg>
