<?xml version="1.0" encoding="utf-8"?>
<!-- Generator: Adobe Illustrator 26.0.2, SVG Export Plug-In . SVG Version: 6.00 Build 0)  -->
<svg version="1.1" id="Layer_1" xmlns="http://www.w3.org/2000/svg" xmlns:xlink="http://www.w3.org/1999/xlink" x="0px" y="0px"
	 viewBox="0 0 512 512" style="enable-background:new 0 0 512 512;" xml:space="preserve">
<style type="text/css">
	.st0{fill:#649E97;}
</style>
<g transform="translate(0.000000,512.000000) scale(0.100000,-0.100000)">
	<path class="st0" d="M4353,5106c-185-45-337-205-374-394c-15-79-7-191,19-258l19-51l-268-203l-269-203l-71,33c-139,64-290,64-427,0
		l-63-30l-263,216l-264,216l14,45c18,58,18,193,0,258c-33,124-129,248-241,310c-305,171-687-22-737-372c-10-71-10-92,6-160
		c10-43,19-85,20-94c0-9-154-178-343-377c-320-338-345-361-370-355c-51,15-177,6-245-17c-295-98-428-422-290-704
		c128-261,476-350,724-184c225,150,286,463,135,689l-34,50l311,327c171,180,316,326,322,325s40-14,76-29c47-19,88-28,150-32
		c103-6,172,8,257,50l63,31l48-39c26-22,143-118,260-213c183-150,212-177,206-195c-18-54-24-97-24-172c-1-325,307-561,625-479
		c189,50,335,216,367,417c10,65,9,89-6,164c-9,47-15,87-14,88c2,2,50,38,108,82s181,138,273,208l168,127l67-27
		c184-73,400-26,539,119c96,99,143,214,143,347C4970,4938,4663,5181,4353,5106z M4584,4783c159-112,80-363-114-363
		c-223,0-275,311-65,389C4455,4827,4538,4815,4584,4783z M2034,4773c64-45,87-94,84-175c-4-75-18-100-82-152c-34-28-44-31-110-31
		c-62,0-78,4-114,28c-99,65-117,205-39,294C1842,4816,1952,4831,2034,4773z M3275,3761c81-37,134-129,120-211c-10-61-56-124-109-150
		c-93-44-193-16-260,73c-30,41-34,142-8,193C3069,3765,3178,3805,3275,3761z M706,3385c56-16,105-61,128-117c45-108-19-234-133-264
		c-162-42-301,121-232,271c21,47,80,102,119,111c15,3,32,7,37,9C644,3401,657,3400,706,3385z"/>
	<path class="st0" d="M4318,3161c-150-48-257-151-319-306l-24-60l-3-1398L3970,0h490h490v1378c0,1496,2,1429-55,1541
		c-56,112-184,214-309,247C4514,3185,4387,3183,4318,3161z M4550,2860c22-11,52-39,67-62l28-42l3-1228l2-1228h-190h-190v1213
		c0,1161,1,1214,19,1253C4336,2869,4452,2910,4550,2860z"/>
	<path class="st0" d="M1797,2769c-107-25-232-118-297-219c-18-28-41-77-51-111c-18-58-19-111-19-1250V0h490h491l-3,1188
		c-3,1118-4,1190-22,1242c-56,169-195,302-356,339C1976,2782,1850,2781,1797,2769z M2027,2444c79-63,73,24,73-1121V300h-185h-185
		l2,1033l3,1034l28,36c43,57,90,78,164,74C1979,2475,1996,2469,2027,2444z"/>
	<path class="st0" d="M3111,1949c-131-23-272-122-339-240c-63-111-62-95-62-941V0h490h490v738c0,456-4,762-10,802
		c-21,131-109,267-216,336C3364,1940,3224,1969,3111,1949z M3293,1627c23-13,50-41,65-67l27-45l3-608l3-607h-191h-190v605
		c0,486,3,612,14,638c16,40,77,95,114,103c15,3,32,7,37,9C3195,1663,3256,1648,3293,1627z"/>
	<path class="st0" d="M575,1500c-150-25-293-128-361-261c-51-102-54-132-54-706V0h490h490v538c0,583-1,595-56,704
		c-31,62-123,161-180,194C810,1491,678,1517,575,1500z M695,1199c56-15,104-54,126-103c17-38,19-71,19-418V300H650H460v368
		c0,227,4,381,11,405c13,50,76,112,125,125C648,1211,649,1211,695,1199z"/>
</g>
</svg>
