<?xml version="1.0" encoding="utf-8"?>
<!-- Generator: Adobe Illustrator 26.0.2, SVG Export Plug-In . SVG Version: 6.00 Build 0)  -->
<svg version="1.1" id="Layer_1" xmlns="http://www.w3.org/2000/svg" xmlns:xlink="http://www.w3.org/1999/xlink" x="0px" y="0px"
	 viewBox="0 0 512 512" style="enable-background:new 0 0 512 512;" xml:space="preserve">
<style type="text/css">
	.st0{fill:#B5BBC6;}
</style>
<g transform="translate(0.000000,512.000000) scale(0.100000,-0.100000)">
	<path class="st0" d="M1320,5091c0-25-5-30-34-35c-112-21-263-140-324-254c-66-125-62,33-62-2242s-4-2117,62-2242
		c61-114,212-233,324-254c29-5,34-10,34-35V0h1240h1240v29c0,25,5,30,34,35c112,21,263,140,324,254c66,125,62-33,62,2242
		s4,2117-62,2242c-61,114-212,233-324,254c-29,5-34,10-34,35v29H2560H1320V5091z M3875,4828c43-23,85-67,101-105
		c12-27,14-321,14-1728V1300H2560H1130l2,1708l3,1708l24,36c31,44,81,79,129,89c20,4,604,6,1297,5C3738,4845,3848,4844,3875,4828z
		 M3988,737l-3-334l-24-35c-31-45-75-74-131-87c-55-13-2473-14-2537-2c-53,10-102,43-134,89l-24,35l-3,334l-3,333h1431h1431
		L3988,737z"/>
	<path class="st0" d="M2373,4579c-39-11-91-61-99-96c-8-30,17-67,66-100c31-22,42-23,220-23s189,1,220,23c49,33,74,70,66,100
		c-9,37-61,85-104,97C2697,4592,2417,4592,2373,4579z"/>
	<path class="st0" d="M2460,3909c-233-31-463-146-633-315c-224-224-353-555-318-823c58-457,378-818,829-938c194-52,411-31,620,60
		c365,158,624,519,657,917c12,136-34,338-111,493c-105,209-284,390-489,494C2836,3888,2621,3932,2460,3909z M2742,3676
		c162-31,279-91,396-201c115-108,187-226,228-376c14-50,18-102,19-239c0-153-3-185-23-253c-77-267-272-464-542-549
		c-67-21-94-23-260-23s-193,2-260,23c-270,85-465,282-542,549c-20,68-23,100-23,253c1,137,5,189,19,239c39,144,112,265,218,367
		c129,125,229,174,443,218C2464,3694,2675,3689,2742,3676z"/>
	<path class="st0" d="M2440,3115v-145h-145h-145v-115v-115h145h144l3-142l3-143h115h115l3,143l3,142h144h145v115v115h-145h-145v145
		v145h-120h-120V3115z"/>
	<path class="st0" d="M1570,789c-52-21-104-89-91-119c12-31,37-58,71-79c31-19,50-21,165-21c116,0,134,3,169,23c21,12,48,38,59,58
		l21,37l-24,36c-42,61-87,76-226,75C1649,799,1584,794,1570,789z"/>
	<path class="st0" d="M3241,778c-24-13-52-38-64-59l-21-36l23-37c39-62,80-76,228-76c113,0,132,3,163,21c67,41,87,86,57,130
		c-45,67-65,74-210,77C3295,801,3282,800,3241,778z"/>
	<path class="st0" d="M2522,760c-33-20-72-74-72-99c0-22,85-101,109-101c25,0,97,65,105,95c8,27-26,80-66,105c-18,11-35,20-38,20
		S2540,771,2522,760z"/>
</g>
</svg>
