<?xml version="1.0" standalone="no"?>
<!DOCTYPE svg PUBLIC "-//W3C//DTD SVG 20010904//EN"
 "http://www.w3.org/TR/2001/REC-SVG-20010904/DTD/svg10.dtd">
<svg version="1.0" xmlns="http://www.w3.org/2000/svg"
 width="512.000000pt" height="512.000000pt" viewBox="0 0 512.000000 512.000000"
 preserveAspectRatio="xMidYMid meet">
<metadata>
Created by potrace 1.16, written by Peter Selinger 2001-2019
</metadata>
<g transform="translate(0.000000,512.000000) scale(0.100000,-0.100000)"
fill="#000000" stroke="none">
<path d="M1320 5091 c0 -25 -5 -30 -34 -35 -112 -21 -263 -140 -324 -254 -66
-125 -62 33 -62 -2242 0 -2275 -4 -2117 62 -2242 61 -114 212 -233 324 -254
29 -5 34 -10 34 -35 l0 -29 1240 0 1240 0 0 29 c0 25 5 30 34 35 112 21 263
140 324 254 66 125 62 -33 62 2242 0 2275 4 2117 -62 2242 -61 114 -212 233
-324 254 -29 5 -34 10 -34 35 l0 29 -1240 0 -1240 0 0 -29z m2555 -263 c43
-23 85 -67 101 -105 12 -27 14 -321 14 -1728 l0 -1695 -1430 0 -1430 0 2 1708
3 1708 24 36 c31 44 81 79 129 89 20 4 604 6 1297 5 1153 -1 1263 -2 1290 -18z
m113 -4091 l-3 -334 -24 -35 c-31 -45 -75 -74 -131 -87 -55 -13 -2473 -14
-2537 -2 -53 10 -102 43 -134 89 l-24 35 -3 334 -3 333 1431 0 1431 0 -3 -333z"/>
<path d="M2373 4579 c-39 -11 -91 -61 -99 -96 -8 -30 17 -67 66 -100 31 -22
42 -23 220 -23 178 0 189 1 220 23 49 33 74 70 66 100 -9 37 -61 85 -104 97
-45 12 -325 12 -369 -1z"/>
<path d="M2460 3909 c-233 -31 -463 -146 -633 -315 -224 -224 -353 -555 -318
-823 58 -457 378 -818 829 -938 194 -52 411 -31 620 60 365 158 624 519 657
917 12 136 -34 338 -111 493 -105 209 -284 390 -489 494 -179 91 -394 135
-555 112z m282 -233 c162 -31 279 -91 396 -201 115 -108 187 -226 228 -376 14
-50 18 -102 19 -239 0 -153 -3 -185 -23 -253 -77 -267 -272 -464 -542 -549
-67 -21 -94 -23 -260 -23 -166 0 -193 2 -260 23 -270 85 -465 282 -542 549
-20 68 -23 100 -23 253 1 137 5 189 19 239 39 144 112 265 218 367 129 125
229 174 443 218 49 10 260 5 327 -8z"/>
<path d="M2440 3115 l0 -145 -145 0 -145 0 0 -115 0 -115 145 0 144 0 3 -142
3 -143 115 0 115 0 3 143 3 142 144 0 145 0 0 115 0 115 -145 0 -145 0 0 145
0 145 -120 0 -120 0 0 -145z"/>
<path d="M1570 789 c-52 -21 -104 -89 -91 -119 12 -31 37 -58 71 -79 31 -19
50 -21 165 -21 116 0 134 3 169 23 21 12 48 38 59 58 l21 37 -24 36 c-42 61
-87 76 -226 75 -65 0 -130 -5 -144 -10z"/>
<path d="M3241 778 c-24 -13 -52 -38 -64 -59 l-21 -36 23 -37 c39 -62 80 -76
228 -76 113 0 132 3 163 21 67 41 87 86 57 130 -45 67 -65 74 -210 77 -122 3
-135 2 -176 -20z"/>
<path d="M2522 760 c-33 -20 -72 -74 -72 -99 0 -22 85 -101 109 -101 25 0 97
65 105 95 8 27 -26 80 -66 105 -18 11 -35 20 -38 20 -3 0 -20 -9 -38 -20z"/>
</g>
</svg>
